{"glyphs":{"0":{"ha":739,"x_min":0,"x_max":0,"o":"m 394 -3 b 237 44 333 -3 281 13 b 127 164 193 76 156 116 b 61 322 98 212 76 265 b 36 486 46 380 38 434 b 58 653 34 550 41 606 b 128 770 74 700 97 739 b 237 840 158 801 195 824 b 375 863 279 855 325 863 b 532 830 437 863 489 852 b 634 740 575 808 609 778 b 688 607 659 702 678 658 b 703 443 699 556 704 501 b 683 276 702 386 695 330 b 628 134 671 223 653 175 b 533 35 603 93 571 60 b 394 -3 494 10 448 -3 m 204 486 b 212 386 204 459 207 426 b 238 271 217 346 226 308 b 288 176 251 234 267 202 b 365 136 309 149 335 136 b 439 169 393 136 418 147 b 493 251 460 191 478 218 b 528 358 508 284 519 319 b 542 464 536 396 541 431 b 536 553 543 493 541 522 b 510 639 531 584 523 613 b 458 703 498 665 481 686 b 374 729 436 721 408 729 b 295 708 343 729 317 722 b 242 652 273 693 256 675 b 213 574 229 629 219 603 b 204 486 207 545 204 516 "},"1":{"ha":407,"x_min":0,"x_max":0,"o":"m 185 563 b 128 450 165 513 146 476 b 77 398 109 424 92 407 b 36 392 62 389 48 387 b 9 417 24 396 15 405 b 1 460 3 429 0 443 b 18 507 2 476 8 492 b 63 567 29 525 44 544 b 118 635 81 589 100 612 b 168 706 137 659 153 683 b 196 772 183 730 192 752 b 232 843 202 807 214 831 b 286 853 250 855 268 859 b 335 818 305 848 321 837 b 357 750 350 800 357 777 b 349 587 357 695 354 641 b 334 424 344 533 339 478 b 323 260 329 369 325 314 b 328 96 321 205 322 150 b 313 26 331 64 327 41 b 265 0 300 10 284 2 b 210 11 247 -2 228 2 b 172 53 191 20 179 34 b 156 160 162 80 157 116 b 161 302 156 205 157 253 b 174 447 165 352 169 400 b 185 563 179 493 183 532 "},"2":{"ha":607,"x_min":0,"x_max":0,"o":"m 207 150 b 271 148 226 148 248 147 b 340 153 294 148 317 150 b 406 169 363 157 385 162 b 461 197 427 177 445 186 b 501 212 473 206 487 210 b 543 206 516 213 530 211 b 575 183 556 201 567 194 b 585 148 583 173 587 161 b 565 105 584 134 577 120 b 501 58 552 90 531 74 b 415 27 476 45 448 35 b 317 9 383 19 350 13 b 226 1 284 5 254 2 b 163 0 199 0 177 0 b 40 31 106 0 65 10 b 1 108 14 52 1 78 b 33 201 0 138 11 169 b 126 286 56 234 87 262 b 222 341 156 304 188 322 b 315 405 255 360 287 381 b 387 483 344 428 368 455 b 415 583 406 512 415 545 b 396 664 415 613 409 640 b 336 700 383 688 363 700 b 292 689 322 700 307 696 b 247 661 276 681 261 672 b 208 624 232 650 219 638 b 185 585 197 610 189 597 b 140 524 174 556 159 536 b 87 511 121 513 103 508 b 50 540 71 514 58 524 b 53 610 42 557 43 580 b 94 694 62 638 76 666 b 157 769 112 722 133 747 b 237 823 181 792 208 809 b 329 843 266 836 297 843 b 414 826 357 843 385 837 b 492 774 443 814 469 797 b 549 688 515 750 534 722 b 572 568 563 653 571 613 b 538 421 573 508 562 459 b 449 321 515 383 485 350 b 330 240 413 292 373 265 b 207 150 287 214 246 184 "},"3":{"ha":565,"x_min":0,"x_max":0,"o":"m 376 458 b 451 432 404 456 429 448 b 508 375 474 416 493 397 b 544 301 524 353 536 328 b 557 225 553 275 557 249 b 535 135 557 193 550 163 b 473 65 520 108 499 84 b 379 18 447 45 415 29 b 260 1 343 7 303 1 b 192 6 238 1 216 3 b 124 22 169 9 146 15 b 64 52 103 30 82 40 b 18 99 45 65 30 80 b 2 163 5 118 0 140 b 25 222 4 187 12 206 b 75 249 38 238 55 247 b 142 217 95 250 118 240 b 174 184 154 205 164 194 b 202 160 183 174 192 166 b 233 145 212 153 222 148 b 274 142 244 142 258 141 b 322 152 291 143 307 146 b 361 176 337 158 350 166 b 387 208 372 185 381 196 b 396 246 393 220 396 233 b 381 295 396 263 391 280 b 344 335 370 310 358 324 b 298 361 329 346 314 355 b 257 371 282 368 268 371 b 173 390 217 372 189 378 b 151 428 157 401 149 414 b 176 468 152 442 161 455 b 236 493 192 481 212 489 b 331 536 280 500 311 515 b 358 629 350 557 359 588 b 344 696 358 656 353 678 b 289 724 334 713 316 723 b 251 717 274 725 262 722 b 224 697 241 712 232 705 b 203 666 216 688 209 678 b 185 632 197 654 191 643 b 132 575 171 605 153 586 b 74 563 111 564 91 560 b 35 592 56 565 43 575 b 42 663 26 609 29 633 b 84 735 53 688 67 713 b 143 794 101 758 121 778 b 216 834 165 811 190 824 b 300 849 242 844 270 849 b 391 830 335 849 366 842 b 453 781 416 817 437 801 b 490 713 470 760 482 738 b 501 638 497 688 501 663 b 474 538 501 601 492 568 b 376 458 456 508 424 481 "},"4":{"ha":643,"x_min":0,"x_max":0,"o":"m 1 389 b 11 428 1 406 5 419 b 35 447 18 436 25 443 b 63 460 44 452 53 456 b 86 476 73 463 81 469 b 163 606 116 513 141 557 b 225 747 185 656 206 703 b 282 817 242 783 261 806 b 342 823 303 827 323 829 b 386 788 360 817 375 805 b 396 738 397 771 400 754 b 370 674 389 716 381 695 b 335 613 359 653 348 633 b 298 552 323 592 310 572 b 265 492 285 532 275 512 b 301 501 275 494 288 497 b 344 510 315 504 330 507 b 388 517 359 513 374 515 b 426 521 403 519 415 520 b 435 643 430 562 433 602 b 453 764 437 684 443 724 b 493 834 461 796 475 820 b 548 854 512 848 530 855 b 593 831 566 853 581 846 b 606 774 605 817 609 798 b 586 615 598 730 592 677 b 572 421 581 552 576 488 b 563 226 567 354 565 289 b 564 64 562 162 562 108 b 544 15 565 45 558 29 b 494 -8 529 1 513 -6 b 441 14 476 -9 458 -2 b 408 101 424 30 413 59 b 406 163 406 116 406 137 b 407 245 406 190 406 217 b 410 327 408 273 409 301 b 413 389 411 353 412 374 b 357 376 392 386 374 382 b 314 364 342 373 328 369 l 272 350 b 183 323 244 340 214 331 b 85 311 152 315 119 311 b 22 336 57 311 36 319 b 1 389 8 353 1 370 "},"5":{"ha":608,"x_min":0,"x_max":0,"o":"m 203 604 b 348 591 253 602 301 598 b 472 553 395 584 436 571 b 556 473 507 534 535 508 b 586 333 577 438 587 392 b 566 213 585 292 578 252 b 509 112 553 175 534 141 b 413 42 484 83 452 59 b 278 15 375 24 330 15 b 115 61 209 15 155 31 b 15 194 74 92 41 136 b 2 276 2 224 -2 251 b 30 329 6 301 16 319 b 83 331 44 339 62 340 b 143 258 103 321 124 297 b 166 219 150 245 157 232 b 197 185 175 206 185 195 b 239 160 209 175 223 166 b 292 151 255 154 272 151 b 353 163 314 151 334 155 b 401 196 371 171 387 182 b 431 243 414 210 424 225 b 442 299 438 261 442 279 b 408 383 442 335 431 363 b 327 428 386 404 359 419 b 226 447 295 438 261 444 b 133 450 190 449 159 450 b 83 467 112 450 95 456 b 58 511 71 478 63 493 b 50 581 52 531 49 555 b 56 662 51 608 53 634 b 68 740 59 689 63 715 b 78 803 73 765 76 786 b 101 831 80 815 87 824 b 146 840 114 837 129 840 b 265 844 184 840 224 842 b 386 854 307 847 347 850 b 475 840 423 857 453 852 b 513 794 497 827 510 812 b 490 738 515 776 508 757 b 399 696 472 719 441 705 b 304 685 368 688 337 685 b 207 686 272 685 239 685 b 203 604 202 658 201 631 "},"6":{"ha":583,"x_min":0,"x_max":0,"o":"m 185 410 b 264 463 208 430 234 448 b 368 485 294 477 328 485 b 448 472 397 485 423 480 b 512 432 472 463 494 450 b 554 366 530 414 544 392 b 569 274 564 340 569 309 b 552 169 569 238 564 203 b 499 82 541 136 523 107 b 412 22 476 57 447 37 b 290 0 377 7 337 0 b 171 25 242 0 202 8 b 96 92 139 42 114 64 b 55 193 77 121 64 154 b 38 318 46 232 40 274 b 46 529 33 396 36 466 b 97 690 56 592 73 646 b 184 795 120 735 149 770 b 301 839 219 821 258 835 b 356 837 319 840 337 839 b 411 824 375 834 394 830 b 460 797 429 817 445 808 b 499 757 476 786 488 773 b 528 691 515 732 525 710 b 523 644 531 672 529 656 b 496 618 517 632 508 624 b 458 612 484 613 471 610 b 419 626 444 613 431 618 b 392 663 407 635 398 647 b 361 699 384 679 374 691 b 326 710 348 706 337 710 b 278 684 310 710 294 701 b 235 616 262 667 248 644 b 202 519 222 588 211 556 b 185 410 193 483 188 447 m 193 260 b 233 170 200 225 214 195 b 315 133 253 146 280 133 b 399 168 350 133 378 145 b 429 247 419 191 429 218 b 426 283 429 256 428 269 b 413 326 423 298 419 312 b 390 360 407 339 399 351 b 354 375 380 370 368 375 b 316 365 343 375 330 372 b 272 340 302 359 287 350 b 229 303 257 329 243 317 b 193 260 215 289 203 275 "},"7":{"ha":482,"x_min":0,"x_max":0,"o":"m 304 696 b 263 688 293 694 279 691 b 212 676 246 684 229 680 b 161 665 195 672 178 668 b 118 661 144 663 130 661 b 22 687 72 661 40 670 b 1 743 5 704 -2 723 b 39 797 5 763 18 781 b 117 814 60 812 86 818 b 200 813 148 810 176 810 b 267 824 224 815 247 819 b 330 839 288 829 309 834 b 400 846 351 844 374 846 b 433 839 411 846 422 844 b 461 819 443 834 453 828 b 479 791 469 811 475 802 b 479 758 483 780 483 769 b 419 599 462 703 442 650 b 351 447 397 549 375 498 b 283 288 328 396 306 343 b 224 107 261 233 241 173 b 173 10 211 58 194 25 b 114 -5 152 -6 132 -11 b 69 36 95 1 81 15 b 63 108 58 57 56 81 b 104 238 71 144 85 187 b 169 398 124 290 145 343 b 242 560 194 453 218 507 b 304 696 266 613 287 658 "},"8":{"ha":629,"x_min":0,"x_max":0,"o":"m 504 646 b 472 553 504 609 494 578 b 396 485 451 528 425 505 b 467 440 420 471 444 456 b 531 388 491 425 512 407 b 579 323 550 368 566 347 b 601 243 592 299 600 273 b 580 137 604 202 597 167 b 510 62 563 107 540 82 b 412 17 481 42 448 27 b 303 1 375 6 339 1 b 198 16 268 1 233 6 b 104 60 163 26 132 40 b 38 134 76 79 54 104 b 14 240 21 164 13 200 b 31 319 15 269 20 295 b 69 385 41 344 54 366 b 123 440 85 405 103 424 b 185 486 143 457 163 472 b 116 557 158 507 135 531 b 85 651 97 583 87 614 b 105 736 83 686 90 714 b 162 789 120 758 139 776 b 234 815 184 802 209 811 b 303 822 259 820 282 822 b 395 806 339 822 370 817 b 458 765 421 796 441 782 b 493 708 474 747 486 728 b 504 646 500 687 504 666 m 288 550 b 352 602 313 568 335 585 b 378 660 369 619 378 638 b 363 699 378 675 373 688 b 319 714 352 709 338 714 b 290 711 311 714 301 713 b 259 700 279 709 269 706 b 235 678 249 694 241 687 b 225 642 228 669 225 656 b 243 593 226 624 232 608 b 288 550 254 578 269 564 m 290 418 b 211 351 259 398 232 375 b 182 263 190 327 180 298 b 226 165 184 224 198 191 b 325 124 253 138 286 125 b 375 133 344 124 360 127 b 413 158 390 139 402 147 b 437 196 423 169 431 182 b 446 240 443 210 446 225 b 435 296 447 261 443 279 b 400 342 426 313 415 328 b 349 381 385 356 368 369 b 290 418 330 394 311 406 "},"9":{"ha":643,"x_min":0,"x_max":0,"o":"m 435 69 b 432 240 433 121 432 178 b 431 425 432 301 431 363 b 331 358 398 393 365 370 b 236 339 297 345 266 339 b 143 359 203 339 172 346 b 68 415 114 372 89 391 b 18 500 47 439 30 468 b 0 607 6 532 0 568 b 20 714 0 649 7 684 b 72 788 34 744 51 768 b 144 830 94 807 117 821 b 221 843 170 839 196 843 b 331 817 261 843 297 834 b 421 761 365 800 395 781 b 445 823 421 786 429 807 b 500 850 461 839 480 848 b 556 829 520 852 539 845 b 583 746 573 813 582 786 b 587 579 584 688 585 633 b 590 418 588 525 589 472 b 592 256 591 364 592 310 b 593 89 593 202 593 146 b 569 31 593 69 585 49 b 515 -6 553 13 535 1 b 461 0 496 -12 478 -10 b 435 69 444 10 436 33 m 429 583 b 369 658 413 611 394 636 b 275 690 345 679 314 690 b 226 683 258 690 242 688 b 183 662 209 679 195 672 b 153 626 170 652 160 640 b 142 575 145 611 142 594 b 172 508 142 542 152 519 b 235 492 191 497 213 492 b 281 496 249 492 264 493 b 332 508 297 499 314 503 b 384 527 350 514 367 520 b 429 550 401 534 416 542 l 429 583 "},"\u000b":{"ha":732,"x_min":0,"x_max":0,"o":"m 663 0 l 69 0 l 69 972 l 663 972 m 624 944 l 108 944 l 365 515 m 635 906 l 383 486 l 635 65 m 99 68 l 349 486 l 99 903 m 624 29 l 367 457 l 110 29 "},"\f":{"ha":732,"x_min":0,"x_max":0,"o":"m 663 972 l 69 972 l 69 0 l 663 0 m 365 515 l 108 944 l 624 944 m 635 65 l 383 486 l 635 906 m 99 903 l 349 486 l 99 68 m 110 29 l 367 457 l 624 29 "},"¢":{"ha":732,"x_min":0,"x_max":0,"o":"m 663 0 l 69 0 l 69 972 l 663 972 m 624 944 l 108 944 l 365 515 m 635 906 l 383 486 l 635 65 m 99 68 l 349 486 l 99 903 m 624 29 l 367 457 l 110 29 "},"©":{"ha":732,"x_min":0,"x_max":0,"o":"m 663 972 l 69 972 l 69 0 l 663 0 m 365 515 l 108 944 l 624 944 m 635 65 l 383 486 l 635 906 m 99 903 l 349 486 l 99 68 m 110 29 l 367 457 l 624 29 "},"ª":{"ha":732,"x_min":0,"x_max":0,"o":"m 663 0 l 69 0 l 69 972 l 663 972 m 624 944 l 108 944 l 365 515 m 635 906 l 383 486 l 635 65 m 99 68 l 349 486 l 99 903 m 624 29 l 367 457 l 110 29 "},"¬":{"ha":732,"x_min":0,"x_max":0,"o":"m 663 972 l 69 972 l 69 0 l 663 0 m 365 515 l 108 944 l 624 944 m 635 65 l 383 486 l 635 906 m 99 903 l 349 486 l 99 68 m 110 29 l 367 457 l 624 29 "},"®":{"ha":732,"x_min":0,"x_max":0,"o":"m 663 0 l 69 0 l 69 972 l 663 972 m 624 944 l 108 944 l 365 515 m 635 906 l 383 486 l 635 65 m 99 68 l 349 486 l 99 903 m 624 29 l 367 457 l 110 29 "},"µ":{"ha":732,"x_min":0,"x_max":0,"o":"m 663 972 l 69 972 l 69 0 l 663 0 m 365 515 l 108 944 l 624 944 m 635 65 l 383 486 l 635 906 m 99 903 l 349 486 l 99 68 m 110 29 l 367 457 l 624 29 "},"¶":{"ha":732,"x_min":0,"x_max":0,"o":"m 663 0 l 69 0 l 69 972 l 663 972 m 624 944 l 108 944 l 365 515 m 635 906 l 383 486 l 635 65 m 99 68 l 349 486 l 99 903 m 624 29 l 367 457 l 110 29 "},"¹":{"ha":732,"x_min":0,"x_max":0,"o":"m 663 972 l 69 972 l 69 0 l 663 0 m 365 515 l 108 944 l 624 944 m 635 65 l 383 486 l 635 906 m 99 903 l 349 486 l 99 68 m 110 29 l 367 457 l 624 29 "},"º":{"ha":732,"x_min":0,"x_max":0,"o":"m 663 0 l 69 0 l 69 972 l 663 972 m 624 944 l 108 944 l 365 515 m 635 906 l 383 486 l 635 65 m 99 68 l 349 486 l 99 903 m 624 29 l 367 457 l 110 29 "},"―":{"ha":732,"x_min":0,"x_max":0,"o":"m 663 972 l 69 972 l 69 0 l 663 0 m 365 515 l 108 944 l 624 944 m 635 65 l 383 486 l 635 906 m 99 903 l 349 486 l 99 68 m 110 29 l 367 457 l 624 29 "},"‖":{"ha":732,"x_min":0,"x_max":0,"o":"m 663 0 l 69 0 l 69 972 l 663 972 m 624 944 l 108 944 l 365 515 m 635 906 l 383 486 l 635 65 m 99 68 l 349 486 l 99 903 m 624 29 l 367 457 l 110 29 "},"‗":{"ha":732,"x_min":0,"x_max":0,"o":"m 663 972 l 69 972 l 69 0 l 663 0 m 365 515 l 108 944 l 624 944 m 635 65 l 383 486 l 635 906 m 99 903 l 349 486 l 99 68 m 110 29 l 367 457 l 624 29 "},"‛":{"ha":732,"x_min":0,"x_max":0,"o":"m 663 0 l 69 0 l 69 972 l 663 972 m 624 944 l 108 944 l 365 515 m 635 906 l 383 486 l 635 65 m 99 68 l 349 486 l 99 903 m 624 29 l 367 457 l 110 29 "},"\u0000":{"ha":0,"x_min":0,"x_max":0,"o":""},"\n":{"ha":0,"x_min":0,"x_max":0,"o":""},"\r":{"ha":0,"x_min":0,"x_max":0,"o":""}," ":{"ha":321,"x_min":0,"x_max":0,"o":""},"!":{"ha":272,"x_min":0,"x_max":0,"o":"m 199 247 b 190 199 202 230 199 214 b 155 170 180 185 168 175 b 115 174 141 165 128 166 b 90 226 102 182 94 200 b 83 328 87 251 84 285 b 82 467 82 370 82 417 b 83 624 82 518 82 570 b 85 775 84 677 85 728 b 106 826 85 800 92 817 b 150 835 119 834 134 838 b 192 811 166 832 180 824 b 210 765 205 798 211 783 b 198 608 205 713 201 661 b 192 458 195 554 193 504 b 192 332 191 411 191 369 b 199 247 193 295 195 267 m 210 63 b 191 15 209 41 203 25 b 150 0 179 5 166 0 b 101 19 131 0 114 6 b 85 69 87 32 82 49 b 107 110 87 87 94 100 b 153 124 120 119 135 124 b 196 108 171 124 186 118 b 210 63 206 97 211 82 "},"\"":{"ha":315,"x_min":0,"x_max":0,"o":"m 51 849 b 71 879 52 863 59 874 b 110 887 83 885 96 887 b 147 876 124 886 136 883 b 161 854 157 870 162 863 b 156 812 159 845 157 831 b 150 750 154 793 152 772 b 147 685 148 728 147 706 b 147 633 146 665 146 647 b 133 601 148 619 143 609 b 97 588 122 593 110 589 b 60 599 84 588 72 591 b 42 633 49 606 43 618 b 40 679 41 649 40 664 b 42 726 40 694 41 710 b 47 781 44 743 45 761 b 51 849 48 801 50 824 m 294 615 b 275 585 294 600 287 590 b 236 577 263 579 250 577 b 199 588 222 578 210 581 b 186 610 189 594 184 601 b 191 652 187 619 189 633 b 197 714 193 671 195 692 b 200 778 198 736 199 758 b 200 831 201 799 201 817 b 215 863 199 844 204 855 b 250 876 225 871 237 875 b 287 865 263 876 275 873 b 306 831 298 858 305 846 b 304 738 307 800 307 769 b 294 615 301 706 298 665 "},"#":{"ha":706,"x_min":0,"x_max":0,"o":"m 322 738 b 314 644 320 711 318 680 b 371 642 332 644 351 643 b 428 638 390 641 409 639 b 435 696 430 657 432 676 b 446 753 438 715 441 734 b 471 797 450 774 458 789 b 510 805 484 804 497 807 b 545 785 524 803 535 796 b 556 743 555 774 558 760 b 549 692 554 728 552 711 b 543 629 547 672 545 651 b 583 625 560 627 573 626 b 622 606 598 623 611 617 b 640 570 632 594 638 583 b 629 536 642 558 638 546 b 579 521 620 526 603 521 l 533 521 b 531 462 532 501 531 482 b 528 403 530 442 529 422 b 555 404 537 404 546 404 b 583 406 564 404 573 405 b 632 390 606 406 623 401 b 642 353 641 379 644 367 b 616 315 639 339 630 326 b 558 300 602 303 582 298 l 543 300 b 528 301 538 300 532 300 b 529 261 528 287 528 273 b 533 229 530 249 531 238 b 521 190 536 214 532 201 b 483 166 510 178 497 170 b 444 169 469 162 456 163 b 424 207 431 175 425 188 l 419 303 l 289 303 b 285 246 286 281 285 263 b 264 185 283 218 276 198 b 226 166 252 173 239 166 b 190 181 212 166 200 170 b 175 224 179 191 174 205 b 178 260 176 234 177 246 b 182 308 179 274 180 290 b 104 317 155 309 129 312 b 58 340 80 320 65 328 b 54 378 51 352 50 365 b 82 412 59 391 68 402 b 131 424 96 422 112 425 b 190 415 151 423 171 420 b 195 478 192 437 194 458 b 200 540 197 499 198 520 b 165 547 187 542 175 544 b 136 553 154 549 144 551 b 99 576 119 556 106 564 b 88 613 91 588 88 601 b 99 645 88 626 91 636 b 131 657 107 654 118 658 b 164 653 140 655 151 654 b 208 651 177 653 192 652 b 213 753 211 691 213 725 b 231 805 213 778 219 795 b 269 815 243 815 256 818 b 307 791 283 813 296 804 b 322 738 318 778 323 760 m 297 410 b 358 406 318 408 338 407 b 418 404 378 406 398 405 l 418 465 b 419 525 418 484 419 505 b 363 527 401 526 382 527 b 307 531 344 528 325 529 b 302 469 305 510 303 490 b 297 408 301 448 299 428 l 297 410 "},"$":{"ha":725,"x_min":0,"x_max":0,"o":"m 338 842 b 356 897 338 869 344 888 b 396 905 369 906 382 909 b 433 878 410 901 422 892 b 447 829 444 864 449 848 b 445 815 446 825 446 820 b 444 800 445 811 444 806 b 539 763 478 792 509 779 b 613 697 569 746 593 724 b 628 643 627 678 633 660 b 601 604 624 626 615 613 b 553 592 588 595 571 591 b 506 617 534 593 519 601 b 475 638 498 625 488 632 b 433 654 462 644 448 650 b 428 579 431 630 430 605 b 425 500 427 553 426 527 b 508 476 452 493 479 485 b 585 440 536 468 562 456 b 643 377 609 423 628 403 b 665 276 658 352 665 318 b 647 176 665 240 659 207 b 597 93 635 145 618 117 b 519 33 575 69 549 49 b 419 3 489 18 456 7 b 420 -10 419 -2 420 -6 b 421 -22 421 -13 421 -18 b 413 -88 424 -53 421 -75 b 381 -109 404 -102 394 -109 b 342 -94 368 -109 355 -104 b 315 -51 330 -83 321 -69 b 310 6 313 -45 312 -26 b 199 49 273 13 236 27 b 93 146 163 70 127 102 b 53 213 73 172 59 194 b 51 260 47 232 47 248 b 74 285 55 272 63 280 b 113 290 86 291 99 292 b 155 276 126 288 141 284 b 190 242 169 268 181 256 b 243 188 204 220 222 202 b 311 154 264 173 287 162 b 314 265 312 189 313 226 b 318 386 315 304 316 344 b 244 411 293 394 269 402 b 180 448 220 420 199 433 b 133 506 161 463 145 482 b 115 593 121 529 115 558 b 175 747 115 657 135 708 b 336 810 215 785 269 806 l 336 828 b 338 842 336 832 337 837 m 325 536 b 328 601 326 558 327 580 b 331 661 329 622 330 642 b 299 638 318 656 307 649 b 286 597 290 626 286 613 b 297 561 286 582 290 570 b 325 536 303 552 313 544 m 415 154 b 469 194 438 163 456 176 b 489 258 482 213 489 234 b 469 315 488 282 481 301 b 419 351 456 329 440 341 b 415 154 417 282 415 216 "},"%":{"ha":767,"x_min":0,"x_max":0,"o":"m 546 767 b 497 625 530 722 514 675 b 449 474 481 575 464 525 b 401 326 433 424 417 375 b 357 192 386 278 371 234 b 317 83 343 151 330 115 b 283 11 305 52 294 28 b 252 -10 275 -3 265 -10 b 217 -1 240 -11 228 -8 b 193 28 207 6 199 16 b 192 67 188 41 187 54 b 240 198 206 102 222 146 b 301 373 259 250 279 309 b 369 582 322 437 345 507 b 446 817 394 657 419 735 b 479 863 454 843 465 858 b 517 857 493 867 506 865 b 544 819 529 849 538 836 b 546 767 551 802 551 784 m 333 649 b 323 585 333 628 330 607 b 292 525 316 564 306 544 b 243 479 279 506 263 491 b 175 461 224 467 201 461 b 81 508 133 461 102 477 b 49 626 59 539 49 578 b 55 683 49 646 51 665 b 76 731 59 701 66 717 b 119 765 87 746 101 757 b 186 778 137 774 159 778 b 291 747 228 778 263 767 b 333 649 319 726 333 693 m 151 618 b 162 580 152 603 156 591 b 189 564 168 569 177 564 b 218 584 204 564 213 571 b 225 619 223 597 225 609 b 224 638 225 624 225 630 b 218 660 223 646 221 653 b 207 678 215 667 212 673 b 189 686 202 684 196 686 b 161 668 179 686 169 680 b 151 618 153 656 150 639 m 432 218 b 442 281 432 238 435 259 b 473 342 449 303 459 323 b 523 388 486 360 503 375 b 592 406 543 400 566 406 b 685 359 633 406 665 390 b 717 240 706 328 717 288 b 710 183 717 221 715 202 b 688 135 706 165 699 149 b 646 101 678 121 663 110 b 579 89 628 93 606 89 b 475 121 538 89 504 100 b 432 218 446 142 432 175 m 615 249 b 604 287 613 263 610 276 b 576 303 599 297 589 303 b 558 297 569 303 563 301 b 547 282 554 292 550 288 b 542 264 544 276 543 270 b 540 247 541 257 540 252 b 542 228 540 243 541 236 b 547 206 543 221 544 213 b 558 188 550 199 554 193 b 576 181 563 183 569 181 b 605 199 587 181 596 187 b 615 249 614 211 617 227 "},"&":{"ha":761,"x_min":0,"x_max":0,"o":"m 521 111 b 464 38 503 85 484 61 b 400 -24 444 14 422 -6 b 331 -67 378 -42 355 -57 b 256 -83 306 -78 281 -83 b 172 -62 226 -83 198 -76 b 104 -8 146 -49 124 -30 b 58 69 85 15 69 41 b 42 153 47 97 42 125 b 69 260 42 190 51 225 b 139 359 87 294 110 327 b 233 450 168 391 199 421 b 333 531 268 479 301 506 b 321 638 325 569 321 605 b 332 720 321 668 325 696 b 362 783 339 745 349 766 b 406 822 374 800 389 813 b 458 836 422 831 440 836 b 511 821 479 836 496 831 b 547 781 526 811 538 797 b 567 728 556 765 563 747 b 574 672 572 708 574 690 b 542 569 573 633 562 599 b 467 486 521 540 496 512 b 495 400 474 459 484 431 b 536 306 507 369 520 338 b 560 368 548 330 556 350 b 588 417 565 393 575 409 b 624 419 600 424 613 425 b 649 386 636 414 644 403 b 639 325 653 369 650 349 b 615 274 631 309 623 292 b 585 217 606 256 596 237 b 632 144 600 193 615 168 b 689 71 649 119 668 95 b 707 22 701 56 707 40 b 694 -23 707 3 703 -11 b 657 -38 685 -34 673 -40 b 603 0 641 -37 623 -24 b 521 111 573 37 546 74 m 442 618 b 477 655 456 631 468 643 b 490 686 486 666 490 677 b 488 699 490 688 489 692 b 474 710 486 706 481 710 b 451 692 465 710 458 704 b 442 639 445 680 442 662 l 442 618 m 267 68 b 316 78 282 68 299 72 b 367 107 333 85 350 95 b 418 149 384 119 401 133 b 465 200 435 164 450 181 b 410 307 444 236 425 272 b 368 411 394 342 380 377 b 303 360 346 394 324 377 b 247 304 281 342 263 324 b 208 240 230 285 217 263 b 193 164 198 217 193 192 b 195 138 193 157 194 149 b 204 106 197 128 200 117 b 226 79 209 96 216 87 b 267 68 237 72 250 68 "},"'":{"ha":171,"x_min":0,"x_max":0,"o":"m 51 849 b 71 879 52 863 59 874 b 110 887 83 885 96 887 b 147 876 124 886 136 883 b 161 854 157 870 162 863 b 156 812 159 845 157 831 b 150 750 154 793 152 772 b 147 685 148 728 147 706 b 147 633 146 665 146 647 b 133 601 148 619 143 609 b 97 588 122 593 110 589 b 60 599 84 588 72 591 b 42 633 49 606 43 618 b 40 679 41 649 40 664 b 42 726 40 694 41 710 b 47 781 44 743 45 761 b 51 849 48 801 50 824 "},"(":{"ha":381,"x_min":0,"x_max":0,"o":"m 297 -60 b 336 -100 317 -72 330 -85 b 338 -140 343 -115 343 -128 b 308 -165 333 -151 323 -159 b 250 -160 292 -170 273 -168 b 133 -65 201 -143 162 -112 b 72 97 105 -19 84 35 b 60 294 60 159 56 225 b 88 494 63 364 73 431 b 147 665 102 558 122 615 b 232 774 172 715 200 751 b 290 796 255 790 275 798 b 324 776 306 794 317 788 b 331 735 331 765 334 751 b 307 692 329 718 321 704 b 251 599 285 671 266 641 b 215 461 235 558 224 512 b 201 301 207 410 202 357 b 209 144 199 246 202 194 b 241 16 216 95 227 53 b 297 -60 255 -21 274 -46 "},")":{"ha":381,"x_min":0,"x_max":0,"o":"m 85 -60 b 141 16 108 -46 127 -21 b 173 144 155 53 166 95 b 181 301 180 194 183 246 b 167 461 180 357 175 410 b 131 599 158 512 146 558 b 75 692 115 641 96 671 b 51 735 61 704 53 718 b 58 776 48 751 51 765 b 92 796 65 788 76 794 b 150 774 107 798 127 790 b 235 665 181 751 210 715 b 294 494 260 615 280 558 b 322 294 309 431 319 364 b 310 97 326 225 322 159 b 249 -65 298 35 277 -19 b 132 -160 220 -112 181 -143 b 74 -165 109 -168 90 -170 b 44 -140 59 -159 49 -151 b 46 -100 39 -128 39 -115 b 85 -60 52 -85 65 -72 "},"*":{"ha":663,"x_min":0,"x_max":0,"o":"m 576 482 b 593 444 588 472 593 459 b 576 404 593 428 588 415 b 538 388 566 393 553 388 b 499 404 522 388 509 393 b 481 420 494 408 488 413 b 456 440 473 427 465 434 b 431 458 447 447 439 453 b 410 468 422 463 415 466 b 408 423 409 448 408 433 b 410 401 408 413 409 406 b 414 353 418 387 419 370 b 392 327 409 342 402 333 b 363 318 383 321 373 318 b 342 322 355 318 348 319 b 318 338 331 326 324 331 b 306 362 313 345 308 353 b 300 390 303 371 301 380 b 299 418 299 399 299 409 b 263 392 290 412 278 403 b 214 358 248 381 231 369 b 163 330 196 347 179 338 b 125 318 147 322 134 318 b 75 349 102 318 85 328 b 72 391 68 363 67 377 b 101 424 78 405 88 416 b 186 474 132 438 160 455 b 256 526 212 492 235 510 b 172 586 227 544 199 564 b 97 656 144 608 119 631 b 83 696 87 667 82 680 b 100 735 83 712 89 725 b 141 749 112 745 126 750 b 179 731 156 749 169 743 b 310 624 217 689 261 653 b 313 677 312 642 313 660 b 315 722 314 694 314 709 b 333 761 316 738 322 751 b 374 775 344 771 358 776 b 413 758 389 774 402 768 b 426 718 423 747 427 734 b 426 708 426 714 426 711 b 425 697 425 704 425 701 l 443 715 b 463 735 450 723 457 729 b 479 749 469 740 475 745 b 519 763 491 759 505 763 b 557 743 534 762 547 755 b 571 703 567 731 572 718 b 551 665 570 688 563 675 l 539 653 b 519 635 533 647 527 641 b 453 572 494 610 472 589 b 518 533 474 562 496 549 b 576 482 540 516 560 500 "},"+":{"ha":456,"x_min":0,"x_max":0,"o":"m 381 483 b 415 469 395 483 407 478 b 428 435 422 459 427 448 b 422 399 429 423 427 411 b 399 375 416 387 409 379 b 357 369 391 372 377 370 b 286 367 337 369 313 368 b 288 310 287 347 288 328 l 288 257 b 273 223 288 242 283 231 b 240 210 263 215 252 211 b 203 216 227 209 215 211 b 179 239 191 221 183 229 b 174 285 176 246 175 262 b 171 364 173 309 172 335 b 115 363 150 364 131 364 b 78 360 98 363 86 362 b 44 372 64 357 53 361 b 28 408 35 382 30 394 b 35 448 26 422 28 435 b 74 469 42 460 55 468 b 119 474 88 471 104 473 b 168 478 135 475 151 476 b 167 527 168 496 168 513 b 164 560 167 541 166 552 b 176 594 161 574 165 585 b 213 610 186 603 199 608 b 253 601 226 612 240 609 b 275 564 266 594 273 581 b 278 524 276 551 277 538 b 281 482 279 511 280 497 b 332 483 298 483 315 483 l 381 483 "},",":{"ha":153,"x_min":0,"x_max":0,"o":"m 19 64 b 68 121 21 102 38 121 b 122 95 89 121 107 112 b 144 33 137 78 144 57 b 141 1 144 25 143 14 b 129 -40 139 -12 135 -25 b 106 -85 124 -55 116 -70 b 69 -125 97 -100 84 -113 b 34 -142 56 -137 45 -143 b 11 -128 23 -141 16 -136 b 9 -98 6 -121 6 -110 b 35 -62 12 -85 21 -74 b 68 -11 57 -43 68 -26 b 57 3 68 -4 64 1 b 28 22 44 5 34 11 b 19 64 22 32 19 46 "},"-":{"ha":450,"x_min":0,"x_max":0,"o":"m 374 442 b 408 427 388 442 400 437 b 421 394 416 417 420 406 b 415 357 422 381 420 369 b 392 333 409 345 402 337 b 333 327 382 331 363 328 b 238 324 304 326 272 325 b 138 322 203 324 170 323 b 71 318 106 321 84 320 b 37 330 57 315 46 319 b 21 367 28 341 23 353 b 28 406 19 381 22 394 b 67 428 35 419 48 426 b 220 438 114 432 165 436 b 374 442 275 441 326 442 "},".":{"ha":142,"x_min":0,"x_max":0,"o":"m 8 61 b 26 108 8 82 14 98 b 68 124 37 119 51 124 b 117 105 87 124 103 117 b 133 54 131 92 136 75 b 111 14 131 37 124 23 b 65 0 98 5 83 0 b 8 61 25 0 6 20 "},"/":{"ha":400,"x_min":0,"x_max":0,"o":"m 375 767 b 326 625 359 722 343 675 b 278 474 310 575 294 525 b 231 326 262 424 246 375 b 186 192 215 278 200 234 b 147 83 172 151 159 115 b 113 11 134 52 123 28 b 81 -10 104 -3 94 -10 b 47 -1 69 -11 57 -8 b 22 28 36 6 28 16 b 21 67 17 41 16 54 b 69 198 35 102 51 146 b 130 373 88 250 108 309 b 199 582 152 437 175 507 b 275 817 223 657 248 735 b 308 863 283 843 294 858 b 347 857 322 867 335 865 b 374 819 358 849 367 836 b 375 767 380 802 381 784 "},":":{"ha":186,"x_min":0,"x_max":0,"o":"m 157 465 b 140 418 157 444 151 428 b 97 403 128 408 114 403 b 49 422 79 403 63 409 b 32 472 35 434 29 451 b 54 513 34 490 41 503 b 100 526 67 522 82 526 b 157 465 140 526 159 506 m 28 60 b 47 108 29 81 35 97 b 88 124 58 118 72 124 b 137 104 107 124 123 117 b 153 54 150 91 156 75 b 131 14 151 37 144 23 b 85 0 118 5 102 0 b 42 16 66 0 52 5 b 28 60 31 27 27 41 "},";":{"ha":197,"x_min":0,"x_max":0,"o":"m 168 465 b 151 418 168 444 162 428 b 108 403 139 408 125 403 b 60 422 90 403 74 409 b 43 472 46 434 40 451 b 65 513 45 490 52 503 b 111 526 78 522 94 526 b 168 465 151 526 170 506 m 40 64 b 89 121 42 102 58 121 b 143 95 110 121 128 112 b 165 33 158 78 165 57 b 162 1 165 25 164 14 b 150 -40 159 -12 156 -25 b 127 -85 144 -55 137 -70 b 90 -125 117 -100 105 -113 b 55 -142 77 -137 66 -143 b 32 -128 44 -141 37 -136 b 30 -98 27 -121 27 -110 b 56 -62 33 -85 42 -74 b 89 -11 78 -43 89 -26 b 78 3 89 -4 85 1 b 49 22 65 5 55 11 b 40 64 43 32 40 46 "},"<":{"ha":418,"x_min":0,"x_max":0,"o":"m 308 486 b 253 434 293 474 274 457 b 163 354 233 411 202 385 b 236 320 185 341 209 330 b 311 278 263 310 288 296 b 335 236 323 268 331 254 b 335 190 340 219 339 203 b 306 165 330 176 321 168 b 246 189 292 161 272 169 b 165 235 218 208 191 224 b 96 267 139 247 116 258 b 46 298 75 277 59 287 b 24 342 33 309 25 323 b 33 374 23 352 26 363 b 63 410 41 386 51 398 b 106 448 76 423 90 435 b 152 484 121 460 137 472 b 194 516 167 496 181 506 b 225 543 207 526 218 535 b 276 570 242 560 259 569 b 319 561 294 572 308 569 b 335 529 329 554 335 543 b 308 486 336 515 327 501 "},"=":{"ha":582,"x_min":0,"x_max":0,"o":"m 439 497 b 473 483 454 497 465 492 b 486 449 481 473 485 462 b 480 413 487 437 485 425 b 457 389 475 400 467 393 b 399 383 448 386 428 384 b 303 380 369 381 337 380 b 203 378 269 379 235 379 b 136 374 172 377 149 375 b 102 385 122 371 111 375 b 86 422 93 396 88 408 b 94 462 84 436 87 449 b 132 483 101 474 113 481 b 285 494 179 488 230 491 b 439 497 341 496 392 497 m 143 208 b 109 223 128 208 117 213 b 96 256 101 233 97 244 b 102 292 95 269 97 281 b 126 317 107 304 115 312 b 183 323 135 319 154 322 b 279 326 213 324 245 325 b 378 328 313 326 347 327 b 446 332 410 329 433 330 b 480 320 460 335 471 331 b 496 283 489 309 494 297 b 488 244 498 269 495 256 b 450 222 480 231 468 224 b 297 212 404 218 353 214 b 143 208 242 209 190 208 "},">":{"ha":419,"x_min":0,"x_max":0,"o":"m 111 246 b 166 298 127 258 145 275 b 257 379 187 321 217 348 b 183 412 235 391 210 402 b 108 456 156 422 131 436 b 85 496 97 465 89 478 b 85 542 80 513 80 529 b 115 567 91 556 100 564 b 175 543 129 571 149 563 b 254 497 202 524 228 508 b 324 465 280 485 303 474 b 374 434 344 455 361 445 b 396 392 387 423 394 409 b 373 340 397 376 389 359 b 315 285 357 322 337 303 b 246 232 292 266 269 249 b 194 190 223 215 206 201 b 143 163 178 174 161 164 b 101 171 125 161 111 163 b 84 203 90 178 84 189 b 111 246 84 217 93 231 "},"?":{"ha":471,"x_min":0,"x_max":0,"o":"m 426 629 b 398 508 425 588 415 547 b 341 399 381 469 362 433 b 281 306 320 366 300 334 b 247 231 262 277 251 252 b 220 172 242 203 233 183 b 183 159 208 161 195 157 b 150 182 170 161 159 169 b 136 231 141 195 136 211 b 161 345 136 265 144 303 b 217 469 178 387 196 429 b 272 585 237 510 256 549 b 297 676 289 622 297 652 b 290 707 297 687 295 697 b 256 722 284 717 273 722 b 210 706 239 722 224 717 b 174 667 196 696 184 682 b 150 616 163 651 156 634 b 142 567 144 598 142 581 b 124 496 142 537 136 513 b 83 467 112 478 98 469 b 42 489 69 466 55 473 b 19 568 29 505 21 531 b 35 661 18 599 23 630 b 87 746 48 693 65 721 b 163 808 109 771 134 791 b 254 832 191 824 222 832 b 321 818 277 832 300 827 b 377 778 342 809 361 795 b 415 714 393 760 406 739 b 426 629 423 689 427 661 m 119 61 b 137 108 119 82 125 98 b 179 124 148 119 163 124 b 228 105 198 124 214 117 b 244 54 242 92 247 75 b 222 14 243 37 235 23 b 176 0 209 5 194 0 b 119 61 137 0 118 20 "},"@":{"ha":701,"x_min":0,"x_max":0,"o":"m 404 650 b 532 628 454 650 497 643 b 619 568 567 613 596 593 b 670 481 643 543 659 514 b 686 378 681 448 686 414 b 671 266 686 341 681 303 b 630 164 661 228 647 194 b 569 90 613 133 593 109 b 497 61 546 71 522 61 b 454 74 481 61 466 65 b 425 104 442 82 432 92 b 406 142 418 116 411 129 b 394 179 401 156 397 168 b 348 147 381 164 366 154 b 289 138 330 141 310 138 b 199 170 251 138 221 148 b 167 274 178 192 167 226 b 176 345 167 299 170 322 b 203 405 183 368 192 388 b 245 446 215 422 229 436 b 299 461 261 456 279 461 b 360 438 323 461 343 453 b 406 378 378 422 393 402 b 421 435 406 405 411 424 b 447 453 431 447 440 453 b 487 437 463 453 476 447 b 503 399 497 426 503 413 b 495 321 503 375 500 349 b 488 238 490 293 488 265 b 486 219 488 233 487 227 b 486 198 485 212 485 205 b 491 179 487 191 489 185 b 506 171 493 174 498 171 b 533 185 515 171 524 176 b 556 224 541 195 549 208 b 573 280 563 241 569 259 b 579 344 577 301 579 322 b 570 415 579 369 576 392 b 538 478 564 438 553 459 b 477 522 523 496 503 511 b 381 539 452 533 419 539 b 279 524 344 539 311 534 b 197 478 248 513 220 498 b 141 401 173 457 154 432 b 121 296 128 371 121 336 b 146 178 121 251 129 212 b 214 90 163 144 185 114 b 314 32 243 66 276 47 b 433 4 352 17 392 8 b 479 -16 451 2 466 -4 b 502 -53 492 -28 500 -40 b 489 -89 504 -66 500 -78 b 429 -106 478 -100 458 -106 b 271 -81 374 -106 321 -98 b 139 -4 221 -63 177 -37 b 49 117 101 29 71 69 b 15 274 26 164 15 216 b 44 422 15 326 25 376 b 125 541 64 467 91 507 b 248 621 159 575 200 601 b 404 650 296 640 348 650 m 376 250 b 377 275 376 258 377 267 b 379 300 378 283 378 292 b 358 339 376 318 369 331 b 317 351 346 347 332 351 b 265 300 282 351 265 334 b 285 256 265 279 272 264 b 331 244 298 248 313 244 b 354 246 339 244 347 245 b 376 250 362 247 369 248 "},"A":{"ha":714,"x_min":0,"x_max":0,"o":"m 199 67 b 185 31 199 54 194 42 b 150 5 175 21 164 12 b 106 -8 136 -2 121 -6 b 63 -3 90 -10 76 -9 b 34 25 51 2 41 11 b 29 82 27 39 25 58 b 50 206 34 113 41 154 b 85 372 59 257 71 313 b 135 552 99 431 115 491 b 201 717 154 613 176 668 b 283 837 225 766 253 806 b 385 883 314 868 348 883 b 488 838 424 883 458 868 b 563 721 517 808 542 769 b 616 560 584 673 602 619 b 651 385 630 502 642 443 b 673 224 661 328 668 274 b 686 107 678 175 682 136 b 679 53 688 88 686 70 b 653 14 673 37 664 24 b 615 -7 642 4 629 -3 b 576 -3 601 -11 588 -9 b 542 31 563 3 552 14 b 524 100 533 47 526 70 b 514 184 522 122 519 150 b 496 294 509 218 503 255 b 391 293 463 293 428 292 b 290 294 354 294 321 294 l 263 294 b 229 296 251 294 240 295 b 207 160 220 247 213 202 b 199 67 201 119 199 88 m 254 422 b 313 419 273 421 292 420 b 361 418 333 419 349 418 b 411 419 374 418 391 419 b 474 424 431 420 452 422 b 450 537 466 463 458 500 b 426 634 442 573 434 606 b 404 701 419 662 412 685 b 385 726 397 718 390 726 b 351 701 374 726 362 718 b 317 634 339 685 328 662 b 284 537 306 606 295 573 b 254 422 273 500 263 462 "},"B":{"ha":750,"x_min":0,"x_max":0,"o":"m 167 -1 b 104 6 145 -5 125 -3 b 67 47 84 15 71 29 b 50 350 52 119 46 220 b 78 813 54 480 63 634 b 89 846 79 827 82 838 b 113 863 95 853 103 859 b 146 869 123 866 134 868 b 181 869 158 869 169 869 b 285 876 213 870 248 873 b 394 882 322 880 358 882 b 499 876 431 882 466 880 b 588 848 533 872 563 862 b 649 786 614 834 634 813 b 672 682 665 759 672 725 b 642 557 672 635 662 593 b 547 474 621 521 590 493 b 621 442 573 465 598 455 b 681 396 644 430 664 414 b 722 332 698 377 712 356 b 736 249 731 308 736 280 b 694 118 736 196 722 152 b 575 38 666 84 626 57 b 394 1 524 19 464 7 b 167 -1 325 -5 249 -6 m 235 538 b 310 544 254 537 279 539 b 399 570 340 550 370 559 b 472 614 427 582 452 596 b 503 676 493 631 503 652 b 480 724 503 697 495 713 b 419 748 465 735 444 743 b 332 756 393 753 364 756 b 232 753 300 757 266 756 l 232 692 b 233 640 232 674 232 657 b 235 590 234 624 235 607 l 235 538 m 228 129 b 333 129 258 128 293 128 b 444 143 372 130 409 135 b 531 183 478 151 508 165 b 567 260 555 201 567 226 b 549 320 567 283 561 303 b 501 363 537 337 521 352 b 436 392 482 375 460 384 b 363 409 412 399 388 405 b 291 418 338 413 314 416 b 232 422 268 420 249 421 l 229 281 b 228 129 228 233 228 183 "},"C":{"ha":625,"x_min":0,"x_max":0,"o":"m 338 0 b 192 32 280 0 231 11 b 96 126 152 53 120 84 b 45 276 72 167 55 217 b 35 478 35 336 32 403 b 58 660 38 551 45 612 b 113 776 71 708 90 747 b 201 838 137 805 166 825 b 322 856 235 850 276 856 b 502 813 399 856 459 841 b 596 689 545 785 576 744 b 604 629 604 665 607 645 b 585 592 601 613 595 601 b 550 575 576 584 564 578 b 509 575 536 572 522 572 b 474 590 496 578 484 583 b 454 618 463 598 457 607 b 415 710 442 663 429 694 b 363 733 400 725 383 733 b 292 702 337 733 313 723 b 239 623 272 681 254 655 b 206 517 224 591 213 556 b 194 404 198 478 194 440 b 202 318 194 378 197 350 b 227 229 207 287 216 257 b 275 160 239 201 255 178 b 351 132 295 141 321 132 b 405 143 370 132 388 136 b 451 171 422 150 437 160 b 485 208 464 182 475 194 b 503 249 494 222 500 236 b 517 272 505 257 509 265 b 544 288 525 278 534 284 b 574 294 553 292 564 294 b 601 284 585 293 594 290 b 617 256 609 278 614 269 b 613 203 619 243 618 225 b 524 58 598 144 568 96 b 338 0 480 20 418 1 "},"D":{"ha":761,"x_min":0,"x_max":0,"o":"m 157 4 b 128 8 147 5 137 6 b 101 15 119 9 110 12 b 80 31 93 19 86 24 b 67 57 74 37 69 46 b 56 177 60 85 57 125 b 59 357 56 229 57 289 b 65 575 61 425 63 497 b 65 811 67 653 67 731 b 74 847 65 826 68 838 b 97 869 79 856 87 864 b 130 881 106 875 117 879 b 167 883 142 884 155 884 b 408 828 258 879 339 860 b 583 706 478 795 536 755 b 690 544 631 658 666 603 b 726 367 714 484 726 425 b 691 205 726 308 715 254 b 585 80 667 155 632 114 b 407 8 538 46 478 22 b 157 4 336 -7 252 -8 m 226 125 b 366 142 278 121 325 127 b 470 207 407 158 442 179 b 535 303 498 235 520 267 b 558 417 551 340 558 378 b 539 519 558 451 552 485 b 480 611 526 553 506 583 b 378 682 453 639 419 663 b 231 721 336 701 287 714 b 233 568 233 666 234 615 b 229 428 232 521 231 474 b 225 286 227 383 226 335 b 226 125 224 237 225 183 "},"E":{"ha":586,"x_min":0,"x_max":0,"o":"m 236 701 b 224 603 232 674 228 641 b 210 478 219 566 214 524 b 324 485 244 480 282 482 b 433 499 366 489 403 493 b 491 492 457 502 477 500 b 520 459 505 483 515 472 b 521 419 525 446 525 432 b 493 389 516 405 507 395 b 422 367 473 380 449 372 b 341 357 395 362 368 359 b 264 353 314 355 288 354 b 204 351 240 353 220 352 b 203 258 202 322 202 291 b 207 158 204 226 205 193 b 273 153 226 156 248 154 b 347 153 297 152 322 152 b 422 156 372 154 397 155 b 488 160 446 156 468 158 b 560 144 518 162 542 156 b 595 101 577 132 589 118 b 596 53 601 85 601 69 b 565 21 590 37 580 26 b 483 8 546 14 519 10 b 375 3 448 5 412 4 b 272 4 338 3 304 3 b 207 6 241 5 219 6 b 148 12 186 6 166 8 b 101 34 130 16 114 23 b 68 78 87 45 76 59 b 53 149 60 96 55 120 b 49 311 50 197 49 251 b 52 489 49 371 50 431 b 59 651 54 547 57 601 b 65 768 61 701 63 740 b 82 810 66 785 72 799 b 119 837 92 821 105 830 b 168 851 134 844 150 849 b 218 856 186 854 202 856 b 358 853 263 856 309 855 b 499 858 407 851 454 853 b 557 842 525 861 545 856 b 574 794 569 829 575 813 b 554 739 573 775 566 756 b 504 707 542 721 525 711 b 444 700 488 704 468 702 b 373 697 421 698 397 697 b 300 697 348 696 324 696 b 236 701 276 698 255 700 "},"F":{"ha":558,"x_min":0,"x_max":0,"o":"m 221 725 b 216 613 218 693 216 655 b 215 478 216 570 215 525 b 284 481 236 479 259 480 b 360 485 309 481 335 483 b 435 492 386 487 411 489 b 496 500 459 494 479 497 b 547 487 519 504 536 499 b 567 442 558 474 565 459 b 560 390 569 424 566 407 b 535 361 554 374 546 364 b 473 352 519 357 498 354 b 390 347 447 350 420 348 b 301 343 361 345 331 344 b 222 342 272 342 245 342 b 230 181 225 285 228 232 b 235 54 232 131 234 88 b 213 13 236 37 228 23 b 161 -5 198 2 181 -3 b 106 6 142 -6 123 -3 b 71 51 88 15 76 30 b 56 186 63 85 58 130 b 56 369 55 243 55 304 b 62 572 58 435 59 503 b 64 765 64 642 65 706 b 80 822 64 790 69 809 b 122 849 91 834 104 843 b 179 858 139 854 158 857 b 243 858 200 858 222 858 b 387 859 291 858 339 859 b 531 861 434 859 482 860 b 567 842 545 861 558 855 b 585 801 577 830 583 816 b 576 758 587 785 584 771 b 538 736 569 744 556 737 b 467 735 517 735 494 735 b 383 734 440 735 412 734 b 298 731 355 734 326 733 b 221 725 270 730 244 728 "},"G":{"ha":654,"x_min":0,"x_max":0,"o":"m 475 367 b 450 362 469 365 461 363 b 415 358 439 360 427 359 b 379 355 402 356 390 355 b 354 356 368 354 360 355 b 303 383 333 358 316 368 b 285 434 291 399 285 416 b 307 483 285 452 292 469 b 379 507 322 498 346 506 b 465 507 409 509 438 509 b 543 504 493 505 519 504 b 594 492 566 504 583 500 b 615 460 604 483 612 473 b 619 416 619 447 620 432 b 618 367 619 400 618 383 b 607 238 618 324 614 281 b 567 122 600 195 586 156 b 488 38 547 88 521 60 b 361 6 454 16 412 6 b 209 49 301 6 250 20 b 109 161 168 78 134 116 b 53 313 84 206 65 257 b 35 479 41 369 35 425 b 118 761 34 603 62 697 b 371 857 175 825 259 857 b 534 824 436 857 490 846 b 632 722 578 801 611 768 b 631 660 642 701 642 680 b 587 613 621 639 606 624 b 526 600 568 601 548 597 b 478 642 505 603 489 617 b 465 667 473 651 469 659 b 450 688 462 675 456 682 b 426 702 444 694 435 699 b 388 707 416 705 403 707 b 294 682 350 707 319 699 b 236 619 270 665 251 644 b 206 540 221 594 211 568 b 197 464 200 511 197 486 b 207 369 197 439 200 407 b 237 260 213 331 223 295 b 288 169 250 225 267 194 b 364 131 309 143 334 131 b 424 158 389 131 409 140 b 457 224 438 177 450 199 b 471 302 464 250 469 276 b 475 367 473 328 474 350 "},"H":{"ha":686,"x_min":0,"x_max":0,"o":"m 222 782 b 207 626 214 729 209 677 b 207 474 205 575 205 525 b 269 476 226 475 247 475 b 335 477 291 476 313 477 b 400 479 357 478 379 478 b 458 483 421 480 441 481 b 463 656 459 542 461 599 b 472 811 466 712 469 764 b 503 860 474 834 484 851 b 561 872 521 870 541 874 b 615 849 581 869 599 862 b 633 796 630 836 636 818 b 615 581 622 715 616 644 b 619 403 614 518 616 458 b 631 240 622 347 626 293 b 638 69 635 188 638 131 b 615 20 638 50 630 34 b 563 -3 599 7 582 -1 b 509 10 544 -6 526 -1 b 476 72 492 22 481 43 b 464 199 471 107 467 150 b 458 360 461 249 459 302 b 338 352 423 357 383 354 b 214 346 292 350 251 348 b 222 208 217 300 219 254 b 226 69 225 163 226 117 b 203 16 226 48 219 30 b 149 -12 187 2 169 -8 b 93 -9 129 -16 111 -15 b 61 29 75 -3 65 10 b 51 154 56 59 52 100 b 50 338 49 208 49 269 b 55 563 51 407 53 482 b 63 810 57 643 60 725 b 76 834 63 819 67 827 b 108 850 84 841 95 846 b 149 855 120 854 134 855 b 188 847 163 854 177 852 b 216 823 200 841 209 834 b 222 782 223 812 225 799 "},"I":{"ha":529,"x_min":0,"x_max":0,"o":"m 57 168 b 115 171 71 168 90 169 b 185 171 139 173 163 173 b 179 306 182 216 180 261 b 178 440 178 350 178 395 b 179 578 178 487 178 533 b 186 715 180 624 182 670 b 153 717 176 715 165 716 b 117 723 141 719 129 721 b 83 729 105 725 94 727 b 58 733 73 731 65 732 b 14 758 37 736 22 744 b 6 803 6 772 3 787 b 31 846 8 819 17 833 b 88 867 44 859 63 866 b 167 868 109 868 135 868 l 267 868 b 367 869 302 868 335 869 b 447 875 399 870 426 872 b 499 863 468 878 485 874 b 527 823 514 851 523 838 b 521 776 531 808 529 792 b 472 742 513 759 496 748 b 449 735 467 740 459 738 b 415 728 438 733 427 731 b 380 722 403 726 391 724 b 350 719 368 720 358 719 b 342 581 345 673 343 627 b 340 443 341 535 340 489 b 342 308 340 398 341 353 b 347 172 343 263 344 218 b 413 169 369 174 391 173 b 478 164 436 166 457 164 b 528 142 498 164 515 157 b 554 95 542 128 550 112 b 551 47 558 78 557 62 b 514 21 545 31 532 23 b 406 15 482 18 447 16 b 283 14 366 14 325 14 b 161 13 242 14 201 14 b 54 8 121 13 86 11 b -13 28 21 6 -2 12 b -26 84 -25 45 -29 63 b 2 142 -22 105 -13 124 b 57 168 17 159 36 168 "},"J":{"ha":557,"x_min":0,"x_max":0,"o":"m 479 721 b 496 531 484 655 489 592 b 509 360 502 471 507 414 b 506 215 511 307 510 259 b 474 103 501 172 490 134 b 401 31 457 72 433 48 b 274 6 369 14 326 6 b 188 19 245 6 216 10 b 109 59 160 29 134 42 b 46 120 84 76 63 97 b 7 199 28 144 15 170 b 3 272 0 224 -2 248 b 31 329 9 296 18 315 b 78 349 44 343 59 350 b 136 311 97 348 117 335 b 167 264 147 297 158 281 b 198 214 177 246 187 230 b 232 174 209 198 220 185 b 274 158 244 164 258 158 b 351 207 313 158 339 175 b 364 335 362 239 367 282 b 344 514 361 388 354 447 b 319 715 333 581 325 648 b 283 717 307 716 295 717 b 243 719 271 717 258 718 b 178 749 211 722 189 732 b 167 803 167 766 163 784 b 195 853 170 822 180 839 b 251 872 210 868 229 874 b 388 857 301 867 347 862 b 514 858 428 852 470 853 b 575 842 540 861 560 856 b 597 794 590 828 597 812 b 572 744 597 776 589 759 b 490 721 554 728 527 721 l 479 721 "},"K":{"ha":617,"x_min":0,"x_max":0,"o":"m 218 782 b 207 658 213 746 209 705 b 204 514 205 612 204 564 b 270 590 224 535 246 561 b 342 679 295 620 319 650 b 406 763 366 709 387 737 b 444 826 424 790 437 811 b 480 851 451 838 463 847 b 531 853 497 856 514 857 b 573 832 547 850 561 843 b 582 786 584 821 588 806 b 524 670 571 746 552 708 b 435 566 497 633 467 598 b 340 479 402 534 371 505 b 265 415 309 453 284 432 b 348 358 291 399 319 380 b 436 294 377 337 406 316 b 525 230 466 272 495 251 b 610 176 555 209 583 191 b 642 134 626 167 637 153 b 638 80 646 115 645 97 b 600 41 631 63 619 50 b 526 43 581 32 557 33 b 434 90 493 55 462 71 b 354 151 406 109 379 129 b 282 217 329 172 305 195 b 210 281 259 240 235 261 b 212 185 211 247 211 216 b 213 103 212 155 213 128 b 189 31 213 70 205 46 b 137 3 173 15 156 6 b 85 10 118 0 100 3 b 60 43 69 18 61 29 b 58 134 59 63 58 94 b 57 269 57 174 57 219 b 58 427 57 319 57 372 b 58 585 58 482 58 535 l 58 719 l 58 810 b 84 854 57 830 66 845 b 143 865 102 863 122 867 b 199 840 164 862 183 854 b 218 782 216 826 222 807 "},"L":{"ha":554,"x_min":0,"x_max":0,"o":"m 225 147 b 287 146 239 146 259 146 b 372 147 314 146 342 146 b 453 149 401 147 428 148 b 507 153 478 150 496 151 b 564 143 530 156 549 152 b 592 108 579 134 588 122 b 588 64 597 93 595 79 b 549 29 581 49 568 38 b 496 15 535 24 517 19 b 426 6 475 12 451 9 b 350 2 401 4 376 3 b 276 1 324 2 300 1 l 215 1 l 174 1 b 115 9 150 1 130 4 b 79 34 100 14 88 22 b 59 77 70 46 63 60 b 50 139 55 94 52 115 b 51 258 47 169 47 209 b 61 420 54 306 57 360 b 69 610 65 480 68 543 b 64 814 71 678 69 745 b 87 867 62 838 70 856 b 144 884 104 879 123 884 b 201 863 165 884 184 876 b 225 800 218 849 226 828 b 224 671 224 766 224 723 b 224 504 224 619 224 563 b 226 322 225 445 225 384 b 225 147 226 260 226 202 "},"M":{"ha":829,"x_min":0,"x_max":0,"o":"m 228 565 b 213 456 222 533 217 497 b 203 333 209 416 206 375 b 197 208 200 291 198 249 b 199 99 196 168 197 131 b 190 33 200 70 198 48 b 161 3 183 17 173 7 b 121 1 149 -2 136 -2 b 80 19 106 5 92 11 b 49 49 67 28 57 38 b 36 83 40 61 36 72 b 45 226 36 119 39 166 b 67 417 51 285 59 349 b 94 623 76 485 85 554 b 119 808 104 692 112 754 b 151 849 122 827 133 841 b 207 863 169 858 188 863 b 253 845 225 863 240 857 b 289 801 266 834 278 819 b 318 740 300 783 310 763 b 342 674 326 718 334 696 b 365 613 350 653 358 632 b 386 567 372 593 379 578 b 451 674 414 603 436 639 b 496 772 467 710 482 742 b 542 844 510 801 525 825 b 610 876 558 863 581 874 b 697 852 646 879 675 871 b 748 770 719 833 736 806 b 770 641 759 734 767 691 b 773 477 773 591 774 536 b 765 290 772 418 769 356 b 756 90 760 223 757 157 b 726 40 755 72 745 55 b 667 13 708 25 688 16 b 610 24 645 9 627 13 b 593 90 594 35 588 57 b 599 158 595 106 597 128 b 603 256 600 187 602 220 b 604 370 604 293 604 331 b 603 483 604 409 604 447 b 600 581 603 519 602 552 b 593 649 598 610 596 633 b 558 582 583 628 571 606 b 512 515 544 558 529 536 b 454 465 495 495 475 478 b 382 444 433 451 409 444 b 331 455 363 444 347 448 b 290 483 316 462 302 471 b 256 522 277 494 266 507 b 228 565 245 536 236 550 "},"N":{"ha":708,"x_min":0,"x_max":0,"o":"m 481 157 b 494 219 486 166 491 187 b 501 331 497 251 499 288 b 502 469 502 374 503 420 b 501 607 502 517 501 563 b 499 722 500 650 500 689 b 497 788 498 754 497 776 b 509 826 497 800 501 813 b 539 857 517 838 527 849 b 578 874 551 865 564 871 b 618 872 593 878 606 877 b 648 845 630 868 640 859 b 660 788 656 832 660 813 b 658 422 660 641 659 519 b 640 188 656 325 650 247 b 590 63 630 129 613 88 b 486 26 566 39 531 26 b 406 51 456 26 430 34 b 343 114 383 67 362 88 b 294 202 325 140 308 169 b 257 302 279 235 267 268 b 231 399 247 336 238 368 b 211 479 223 430 217 457 b 201 273 206 410 203 341 b 197 68 198 205 197 137 b 176 11 197 43 190 24 b 127 -6 161 -2 145 -8 b 76 19 109 -5 92 3 b 46 89 59 34 50 57 b 43 185 43 114 42 146 b 50 310 44 224 46 266 b 63 450 54 355 58 402 b 76 589 67 498 72 544 b 88 711 81 633 85 674 b 93 801 91 748 93 778 b 115 867 93 831 100 853 b 168 890 130 882 148 889 b 231 874 188 891 209 886 b 282 822 252 862 269 844 b 317 733 295 799 306 769 b 345 616 327 697 336 658 b 372 485 354 574 363 530 b 400 354 380 439 390 396 b 435 240 410 313 422 274 b 481 157 448 205 463 177 "},"O":{"ha":713,"x_min":0,"x_max":0,"o":"m 340 24 b 203 58 287 24 241 35 b 111 150 166 81 135 112 b 57 282 87 188 69 232 b 36 438 45 332 38 384 b 49 611 34 500 39 557 b 103 751 60 665 78 711 b 199 844 128 790 160 821 b 339 878 238 866 284 878 b 488 842 395 878 445 866 b 597 749 531 819 567 788 b 663 615 626 710 648 665 b 685 461 677 565 685 514 b 664 307 685 410 678 359 b 600 166 650 255 629 208 b 492 63 571 124 535 90 b 340 24 449 37 399 24 m 206 385 b 211 322 206 369 207 348 b 233 244 215 295 222 269 b 277 178 243 218 258 196 b 351 150 296 159 321 150 b 430 179 382 150 408 160 b 483 251 452 199 469 223 b 512 344 496 280 506 311 b 521 433 518 377 521 406 b 511 526 521 461 518 492 b 483 622 505 561 495 593 b 435 697 470 652 454 677 b 369 726 416 716 394 726 b 315 707 349 726 331 720 b 272 656 298 694 284 677 b 242 587 260 635 250 612 b 221 510 233 561 226 536 b 209 439 215 485 211 461 b 206 385 207 417 206 399 "},"P":{"ha":618,"x_min":0,"x_max":0,"o":"m 201 238 b 201 150 200 208 200 179 b 208 64 202 121 205 93 b 190 7 211 36 205 17 b 139 -6 175 -3 158 -7 b 85 15 119 -4 101 3 b 60 56 68 26 60 40 l 60 141 l 60 269 l 60 419 b 59 572 60 472 59 523 b 58 708 59 621 58 666 b 57 807 57 749 57 782 b 82 860 56 832 64 850 b 140 872 100 871 119 875 b 367 857 230 879 306 874 b 514 786 428 840 477 817 b 593 683 551 756 577 721 b 617 569 609 644 617 606 b 584 437 617 523 606 479 b 495 328 562 395 533 358 b 363 257 458 297 414 274 b 201 238 313 240 259 234 m 206 351 b 291 368 233 347 262 352 b 371 431 320 384 347 405 b 430 522 395 458 415 488 b 453 619 445 555 453 588 b 440 679 453 641 449 661 b 401 727 432 698 419 714 b 329 758 383 741 359 751 b 221 765 300 765 263 767 b 220 560 225 698 225 629 b 206 351 215 491 210 422 "},"Q":{"ha":736,"x_min":0,"x_max":0,"o":"m 383 878 b 518 852 436 878 481 869 b 610 780 555 835 586 811 b 663 667 634 749 652 711 b 683 518 675 622 681 573 b 672 352 685 459 681 403 b 624 217 663 301 647 256 b 717 89 665 162 696 119 b 725 44 728 71 731 56 b 696 16 719 31 710 22 b 649 9 682 10 666 8 b 603 26 631 10 616 16 b 571 61 594 34 583 45 b 529 117 559 77 545 95 b 462 89 509 105 486 95 b 382 79 437 82 411 79 b 233 115 325 79 276 91 b 124 208 190 138 153 169 b 58 342 95 247 73 292 b 36 496 44 392 36 443 b 57 641 36 547 43 595 b 121 763 71 687 92 727 b 229 847 150 798 186 826 b 383 878 273 867 324 878 m 514 572 b 508 627 514 588 512 606 b 487 686 505 648 497 668 b 442 733 476 705 461 720 b 368 751 423 745 399 751 b 290 731 338 751 311 745 b 237 678 268 718 250 700 b 208 606 223 657 214 632 b 199 525 202 579 199 552 b 208 431 199 496 202 465 b 237 336 215 397 224 366 b 285 262 249 306 265 282 b 351 232 304 242 326 232 b 425 271 380 232 405 245 b 387 323 412 289 399 307 b 351 367 374 339 363 354 b 340 408 341 379 337 393 b 357 449 342 424 348 438 b 392 471 366 461 378 468 b 432 453 406 474 419 468 b 458 422 441 443 450 432 b 485 390 467 411 475 400 b 507 494 495 425 502 460 b 514 572 512 528 514 554 "},"R":{"ha":700,"x_min":0,"x_max":0,"o":"m 226 288 b 235 56 227 220 230 143 b 215 17 236 42 229 29 b 166 -8 201 5 185 -4 b 110 -5 147 -13 128 -12 b 72 42 92 2 80 18 b 60 129 67 60 63 89 b 57 264 58 169 57 214 b 60 423 57 314 58 367 b 65 583 62 479 63 532 b 70 720 67 634 69 680 b 71 811 72 760 72 791 b 78 839 70 822 72 831 b 102 856 84 846 92 852 b 135 864 112 860 123 863 b 169 861 147 865 158 864 b 398 892 256 882 332 893 b 565 861 464 892 520 881 b 666 774 609 841 643 812 b 700 636 689 736 700 690 b 678 517 700 594 693 554 b 613 423 664 481 642 449 b 501 363 583 397 546 377 b 342 347 456 350 403 344 b 430 299 369 331 399 316 b 520 253 461 283 491 268 b 600 214 549 238 576 225 b 657 190 624 203 643 195 b 699 152 678 183 692 170 b 703 97 705 134 707 116 b 682 47 700 78 693 61 b 644 26 671 32 658 25 b 549 57 617 27 585 38 b 439 126 514 76 477 100 b 327 210 401 153 364 181 b 226 288 291 240 257 265 m 228 478 b 384 463 293 465 345 460 b 475 485 423 466 454 474 b 517 528 496 497 510 511 b 526 578 523 546 526 562 b 508 650 526 603 520 627 b 451 709 495 673 476 693 b 358 745 426 725 395 737 b 231 749 321 753 279 754 b 229 610 231 700 230 653 b 228 478 228 566 228 522 "},"S":{"ha":674,"x_min":0,"x_max":0,"o":"m 151 256 b 233 181 172 224 199 199 b 335 154 268 163 301 154 b 431 188 375 153 406 164 b 465 272 455 211 466 239 b 436 342 465 303 456 326 b 363 383 417 359 392 372 b 269 413 334 393 303 403 b 174 451 235 422 203 434 b 101 515 145 467 121 488 b 72 625 82 542 72 579 b 141 794 72 696 95 753 b 325 856 187 835 248 856 b 478 826 377 856 428 846 b 597 736 528 806 568 776 b 614 678 613 715 619 695 b 585 638 609 660 600 647 b 533 626 570 628 553 624 b 483 651 514 627 497 636 b 453 673 476 660 466 667 b 410 689 440 679 426 684 b 366 699 395 694 380 697 b 331 703 352 702 340 703 b 274 683 307 703 289 696 b 253 631 260 669 253 652 b 283 572 253 605 263 585 b 357 540 303 559 327 548 b 453 514 387 531 419 522 b 549 476 487 506 519 493 b 623 408 578 460 603 437 b 653 292 643 380 653 341 b 629 174 653 249 645 210 b 564 82 613 139 592 108 b 465 22 536 56 503 36 b 342 0 427 7 386 0 b 192 33 292 0 242 11 b 49 154 143 56 95 96 b 7 226 27 182 13 206 b 3 274 0 246 -1 262 b 28 301 8 287 16 296 b 68 307 40 307 53 309 b 113 291 83 305 98 300 b 151 256 128 282 141 270 "},"T":{"ha":469,"x_min":0,"x_max":0,"o":"m 494 721 b 440 723 479 723 461 723 b 375 721 420 722 398 722 b 366 622 371 693 368 660 b 360 501 364 584 362 544 b 357 372 358 459 357 416 b 359 247 357 329 358 287 b 366 138 360 207 363 171 b 379 57 369 104 374 77 b 361 20 382 44 376 32 b 309 -1 346 9 329 1 b 252 10 289 -4 270 0 b 219 75 234 21 223 43 b 208 207 216 107 212 151 b 200 383 205 263 202 321 b 198 565 198 445 197 506 b 206 715 198 625 201 675 b 122 719 176 715 148 716 b 53 731 96 721 73 725 b 10 764 32 737 18 748 b 1 813 3 780 0 796 b 21 856 3 829 10 844 b 64 872 32 868 46 873 b 188 867 106 869 148 868 b 306 868 227 867 267 867 b 426 872 346 869 385 870 b 553 875 466 873 508 874 b 603 849 576 875 593 866 b 615 794 614 832 618 814 b 581 740 611 774 600 756 b 494 721 561 725 532 718 "},"U":{"ha":719,"x_min":0,"x_max":0,"o":"m 481 46 b 483 78 481 57 482 68 b 483 110 483 89 483 100 b 394 31 456 75 427 48 b 274 4 362 13 322 4 b 124 53 208 4 158 20 b 55 199 91 85 67 134 b 43 442 42 265 38 346 b 69 782 48 539 56 652 b 99 829 72 805 82 821 b 154 836 116 838 135 840 b 206 810 174 832 191 824 b 226 758 222 796 228 779 b 217 681 225 743 221 717 b 205 561 212 646 208 606 b 200 423 202 517 200 471 b 212 292 200 375 204 332 b 251 195 220 253 233 221 b 326 157 269 170 294 157 b 385 175 349 157 368 163 b 431 222 403 187 418 203 b 467 289 445 242 457 264 b 496 364 478 314 488 339 b 503 583 500 436 502 509 b 499 817 504 657 502 735 b 523 864 498 836 506 852 b 581 878 540 876 559 881 b 639 840 602 875 621 863 b 667 733 656 818 666 782 b 669 562 668 678 669 621 b 670 385 670 503 671 444 b 663 208 670 325 667 267 b 643 38 659 150 652 93 b 610 -12 638 13 627 -4 b 554 -19 592 -20 574 -22 b 502 4 535 -16 517 -8 b 481 46 487 16 480 30 "},"V":{"ha":581,"x_min":0,"x_max":0,"o":"m 338 192 b 363 329 346 231 354 276 b 392 489 372 382 382 435 b 426 644 403 543 414 594 b 463 769 437 694 450 736 b 522 857 480 815 500 844 b 580 866 543 870 563 873 b 617 826 597 859 609 846 b 615 768 625 807 625 788 b 560 615 594 726 576 675 b 518 422 545 555 531 491 b 478 210 505 353 492 282 b 432 3 465 138 450 69 b 406 -30 427 -12 419 -23 b 363 -39 393 -37 378 -40 b 317 -26 347 -38 331 -34 b 285 4 302 -19 291 -9 b 225 132 265 41 245 84 b 163 283 205 180 184 231 b 103 442 142 336 122 389 b 49 593 83 496 65 546 b 5 722 32 640 17 683 b -25 813 -8 760 -18 790 b -22 853 -29 824 -28 837 b 6 893 -16 870 -6 883 b 50 906 19 903 33 908 b 103 867 67 905 84 892 b 182 717 134 824 161 774 b 238 540 203 660 222 601 b 285 358 254 479 270 418 b 338 192 300 297 317 242 "},"W":{"ha":932,"x_min":0,"x_max":0,"o":"m 335 172 b 348 237 338 188 343 209 b 365 325 353 264 359 294 b 388 422 372 356 379 389 b 418 511 396 454 406 484 b 459 576 430 538 444 560 b 511 601 474 593 492 601 b 574 577 534 601 555 593 b 623 510 592 561 609 538 b 659 408 637 481 649 447 b 685 282 669 369 677 327 b 717 408 694 319 705 361 b 754 551 729 456 741 503 b 794 692 767 600 781 647 b 835 814 808 738 822 779 b 891 892 850 856 869 883 b 949 890 913 902 932 901 b 988 835 966 879 979 861 b 986 756 997 810 996 783 b 958 674 979 735 969 708 b 919 561 946 641 933 603 b 876 428 906 519 891 475 b 833 286 862 381 847 333 b 794 148 819 239 806 193 b 763 24 781 103 771 62 b 730 -21 758 2 747 -12 b 675 -28 713 -29 694 -31 b 620 -1 656 -24 637 -15 b 588 56 603 13 592 31 b 572 130 584 73 579 98 b 552 231 566 162 559 196 b 533 338 545 267 539 303 b 518 429 527 374 522 404 b 498 326 512 398 505 363 l 477 213 b 457 106 470 176 463 140 b 439 15 450 71 444 41 b 408 -33 434 -4 424 -20 b 356 -55 393 -45 375 -53 b 301 -45 337 -57 319 -54 b 263 4 284 -36 271 -20 b 126 384 216 130 171 257 b 6 761 82 511 42 637 b 8 826 -2 785 -1 807 b 48 865 18 845 31 858 b 104 866 65 873 84 873 b 158 814 125 859 143 842 b 209 679 177 779 194 734 b 252 506 224 625 239 567 b 292 326 266 446 279 386 b 335 172 305 267 319 216 "},"X":{"ha":685,"x_min":0,"x_max":0,"o":"m 13 128 b 111 272 39 165 72 213 b 232 460 150 331 190 394 b 134 610 199 510 166 560 b 36 764 102 661 69 712 b 19 828 19 790 14 811 b 50 867 24 846 34 859 b 103 881 66 876 84 881 b 153 867 123 881 140 876 b 238 780 177 850 205 821 b 344 636 271 739 306 691 b 417 750 370 677 394 715 b 474 843 439 785 458 816 b 519 875 483 858 498 869 b 578 878 540 881 559 882 b 623 846 597 873 612 863 b 621 774 634 829 633 805 b 555 646 608 741 586 699 b 449 478 524 593 488 537 b 578 278 493 408 536 342 b 690 119 621 214 658 161 b 712 59 707 98 714 78 b 686 16 709 40 701 26 b 630 7 671 6 653 3 b 560 49 607 11 584 25 b 442 178 518 91 479 134 b 336 313 406 221 370 266 b 219 147 294 253 255 198 b 131 21 182 95 153 53 b 82 -6 120 6 104 -3 b 22 4 60 -8 40 -5 b -12 49 5 13 -7 28 b 13 128 -18 69 -10 95 "},"Y":{"ha":625,"x_min":0,"x_max":0,"o":"m 338 243 b 237 352 306 278 272 315 b 135 469 201 390 167 428 b 51 594 103 509 75 551 b 3 728 27 637 11 681 b 7 813 -3 761 -1 790 b 42 864 15 837 27 854 b 90 872 56 874 72 877 b 135 831 107 868 122 854 b 256 603 174 756 214 681 b 400 389 298 526 346 455 b 428 499 409 420 419 457 b 457 622 438 540 448 581 b 481 733 466 663 474 700 b 499 801 488 766 494 788 b 540 861 508 833 522 853 b 592 860 558 869 575 869 b 634 810 608 850 622 834 b 647 724 646 786 650 757 b 628 613 644 697 638 660 b 592 460 619 566 606 515 b 541 288 577 404 560 347 b 481 120 522 228 502 172 b 418 -19 460 68 439 22 b 357 -106 397 -59 376 -88 b 297 -133 341 -119 321 -129 b 233 -126 272 -138 251 -135 b 202 -72 215 -116 204 -98 b 242 40 200 -45 213 -8 b 274 94 255 62 265 80 b 297 138 282 109 290 124 b 316 184 303 153 310 168 b 338 243 322 200 329 220 "},"Z":{"ha":688,"x_min":0,"x_max":0,"o":"m 375 679 b 333 678 367 679 353 679 b 272 676 314 677 293 676 b 207 674 250 675 228 675 b 157 676 186 674 169 675 b 76 707 116 680 89 690 b 63 759 62 724 58 741 b 97 808 67 777 78 793 b 157 829 115 822 135 829 b 369 828 228 829 299 829 b 583 842 439 827 510 831 b 655 836 614 845 638 844 b 689 805 672 829 683 818 b 688 759 694 791 694 776 b 654 711 682 742 671 726 b 546 604 622 682 586 647 b 424 467 506 562 466 516 b 303 316 383 418 343 367 b 196 171 263 265 227 216 b 266 163 208 165 231 163 b 381 167 301 163 339 164 b 508 176 423 169 466 172 b 611 181 550 179 584 181 b 665 161 631 181 649 174 b 696 117 680 148 690 133 b 694 68 701 100 701 84 b 649 36 687 52 672 42 b 547 17 613 29 579 22 b 455 6 516 12 485 8 b 363 0 425 3 394 1 b 260 -1 331 -1 297 -1 b 126 16 209 -1 164 4 b 38 64 88 28 59 44 b 2 135 16 84 4 108 b 28 224 0 163 8 192 b 114 357 58 273 87 317 b 195 470 141 397 168 434 b 279 574 222 506 250 540 b 375 679 308 607 340 642 "},"[":{"ha":439,"x_min":0,"x_max":0,"o":"m 238 685 b 220 323 235 563 229 443 b 207 -40 211 203 207 82 b 281 -36 234 -38 258 -37 b 353 -35 303 -35 327 -35 b 394 -49 369 -35 382 -40 b 417 -83 406 -59 414 -70 b 410 -121 421 -96 418 -109 b 361 -146 403 -133 386 -141 b 267 -152 331 -150 299 -153 b 171 -151 234 -152 202 -151 b 121 -144 150 -151 133 -149 b 94 -123 109 -140 100 -133 b 84 -87 89 -113 85 -101 b 82 -39 83 -74 82 -57 b 89 140 82 22 84 82 b 103 318 94 199 98 258 b 115 506 107 378 111 441 b 115 718 118 572 118 642 b 135 767 114 739 121 756 b 183 790 149 778 165 786 b 220 794 193 792 205 794 b 269 797 235 795 252 796 b 318 797 286 797 302 797 l 356 797 b 394 780 370 797 383 791 b 414 742 406 768 412 756 b 401 703 416 728 412 715 b 346 685 391 691 373 685 b 292 686 326 685 308 685 b 238 685 275 687 257 687 "},"]":{"ha":439,"x_min":0,"x_max":0,"o":"m 203 685 b 149 686 183 687 165 687 b 94 685 132 685 114 685 b 38 703 67 685 48 691 b 25 742 27 715 23 728 b 44 780 27 756 33 768 b 85 797 56 791 69 797 l 122 797 b 170 797 137 797 153 797 b 219 794 187 796 204 795 b 257 790 235 794 248 792 b 305 767 275 786 291 778 b 324 718 318 756 325 739 b 325 506 321 642 321 572 b 338 318 329 441 333 378 b 351 140 342 258 347 199 b 358 -39 356 82 358 22 b 356 -87 358 -57 358 -74 b 346 -123 355 -101 351 -113 b 319 -144 340 -133 331 -140 b 269 -151 307 -149 291 -151 b 174 -152 238 -151 206 -152 b 78 -146 141 -153 109 -150 b 29 -121 54 -141 38 -133 b 22 -83 21 -109 18 -96 b 44 -49 25 -70 32 -59 b 88 -35 56 -40 71 -35 b 160 -36 113 -35 138 -35 b 233 -40 182 -37 206 -38 b 219 323 233 82 229 203 b 203 685 210 443 205 563 "},"^":{"ha":499,"x_min":0,"x_max":0,"o":"m 172 729 b 195 767 179 748 186 760 b 222 774 204 773 213 775 b 249 760 231 772 241 767 b 274 736 258 752 266 744 b 309 690 282 727 294 711 b 356 622 324 668 340 645 b 401 556 372 598 388 576 b 429 517 415 535 425 522 b 458 456 450 492 459 472 b 440 426 457 441 451 431 b 395 426 428 421 413 421 b 347 457 377 431 361 441 b 318 490 338 466 328 477 b 288 526 308 502 298 514 b 262 560 278 538 270 550 b 243 586 254 571 248 580 b 213 530 237 570 226 552 b 167 468 199 508 183 488 b 109 422 144 442 125 427 b 72 428 93 418 81 420 b 60 468 64 437 60 450 b 78 521 61 486 67 503 b 101 565 84 532 92 547 b 128 622 111 583 120 602 b 153 681 137 643 146 662 b 172 729 161 700 168 716 "},"_":{"ha":572,"x_min":0,"x_max":0,"o":"m 439 -86 b 473 -101 454 -86 465 -91 b 486 -134 481 -110 485 -122 b 480 -171 487 -147 485 -159 b 457 -194 475 -183 467 -191 b 399 -201 448 -197 428 -199 b 303 -203 369 -202 337 -203 b 203 -206 269 -204 235 -205 b 136 -210 172 -206 149 -208 b 102 -198 122 -212 111 -209 b 86 -161 93 -187 88 -175 b 94 -122 84 -147 87 -134 b 132 -100 101 -109 113 -102 b 285 -90 179 -95 230 -92 b 439 -86 341 -87 392 -86 "},"`":{"ha":247,"x_min":0,"x_max":0,"o":"m 186 715 b 185 686 191 703 190 694 b 162 670 179 679 172 673 b 131 667 152 667 142 666 b 110 675 121 668 113 670 b 92 700 102 684 97 693 b 80 724 88 707 84 715 b 67 753 76 732 71 742 b 50 797 62 764 56 779 b 60 820 48 803 52 810 b 92 845 69 830 80 838 b 129 856 105 852 117 856 b 154 835 141 856 150 849 b 163 802 158 822 161 811 b 169 776 166 793 168 784 b 176 749 171 767 173 758 b 186 715 178 739 181 728 "},"a":{"ha":625,"x_min":0,"x_max":0,"o":"m 418 557 b 435 602 416 575 422 591 b 481 624 449 614 464 621 b 528 620 497 626 513 625 b 557 590 544 615 553 605 b 561 551 558 585 559 572 b 567 474 563 530 565 504 b 572 374 569 443 570 410 b 575 267 573 339 574 303 b 576 165 576 231 576 197 b 574 83 576 133 575 106 b 542 13 571 51 560 28 b 484 -10 524 -1 505 -9 b 428 3 463 -12 445 -7 b 408 44 412 13 406 27 b 411 76 410 50 411 61 b 340 29 390 58 366 42 b 257 10 314 16 287 10 b 167 35 225 10 195 18 b 97 102 140 51 117 74 b 51 201 78 130 63 163 b 35 322 40 239 35 280 b 55 442 35 369 41 409 b 106 526 68 476 85 504 b 177 574 127 547 151 563 b 257 589 203 584 230 589 b 350 568 292 589 323 582 b 419 519 377 554 400 538 b 419 538 419 526 419 532 b 418 557 418 544 418 550 m 419 219 b 422 283 420 240 421 261 b 422 350 422 306 422 328 b 364 410 403 377 383 397 b 292 429 344 423 320 429 b 217 395 258 428 234 417 b 194 283 201 373 194 336 b 217 179 194 234 202 200 b 293 149 233 159 258 149 b 360 166 320 149 342 154 b 419 219 378 178 398 195 "},"b":{"ha":647,"x_min":0,"x_max":0,"o":"m 210 50 b 171 17 201 36 188 25 b 117 6 153 9 135 6 b 67 20 98 7 82 11 b 44 63 53 29 45 43 b 46 235 42 116 42 174 b 59 420 50 296 54 358 b 74 606 64 483 69 544 b 79 778 78 667 80 724 b 105 822 79 799 88 814 b 162 831 122 831 141 834 b 218 810 183 829 201 822 b 240 763 235 798 242 782 b 234 659 238 744 236 709 b 228 489 232 609 230 552 b 303 554 252 518 277 539 b 397 576 330 569 361 576 b 484 560 428 576 457 571 b 555 514 511 550 535 534 b 602 440 575 494 591 469 b 619 343 614 412 619 379 b 599 227 619 304 613 266 b 542 123 586 189 567 154 b 455 47 518 92 489 67 b 342 18 421 28 383 18 b 277 26 321 18 300 21 b 210 50 254 31 232 39 m 226 192 b 287 153 247 171 267 158 b 336 144 307 147 323 144 b 399 163 361 144 382 150 b 438 206 415 175 428 189 b 459 262 448 223 455 242 b 465 315 463 282 465 300 b 461 354 465 328 464 341 b 447 390 458 367 453 379 b 419 415 440 400 431 409 b 376 425 408 422 394 425 b 298 406 352 425 326 419 b 226 356 270 394 246 377 l 226 192 "},"c":{"ha":524,"x_min":0,"x_max":0,"o":"m 292 1 b 175 27 246 1 207 10 b 96 97 143 44 116 67 b 51 198 75 126 60 159 b 36 318 41 236 36 276 b 99 532 35 413 56 485 b 278 603 141 579 201 603 b 414 569 331 603 376 592 b 482 467 452 547 475 513 b 474 393 488 433 486 409 b 431 365 462 377 447 368 b 383 369 414 361 398 363 b 358 396 367 376 359 385 b 334 437 356 414 348 428 b 293 450 320 446 306 450 b 255 435 279 450 266 445 b 225 397 243 426 233 413 b 206 343 217 381 210 363 b 199 279 201 323 199 301 b 203 235 199 264 200 250 b 218 194 206 220 211 206 b 248 165 225 182 235 173 b 297 154 260 158 277 154 b 361 174 325 154 346 161 b 393 222 376 187 387 203 b 429 281 402 251 414 270 b 472 292 444 291 458 295 b 508 271 486 290 498 283 b 522 228 519 259 523 244 b 499 119 520 184 513 148 b 447 50 486 91 468 68 b 374 13 425 32 400 20 b 292 1 347 5 319 1 "},"d":{"ha":656,"x_min":0,"x_max":0,"o":"m 443 89 b 358 38 416 68 388 50 b 268 18 329 25 299 18 b 181 38 238 18 208 25 b 107 92 153 50 128 69 b 56 177 86 116 69 144 b 36 285 43 210 36 246 b 53 391 36 321 42 356 b 101 485 65 426 81 457 b 172 551 121 513 144 535 b 263 576 200 568 230 576 b 349 557 293 576 322 570 b 424 517 377 544 401 531 b 419 625 422 552 420 588 b 417 740 417 662 417 700 b 442 800 417 768 425 788 b 499 816 459 812 478 817 b 554 797 519 815 538 808 b 578 750 571 785 579 769 b 578 547 575 671 575 603 b 590 389 582 490 585 437 b 601 250 594 341 598 294 b 606 103 605 206 606 156 b 580 21 606 67 597 39 b 524 -12 563 2 544 -9 b 468 1 503 -15 485 -11 b 443 54 451 12 443 30 l 443 89 m 440 239 b 436 315 438 265 437 290 b 432 388 435 339 434 363 b 401 409 423 397 413 404 b 370 420 390 414 380 418 b 344 424 360 422 352 424 b 326 425 336 425 330 425 b 265 415 301 425 281 422 b 227 390 248 409 236 400 b 209 356 218 380 212 369 b 204 317 206 343 204 330 b 210 267 204 301 206 284 b 229 220 215 250 221 234 b 262 185 238 206 248 194 b 311 171 275 175 292 171 b 379 191 335 171 358 178 b 440 239 400 204 421 220 "},"e":{"ha":538,"x_min":0,"x_max":0,"o":"m 206 274 b 235 185 207 236 217 206 b 324 153 252 163 282 153 b 374 160 344 153 361 155 b 405 178 387 166 397 172 b 423 201 413 185 419 193 b 435 219 427 209 431 215 b 472 245 445 232 457 241 b 510 243 486 249 499 249 b 535 213 522 238 530 228 b 531 154 541 199 539 179 b 451 44 516 110 489 73 b 301 0 412 15 363 0 b 181 28 254 0 214 9 b 98 101 147 46 120 71 b 50 203 76 131 60 165 b 35 321 40 242 35 281 b 49 429 35 359 40 395 b 98 519 59 463 75 493 b 187 580 121 544 150 565 b 324 603 223 595 269 603 b 465 568 384 603 431 591 b 515 444 498 545 515 504 b 488 338 515 399 506 364 b 415 282 469 313 445 294 b 316 264 386 270 353 264 b 206 274 279 264 243 267 m 210 368 b 268 364 228 364 248 363 b 324 374 288 365 307 368 b 365 399 340 379 354 388 b 382 442 376 410 382 424 b 363 481 382 461 376 474 b 325 493 351 488 338 492 b 278 485 306 494 291 491 b 245 457 265 478 254 469 b 223 416 236 445 229 431 b 210 368 217 401 213 385 "},"f":{"ha":521,"x_min":0,"x_max":0,"o":"m 253 68 b 226 18 251 48 242 31 b 175 -6 211 5 194 -3 b 124 -1 156 -9 140 -8 b 100 39 109 6 101 19 b 79 315 97 137 90 229 b 46 316 66 315 55 316 b 26 317 37 316 30 317 b 2 332 18 317 10 322 b -12 367 -6 342 -11 354 b -7 403 -14 380 -12 392 b 26 425 -1 415 10 422 b 49 427 33 426 41 427 b 81 431 58 428 69 429 b 82 615 78 498 78 559 b 114 756 86 670 96 717 b 193 846 131 794 158 825 b 335 878 228 867 275 878 b 431 856 369 878 401 870 b 506 797 460 841 485 821 b 552 715 527 773 542 746 b 558 622 562 685 564 654 b 526 571 555 598 544 581 b 469 558 508 561 489 556 b 416 577 449 559 431 566 b 396 624 401 589 394 604 b 393 653 397 631 396 641 b 381 690 390 666 386 678 b 360 722 375 702 368 713 b 335 735 353 730 344 735 b 286 710 315 735 299 726 b 256 644 273 693 263 671 b 242 549 249 616 244 585 b 238 438 239 514 238 476 b 318 440 264 438 291 439 b 392 441 345 440 369 441 b 449 442 414 441 433 442 b 483 443 466 443 477 443 b 515 426 494 443 505 437 b 532 387 524 414 530 401 b 524 345 534 372 531 359 b 481 321 517 332 503 324 b 381 315 459 318 426 316 b 240 314 336 314 289 314 b 249 161 243 257 246 206 b 253 68 253 116 254 85 "},"g":{"ha":650,"x_min":0,"x_max":0,"o":"m 331 -233 b 262 -235 308 -236 285 -237 b 194 -224 238 -234 216 -230 b 135 -197 172 -218 152 -209 b 94 -149 117 -184 104 -168 b 88 -104 87 -133 85 -118 b 106 -69 91 -90 97 -78 b 138 -49 115 -59 125 -52 b 169 -50 150 -45 160 -45 b 201 -72 182 -57 193 -65 b 226 -93 210 -80 218 -87 b 250 -109 234 -100 242 -105 b 281 -115 258 -113 269 -115 b 333 -98 300 -115 317 -109 b 372 -50 348 -86 361 -70 b 399 22 382 -30 391 -6 b 417 110 406 49 412 78 b 342 69 395 94 370 80 b 242 51 313 57 280 51 b 144 70 204 51 171 58 b 78 121 118 83 95 100 b 40 194 60 142 47 167 b 28 282 32 222 28 251 b 44 391 28 318 33 354 b 91 490 56 428 71 460 b 163 561 111 519 135 543 b 254 589 190 580 221 589 b 351 562 289 589 322 580 b 432 500 380 544 407 523 b 431 543 431 516 431 530 l 431 578 b 456 622 431 597 439 612 b 510 638 472 632 491 638 b 566 621 530 638 549 632 b 592 568 583 610 592 592 b 599 435 593 531 595 487 b 607 272 603 383 606 329 b 599 102 608 216 605 159 b 561 -53 593 45 581 -7 b 477 -172 542 -100 514 -140 b 331 -233 441 -205 392 -225 m 431 269 b 433 313 431 284 432 299 b 433 356 433 328 433 342 b 365 427 406 388 383 412 b 303 450 347 442 326 450 b 253 438 284 450 268 446 b 216 404 238 429 226 418 b 194 358 206 390 199 375 b 186 306 189 341 186 323 b 212 222 186 274 195 246 b 292 183 229 197 256 184 b 360 202 313 183 336 190 b 431 269 384 215 407 237 "},"h":{"ha":626,"x_min":0,"x_max":0,"o":"m 239 769 b 223 635 231 724 226 679 b 215 503 220 591 217 547 b 303 578 242 537 272 562 b 414 601 335 594 372 601 b 525 569 462 601 499 591 b 576 471 551 547 568 514 b 581 305 585 427 586 372 b 551 69 575 238 565 159 b 519 18 548 44 537 27 b 465 8 502 9 484 5 b 416 28 447 10 430 17 b 399 69 402 39 396 53 b 404 113 400 77 401 91 b 412 188 407 135 409 160 b 415 276 414 215 415 245 b 408 360 415 307 413 335 b 385 424 404 386 396 407 b 339 449 374 440 358 449 b 268 413 315 449 291 437 b 213 329 245 390 226 362 b 214 190 213 283 213 237 b 215 50 215 144 215 97 b 191 15 215 36 207 25 b 138 1 175 6 157 1 b 83 15 118 0 100 5 b 53 64 66 24 56 41 b 49 151 50 87 49 116 b 53 267 50 187 51 225 b 60 399 55 308 57 352 b 68 536 63 445 65 491 b 75 667 71 581 73 625 b 79 779 77 708 78 746 b 106 826 79 803 88 819 b 163 832 123 834 142 836 b 217 808 183 828 201 820 b 239 769 234 796 241 783 "},"i":{"ha":267,"x_min":0,"x_max":0,"o":"m 83 731 b 101 778 84 752 90 768 b 143 793 113 788 126 793 b 192 774 163 793 179 787 b 208 725 206 762 211 745 b 186 683 206 706 199 693 b 140 669 173 674 158 669 b 83 731 100 669 81 690 m 204 69 b 178 13 204 42 196 23 b 122 1 161 2 143 -2 b 66 24 102 3 83 11 b 42 74 49 38 41 54 b 51 296 44 138 47 212 b 61 553 54 380 57 466 b 90 595 62 570 72 584 b 149 612 108 606 127 611 b 205 596 170 612 189 607 b 224 543 221 585 227 567 b 205 308 212 468 205 390 b 204 69 204 226 204 146 "},"j":{"ha":297,"x_min":0,"x_max":0,"o":"m 215 733 b 197 685 214 712 208 696 b 156 669 186 675 172 669 b 106 689 136 669 120 676 b 90 739 93 702 88 719 b 113 780 92 757 100 771 b 158 793 125 789 141 793 b 215 733 198 793 217 773 m -24 -243 b -94 -237 -46 -243 -69 -241 b -165 -218 -119 -234 -143 -227 b -218 -182 -186 -209 -204 -197 b -239 -126 -232 -167 -239 -149 b -214 -72 -239 -104 -231 -86 b -157 -50 -197 -57 -178 -50 b -126 -60 -142 -50 -132 -53 b -110 -83 -120 -67 -115 -75 b -94 -105 -106 -91 -101 -98 b -62 -115 -88 -112 -77 -115 b 8 -74 -34 -115 -10 -101 b 51 34 27 -46 41 -10 b 72 181 62 78 69 127 b 79 338 76 234 78 287 b 78 480 80 390 80 437 b 76 578 77 523 76 556 b 102 617 76 597 85 610 b 158 624 119 624 138 627 b 214 606 179 622 197 616 b 238 568 231 595 238 583 b 240 431 236 531 236 485 b 247 260 243 377 245 320 b 242 81 248 201 246 141 b 206 -80 237 22 225 -32 b 124 -197 187 -128 160 -166 b -24 -243 88 -227 38 -242 "},"k":{"ha":557,"x_min":0,"x_max":0,"o":"m 235 763 b 222 623 229 716 225 670 b 215 481 219 576 217 529 b 259 505 227 487 242 495 b 313 536 276 515 294 525 l 370 569 b 421 601 389 581 406 591 b 474 610 436 611 453 613 b 528 585 495 606 513 598 b 553 540 543 573 551 558 b 519 485 555 522 544 503 b 388 407 481 455 437 429 b 250 336 340 385 294 361 b 395 241 302 307 350 276 b 538 144 440 206 488 174 b 571 92 563 129 574 111 b 544 39 568 72 559 55 b 489 2 528 23 510 11 b 438 0 468 -7 450 -7 b 385 38 422 8 404 21 b 325 92 365 54 345 72 b 266 149 305 111 285 130 b 217 193 247 167 231 182 b 215 127 216 171 215 149 b 211 63 214 105 213 84 b 182 1 209 32 200 11 b 125 -9 164 -10 145 -13 b 71 23 105 -5 87 6 b 50 86 55 40 48 61 b 60 254 54 140 57 196 b 67 431 63 313 65 372 b 72 609 70 491 71 550 b 74 778 73 668 74 724 b 100 816 74 795 82 808 b 158 825 118 824 137 827 b 214 806 178 823 197 817 b 235 763 231 796 238 781 "},"l":{"ha":282,"x_min":0,"x_max":0,"o":"m 218 49 b 190 8 216 30 207 16 b 135 -2 172 -1 154 -4 b 81 21 115 0 97 8 b 58 78 65 34 57 53 b 57 248 60 131 60 188 b 51 429 54 308 52 368 b 51 610 49 490 50 550 b 71 778 53 669 60 725 b 101 809 74 790 84 800 b 158 825 119 818 138 823 b 210 815 178 827 195 824 b 232 768 226 807 233 791 b 224 540 227 685 225 609 b 224 349 224 471 224 407 b 224 187 225 290 225 236 b 218 49 224 137 222 91 "},"m":{"ha":832,"x_min":0,"x_max":0,"o":"m 226 588 b 275 621 242 601 258 613 b 328 633 292 629 309 633 b 364 627 340 633 352 631 b 398 605 376 623 387 616 b 426 562 409 594 418 580 b 443 493 434 544 439 521 b 473 564 449 524 459 547 b 518 601 487 581 502 593 b 563 617 534 610 549 615 b 593 619 578 619 588 619 b 723 590 651 620 695 610 b 780 492 751 569 770 536 b 789 324 790 448 793 392 b 775 81 785 255 781 174 b 746 1 772 39 763 13 b 692 -3 729 -10 711 -11 b 642 40 673 4 656 19 b 621 107 627 60 620 83 b 623 149 621 113 622 127 b 626 222 624 170 625 194 b 626 310 627 250 627 279 b 619 393 625 340 623 368 b 600 456 615 418 608 439 b 567 481 592 472 581 481 b 534 456 552 481 541 472 b 517 397 527 440 521 420 b 503 322 512 373 508 348 b 485 250 499 295 493 271 b 447 201 475 226 462 210 b 403 194 431 193 417 191 b 367 220 389 198 377 207 b 351 269 356 234 351 250 b 356 316 351 278 353 293 b 359 387 358 339 359 362 b 349 452 359 411 355 433 b 314 481 343 471 331 481 b 283 469 303 481 292 477 b 256 440 273 461 264 451 b 235 402 248 428 241 416 b 221 364 229 389 225 376 b 213 213 218 314 216 263 b 210 47 211 162 210 106 b 185 -2 210 25 201 9 b 129 -16 168 -13 150 -17 b 74 8 109 -15 90 -6 b 49 72 57 23 49 44 b 53 185 49 106 50 143 b 62 316 56 226 59 270 b 69 456 65 362 68 409 b 69 597 71 504 71 551 b 92 638 69 614 76 627 b 147 656 109 648 127 654 b 201 648 166 657 185 655 b 226 614 218 641 226 630 l 226 588 "},"n":{"ha":617,"x_min":0,"x_max":0,"o":"m 217 521 b 305 583 243 547 272 567 b 418 606 338 598 375 606 b 517 578 461 606 494 596 b 565 488 541 559 557 529 b 573 324 574 446 576 391 b 553 79 570 257 563 175 b 519 17 550 50 539 29 b 457 1 499 5 478 -1 b 402 24 436 2 417 10 b 389 79 387 38 382 56 b 397 124 391 88 394 102 b 406 197 401 145 404 169 b 408 284 407 225 408 254 b 401 367 408 314 406 342 b 379 428 397 392 389 412 b 338 453 369 445 355 453 b 283 428 321 453 303 444 b 213 350 264 411 240 385 l 210 236 b 208 113 209 198 208 157 b 183 24 208 71 200 41 b 128 -5 167 6 148 -3 b 73 10 107 -6 89 -1 b 50 53 57 22 49 36 b 58 278 54 117 56 192 b 57 557 59 365 59 458 b 81 602 56 579 64 594 b 136 612 97 610 116 613 b 192 595 156 610 175 605 b 217 563 208 585 217 575 l 217 521 "},"o":{"ha":590,"x_min":0,"x_max":0,"o":"m 285 1 b 175 25 242 1 206 9 b 99 90 144 41 119 62 b 53 184 78 117 63 148 b 36 297 43 220 37 257 b 103 524 33 394 56 470 b 308 604 150 577 219 604 b 490 539 386 604 447 582 b 556 339 534 495 556 429 b 540 214 556 296 550 255 b 490 106 529 173 513 137 b 406 30 468 74 440 49 b 285 1 372 11 332 1 m 203 261 b 204 228 203 255 203 244 b 214 183 205 213 208 198 b 239 142 219 167 228 154 b 288 125 250 131 266 125 b 344 147 310 125 329 132 b 384 200 360 161 373 179 b 407 269 395 221 402 244 b 414 336 412 293 414 316 b 388 425 414 378 405 407 b 319 451 370 443 347 451 b 259 433 294 451 274 445 b 224 388 244 421 232 406 b 207 326 215 369 210 349 b 203 261 204 304 203 282 "},"p":{"ha":668,"x_min":0,"x_max":0,"o":"m 232 590 b 234 558 233 580 234 569 b 236 522 234 547 235 535 b 293 544 257 531 276 538 b 340 562 310 551 325 557 b 385 573 355 567 370 571 b 432 576 400 575 415 576 b 583 522 494 576 544 558 b 640 360 621 486 640 432 b 622 245 640 321 634 283 b 571 144 610 208 593 174 b 490 73 549 115 522 91 b 385 46 459 55 424 46 b 315 54 366 46 343 49 b 228 88 286 60 257 71 b 222 -28 226 47 224 8 b 215 -123 219 -64 217 -96 b 210 -189 213 -150 212 -172 b 208 -217 209 -206 208 -215 b 194 -240 207 -225 203 -233 b 161 -258 185 -248 174 -254 b 121 -265 148 -263 135 -265 b 82 -252 107 -264 94 -260 b 52 -216 70 -244 60 -232 b 42 -149 44 -200 41 -177 b 49 -2 44 -95 46 -46 b 57 141 51 42 54 90 b 65 320 60 192 62 252 b 68 576 67 388 68 474 b 93 627 68 601 76 618 b 149 638 110 636 128 639 b 205 621 169 636 188 630 b 232 590 222 612 231 601 m 239 267 b 306 219 258 248 281 232 b 383 199 331 205 356 199 b 460 233 419 199 444 210 b 485 317 477 256 485 284 b 481 356 485 330 483 343 b 465 390 478 369 473 380 b 436 415 458 400 448 409 b 392 425 424 422 409 425 b 315 408 369 425 344 419 b 243 357 285 396 262 379 l 239 267 "},"q":{"ha":601,"x_min":0,"x_max":0,"o":"m 382 551 b 407 615 382 580 390 601 b 463 640 424 629 442 637 b 517 631 483 642 501 639 b 542 599 534 623 542 613 b 541 336 539 498 539 410 b 550 136 543 262 546 195 b 561 -28 554 77 557 22 b 567 -185 565 -79 567 -131 b 540 -249 567 -213 558 -235 b 483 -271 523 -262 504 -270 b 427 -256 463 -272 444 -267 b 404 -206 410 -244 402 -228 b 405 -169 405 -199 405 -187 b 403 -102 404 -151 404 -128 b 401 -12 403 -76 402 -46 b 397 92 399 21 398 56 b 331 52 373 69 351 56 b 285 46 310 48 295 46 b 169 74 240 46 202 55 b 90 146 137 92 110 116 b 44 248 69 175 53 209 b 29 364 34 286 29 325 b 214 576 29 506 91 576 b 299 564 241 576 269 572 b 383 519 328 556 356 541 b 382 539 382 527 382 533 l 382 551 m 388 364 b 325 410 370 384 349 400 b 257 425 301 420 278 425 b 212 415 238 425 223 422 b 183 390 200 409 191 400 b 168 356 176 380 171 369 b 164 317 165 343 164 330 b 189 233 164 284 172 256 b 275 199 206 210 234 199 b 334 208 294 199 313 202 b 393 239 355 215 375 225 l 388 364 "},"r":{"ha":489,"x_min":0,"x_max":0,"o":"m 218 553 b 269 586 234 567 251 578 b 324 599 287 594 305 599 b 367 592 337 599 351 596 b 416 568 384 587 400 579 b 462 524 432 557 447 542 b 497 456 476 505 488 482 b 492 397 505 434 503 415 b 449 355 481 378 466 365 b 398 342 432 345 415 341 b 367 372 381 344 370 354 b 336 444 359 408 349 432 b 294 461 323 455 309 461 b 252 450 281 461 266 457 b 215 418 238 443 225 432 b 214 338 214 389 214 363 l 214 260 l 214 174 l 214 69 b 189 15 214 47 206 29 b 134 -10 172 1 154 -7 b 78 1 114 -12 96 -9 b 51 57 61 12 52 30 b 51 173 50 99 50 137 b 58 283 53 209 55 245 b 63 404 60 320 62 361 b 61 556 65 448 64 498 b 85 606 60 577 68 594 b 140 628 101 619 120 626 b 194 619 159 631 178 628 b 218 576 211 611 219 597 l 218 553 "},"s":{"ha":499,"x_min":0,"x_max":0,"o":"m 92 188 b 144 149 108 169 126 156 b 200 138 163 141 181 138 b 281 161 231 138 258 145 b 314 213 303 177 314 194 b 293 242 314 226 307 236 b 240 255 279 247 262 252 b 172 265 219 258 196 262 b 103 286 147 269 124 276 b 49 332 81 296 63 312 b 26 418 34 352 26 381 b 42 503 25 451 31 480 b 88 559 54 526 69 545 b 151 592 107 573 128 584 b 221 606 175 599 198 604 b 294 603 249 608 273 608 b 348 585 315 599 333 593 b 387 556 363 576 376 567 b 413 521 397 544 406 533 b 420 477 421 505 423 491 b 402 444 417 464 411 453 b 369 431 393 436 382 431 b 333 446 356 430 344 435 b 291 469 324 454 310 462 b 235 481 272 477 253 481 b 197 471 220 481 207 477 b 179 438 187 464 181 453 b 199 394 178 418 185 403 b 255 370 214 384 232 376 b 329 354 278 364 302 359 b 403 333 356 350 381 342 b 461 292 426 323 445 309 b 485 219 477 274 485 250 b 462 134 485 189 477 160 b 400 66 447 108 426 85 b 312 22 374 47 345 32 b 210 7 279 11 245 6 b 101 30 173 8 136 16 b 17 100 65 44 37 68 b 0 154 5 119 -1 137 b 15 196 1 172 6 186 b 49 211 23 206 35 211 b 92 188 64 211 78 203 "},"t":{"ha":418,"x_min":0,"x_max":0,"o":"m 83 521 b 125 522 97 521 111 521 l 125 641 b 122 756 125 680 124 719 b 146 790 122 769 130 781 b 199 806 162 800 179 805 b 255 792 219 806 238 802 b 283 742 272 783 281 766 b 289 631 286 704 288 667 b 290 525 290 596 290 560 b 324 527 301 526 313 527 b 358 529 335 528 346 528 b 417 511 386 531 406 525 b 432 464 428 497 433 481 b 415 415 431 446 425 430 b 374 392 404 399 390 392 l 332 392 b 288 390 317 392 302 391 b 281 229 286 337 284 283 b 278 64 279 175 278 120 b 265 20 278 45 274 31 b 234 -2 257 9 247 2 b 193 -5 222 -6 208 -7 b 153 9 178 -3 165 2 b 123 35 141 16 131 25 b 113 69 115 45 112 56 b 115 115 113 80 114 95 b 118 186 116 134 117 158 b 121 278 119 214 120 245 b 124 386 122 312 123 348 b 81 385 109 385 94 385 b 40 388 67 386 53 387 b -5 410 17 388 2 396 b -11 455 -12 424 -14 439 b 9 500 -8 471 -2 486 b 42 521 20 514 31 521 "},"u":{"ha":614,"x_min":0,"x_max":0,"o":"m 392 60 b 392 71 392 63 392 66 b 393 88 393 75 393 81 b 301 23 365 58 334 36 b 203 3 267 9 234 3 b 101 40 158 3 125 15 b 53 149 78 65 62 101 b 44 322 45 196 41 254 b 56 557 46 391 50 469 b 85 607 57 579 67 596 b 143 623 103 618 123 623 b 198 601 163 622 182 615 b 221 539 214 588 222 567 b 208 380 217 481 213 428 b 201 254 204 331 201 289 b 212 172 200 219 204 191 b 256 142 220 152 234 142 b 304 158 272 142 288 147 b 347 199 320 168 334 182 b 381 252 360 215 372 233 b 403 306 391 271 398 289 b 403 419 404 342 404 380 b 400 540 403 459 402 500 b 411 572 400 550 404 561 b 440 601 419 583 428 593 b 480 619 452 609 466 615 b 519 619 494 623 507 623 b 550 594 531 616 542 607 b 563 536 558 581 563 562 b 564 426 563 505 563 468 b 565 299 565 385 565 342 b 563 173 565 256 564 214 b 553 65 561 132 557 96 b 522 11 549 43 539 25 b 467 -13 504 -3 486 -11 b 415 0 447 -16 430 -11 b 392 60 399 11 392 31 "},"v":{"ha":556,"x_min":0,"x_max":0,"o":"m 274 136 b 308 165 286 136 297 146 b 339 239 319 185 330 209 b 364 338 348 269 356 301 b 384 441 371 374 378 408 b 399 528 390 474 395 503 b 407 581 402 554 405 571 b 436 617 410 598 419 610 b 488 620 453 623 470 624 b 533 593 505 616 520 607 b 546 538 546 579 550 561 b 508 324 531 461 518 390 b 465 155 497 259 483 203 b 392 43 447 107 422 70 b 267 3 362 16 320 3 b 151 45 218 3 179 17 b 85 160 124 73 102 112 b 49 325 69 208 57 263 b 22 521 40 387 31 452 b 28 573 19 543 21 560 b 55 599 34 585 43 594 b 94 602 66 603 79 604 b 135 588 108 600 122 595 b 168 559 148 580 159 571 b 185 521 177 547 183 535 b 188 476 186 513 187 499 b 195 401 190 454 192 429 b 207 312 198 372 202 343 b 223 226 212 281 217 252 b 244 161 229 199 236 178 b 274 136 253 144 263 136 "},"w":{"ha":835,"x_min":0,"x_max":0,"o":"m 401 168 b 338 40 388 108 367 65 b 229 3 308 15 272 3 b 132 32 189 3 157 13 b 74 108 107 51 88 77 b 47 214 61 139 52 174 b 41 335 43 254 41 294 b 47 453 41 375 43 415 b 54 551 50 491 52 524 b 81 590 55 566 64 579 b 137 608 98 600 117 606 b 191 594 157 609 175 604 b 214 539 207 583 215 565 b 210 422 213 505 212 466 b 211 297 209 378 209 336 b 226 197 213 257 218 224 b 263 156 234 169 246 156 b 296 178 275 156 287 163 b 319 233 305 194 313 212 b 332 299 325 255 329 276 b 339 353 335 321 337 339 b 367 406 342 376 351 394 b 421 423 384 418 401 423 b 474 404 440 422 458 416 b 501 350 491 392 500 374 b 504 298 502 341 503 323 b 513 219 505 272 508 246 b 533 147 517 191 524 167 b 575 115 543 126 556 115 b 613 143 592 115 604 125 b 632 213 622 162 628 185 b 637 307 636 241 637 273 b 633 406 636 341 635 374 b 624 492 630 438 628 467 b 617 546 621 517 619 535 b 624 581 615 558 617 569 b 652 610 631 592 641 601 b 691 628 664 618 677 624 b 731 631 705 633 719 634 b 763 613 744 629 754 623 b 778 567 772 602 777 587 b 785 463 779 537 781 503 b 792 342 788 424 791 383 b 788 219 794 300 792 259 b 761 110 784 178 775 142 b 701 33 747 78 727 53 b 594 3 674 13 639 3 b 465 44 544 3 500 17 b 401 168 430 72 409 113 "},"x":{"ha":590,"x_min":0,"x_max":0,"o":"m 165 597 b 206 557 175 588 189 575 b 263 494 222 539 241 519 b 299 559 276 518 289 539 b 325 608 310 579 319 595 b 364 633 331 620 344 628 b 424 634 384 637 404 637 b 473 611 444 631 460 623 b 479 561 485 599 488 582 b 438 476 470 539 456 510 b 374 365 419 441 398 404 b 494 224 415 317 455 270 b 590 113 532 178 564 141 b 600 65 604 98 607 82 b 564 24 593 49 581 35 b 507 4 547 13 528 6 b 453 26 486 2 468 10 b 387 106 437 42 415 69 b 288 231 359 143 325 184 b 200 112 258 188 229 148 b 121 26 171 75 145 47 b 65 7 101 9 83 2 b 21 35 47 12 32 21 b 1 85 10 50 3 66 b 15 132 -2 104 3 120 b 86 223 33 150 56 181 b 179 360 116 265 147 311 b 113 432 158 384 136 408 b 44 500 91 456 68 479 b 28 547 31 513 25 529 b 52 595 31 566 39 582 b 103 619 66 609 82 617 b 165 597 123 622 144 615 "},"y":{"ha":558,"x_min":0,"x_max":0,"o":"m 93 -126 b 190 34 130 -71 162 -17 b 267 197 217 85 243 140 b 234 190 255 194 244 191 b 208 189 224 189 216 189 b 101 225 162 189 126 201 b 46 316 76 249 58 279 b 25 435 34 353 27 392 b 21 557 23 478 22 519 b 48 596 21 572 30 585 b 107 613 66 607 86 613 b 164 594 128 614 147 607 b 183 522 181 580 187 556 b 182 474 182 513 182 497 b 188 403 182 450 184 427 b 211 339 192 379 200 357 b 261 311 222 320 239 311 b 301 328 277 311 290 317 b 331 368 311 339 321 352 b 362 462 341 398 351 429 b 394 567 372 495 383 530 b 432 607 401 586 413 600 b 489 614 450 614 469 617 b 540 594 508 611 525 604 b 557 554 554 583 560 570 b 502 324 542 474 524 397 b 433 119 480 250 457 182 b 360 -56 409 55 385 -3 b 292 -199 335 -109 312 -157 b 242 -261 276 -229 259 -250 b 190 -275 224 -272 207 -277 b 142 -255 172 -273 156 -266 b 106 -214 127 -243 115 -230 b 88 -166 96 -198 90 -182 b 93 -126 85 -150 87 -137 "},"z":{"ha":592,"x_min":0,"x_max":0,"o":"m 542 174 b 581 154 560 175 573 169 b 591 104 589 139 592 123 b 576 51 590 86 584 68 b 542 21 567 34 556 24 b 371 0 502 13 445 6 b 119 0 297 -6 213 -6 b 14 44 69 4 33 18 b 17 153 -6 69 -5 106 b 69 238 31 182 48 211 b 136 317 91 266 113 292 b 205 389 159 342 182 366 b 263 456 228 412 247 434 b 231 456 254 456 244 456 b 190 458 219 457 205 457 b 142 460 174 458 159 459 b 97 464 126 461 111 462 b 60 492 81 466 69 475 b 49 545 52 508 48 526 b 67 596 50 564 56 581 b 121 617 78 611 96 618 b 307 612 183 615 245 613 b 490 626 369 610 430 615 b 527 615 502 629 515 625 b 553 574 540 604 548 590 b 552 519 559 557 558 539 b 506 465 546 499 531 481 b 364 353 465 440 418 403 b 188 139 310 304 251 232 b 278 144 211 139 241 141 b 389 156 315 148 352 152 b 488 167 426 160 459 164 b 542 174 516 171 534 173 "},"{":{"ha":421,"x_min":0,"x_max":0,"o":"m 204 789 b 350 726 271 789 319 768 b 364 677 361 710 366 693 b 348 637 362 661 357 647 b 316 618 339 626 328 620 b 282 633 303 616 292 621 b 256 663 273 644 264 653 b 222 678 247 673 236 678 b 195 671 214 678 205 675 b 182 642 185 666 181 656 b 200 601 182 627 188 613 b 240 561 212 588 225 575 b 278 515 254 547 267 532 b 296 457 290 499 296 479 b 285 406 296 438 292 421 b 260 363 277 390 269 376 b 235 331 250 351 242 340 b 224 311 227 321 224 315 b 235 294 224 306 228 301 b 261 268 243 287 252 278 b 287 231 270 258 279 246 b 299 182 295 217 299 200 b 282 121 299 160 293 139 b 244 70 271 102 258 85 b 207 28 231 55 218 41 b 190 -8 196 16 190 4 b 201 -34 190 -18 194 -26 b 226 -46 208 -42 216 -46 b 251 -37 236 -46 244 -43 b 274 -19 259 -32 266 -26 b 298 0 281 -12 289 -6 b 328 8 307 6 317 8 b 367 -8 344 8 357 3 b 383 -47 378 -18 383 -31 b 365 -88 383 -61 377 -75 b 319 -123 353 -102 338 -113 b 260 -147 301 -133 281 -141 b 200 -156 238 -153 219 -156 b 158 -150 186 -156 172 -154 b 119 -131 143 -146 130 -140 b 90 -97 107 -122 98 -111 b 79 -46 83 -83 79 -66 b 94 27 79 -21 84 3 b 128 92 105 51 116 72 b 163 146 141 112 152 130 b 178 183 173 162 178 174 b 169 206 178 190 175 197 b 149 235 163 215 156 225 b 129 272 142 246 136 258 b 118 317 123 285 119 300 b 124 366 116 336 118 353 b 144 402 130 379 137 391 b 165 430 152 413 159 422 b 175 454 172 438 175 446 b 160 485 175 463 170 474 b 128 526 151 496 140 509 b 94 583 116 542 104 561 b 76 663 83 604 77 631 b 86 728 75 689 79 711 b 116 766 94 744 103 757 b 158 784 128 775 142 781 b 204 789 173 787 188 789 "},"|":{"ha":265,"x_min":0,"x_max":0,"o":"m 100 708 b 118 764 100 736 106 755 b 158 772 130 773 143 776 b 196 744 172 767 185 758 b 210 696 207 731 212 714 b 199 588 206 665 203 629 b 190 456 196 547 193 503 b 183 313 188 409 185 362 b 178 172 180 265 179 217 b 178 43 178 126 178 83 b 183 -58 179 3 181 -31 b 175 -124 186 -89 183 -111 b 143 -145 167 -138 156 -145 b 105 -130 130 -146 117 -141 b 78 -87 92 -119 83 -105 b 72 -15 74 -77 72 -53 b 74 119 72 23 73 68 b 81 288 76 171 78 227 b 89 461 83 348 86 406 b 97 611 92 517 94 567 b 100 708 99 656 100 688 "},"}":{"ha":422,"x_min":0,"x_max":0,"o":"m 217 789 b 264 784 232 789 248 787 b 306 766 280 781 294 775 b 336 728 319 757 329 744 b 346 663 344 711 347 689 b 328 583 345 631 339 604 b 294 526 318 561 306 542 b 261 485 282 509 271 496 b 246 454 251 474 246 463 b 256 430 246 446 249 438 b 277 402 262 422 269 413 b 297 366 285 391 292 379 b 304 317 303 353 305 336 b 292 272 302 300 298 285 b 272 235 286 258 280 246 b 253 206 265 225 258 215 b 244 183 247 197 244 190 b 260 146 244 174 250 162 b 294 92 270 130 281 112 b 328 27 306 72 318 51 b 343 -46 338 3 343 -21 b 332 -97 343 -66 339 -83 b 303 -131 325 -111 315 -122 b 265 -150 292 -140 279 -146 b 222 -156 250 -154 236 -156 b 162 -147 204 -156 184 -153 b 102 -123 140 -141 120 -133 b 57 -88 84 -113 69 -102 b 39 -47 45 -75 39 -61 b 55 -8 39 -31 44 -18 b 93 8 66 3 78 8 b 123 0 104 8 114 6 b 148 -19 132 -6 140 -12 b 171 -37 156 -26 163 -32 b 196 -46 178 -43 187 -46 b 222 -34 206 -46 215 -42 b 232 -8 228 -26 232 -18 b 215 28 232 4 226 16 b 178 70 204 41 192 55 b 140 121 164 85 151 102 b 124 182 129 139 124 160 b 135 231 124 200 128 217 b 161 268 143 246 152 258 b 187 294 170 278 179 287 b 199 311 195 301 199 306 b 188 331 199 315 195 321 b 163 363 180 340 172 351 b 138 406 153 376 145 390 b 126 457 130 421 126 438 b 144 515 126 479 132 499 b 183 561 155 532 168 547 b 222 601 197 575 210 588 b 240 642 234 613 240 627 b 226 671 241 656 237 666 b 200 678 216 675 207 678 b 167 663 186 678 175 673 b 140 633 158 653 150 644 b 106 618 130 621 119 616 b 74 637 94 620 83 626 b 58 677 66 647 60 661 b 72 726 56 693 61 710 b 217 789 103 768 151 789 "},"~":{"ha":697,"x_min":0,"x_max":0,"o":"m 161 250 b 126 261 149 250 138 254 b 98 291 115 269 106 278 b 80 334 90 303 84 318 b 76 385 76 350 75 367 b 120 474 79 422 94 452 b 233 506 147 497 184 507 b 331 481 274 505 306 497 b 391 431 355 466 375 449 b 433 382 407 413 421 397 b 472 360 444 367 457 360 b 498 372 484 360 493 364 b 506 397 503 381 506 389 b 500 417 506 406 504 412 b 487 430 496 421 492 426 b 474 444 482 434 477 439 b 468 465 470 449 468 456 b 485 505 468 481 474 494 b 525 521 496 516 509 521 b 565 507 540 521 553 516 b 597 472 577 498 588 486 b 617 424 605 457 612 441 b 624 372 621 406 624 389 b 592 285 624 338 613 309 b 488 249 570 262 536 250 b 394 270 449 249 418 256 b 335 318 371 284 352 300 b 291 367 319 336 304 352 b 240 393 278 383 261 391 b 207 387 227 395 216 393 b 193 363 198 381 193 373 b 197 349 193 357 194 352 b 205 338 199 345 202 341 b 213 324 208 334 211 329 b 217 306 216 319 217 313 b 200 266 217 290 211 277 b 161 250 189 255 176 250 "}," ":{"ha":321,"x_min":0,"x_max":0,"o":""},"¡":{"ha":272,"x_min":0,"x_max":0,"o":"m 64 540 b 81 588 64 562 70 578 b 124 604 93 599 107 604 b 172 585 142 604 158 598 b 189 535 186 572 192 555 b 167 494 187 517 180 504 b 121 481 154 485 138 481 b 64 540 81 481 62 500 m 75 356 b 83 404 71 373 74 389 b 118 434 93 419 104 429 b 158 430 132 439 145 438 b 183 378 171 422 180 405 b 189 276 186 353 188 319 b 190 137 190 234 190 187 b 189 -19 190 86 190 34 b 188 -171 188 -73 188 -124 b 167 -222 188 -196 181 -213 b 123 -231 154 -230 139 -233 b 80 -208 107 -228 92 -220 b 64 -161 67 -195 62 -180 b 76 -3 69 -109 72 -57 b 82 147 79 50 81 100 b 82 272 83 193 83 235 b 75 356 81 308 79 336 "},"£":{"ha":693,"x_min":0,"x_max":0,"o":"m 301 133 b 364 135 318 133 339 134 b 440 139 389 136 414 137 b 510 147 465 141 489 143 b 558 158 532 150 548 154 b 626 168 587 171 610 175 b 658 135 643 162 653 151 b 653 84 662 120 660 103 b 615 38 647 65 634 50 b 545 11 600 26 576 18 b 449 -4 514 5 482 0 b 356 -11 415 -8 384 -10 b 294 -10 327 -12 306 -12 b 191 30 245 -5 211 8 b 158 129 171 52 160 85 b 153 244 156 170 155 208 b 149 347 152 281 150 315 l 100 347 b 65 360 84 347 73 351 b 52 388 58 368 53 378 b 58 419 51 399 53 409 b 82 442 63 430 71 437 b 106 445 87 444 94 445 b 147 447 117 446 131 446 b 153 616 146 513 148 569 b 183 730 159 663 168 701 b 242 794 197 759 217 780 b 342 814 268 807 301 814 b 475 787 394 814 438 805 b 544 724 512 769 535 748 b 541 688 548 713 547 702 b 515 656 535 675 526 664 b 475 644 503 647 490 644 b 432 675 460 645 446 656 b 401 700 422 689 411 697 b 382 704 390 703 384 704 b 347 683 369 704 357 697 b 322 627 337 669 328 651 b 304 547 315 603 309 577 b 293 451 300 516 296 485 b 394 453 329 452 363 453 b 458 457 425 454 446 455 b 492 447 472 460 484 456 b 508 415 501 438 506 427 b 499 381 509 403 506 392 b 461 361 492 369 480 363 b 383 355 439 358 413 356 b 289 351 353 353 321 352 b 291 224 288 305 289 263 b 301 133 293 185 297 155 "},"¨":{"ha":458,"x_min":0,"x_max":0,"o":"m 88 726 b 106 774 88 748 94 763 b 147 789 117 784 131 789 b 197 770 167 789 183 783 b 213 719 210 758 215 741 b 190 679 211 702 203 688 b 144 665 177 670 162 665 b 88 726 105 665 86 686 m 371 728 b 353 680 370 706 364 691 b 311 664 342 669 328 664 b 262 683 292 664 275 670 b 246 733 248 696 243 713 b 268 774 248 752 255 766 b 314 788 281 783 296 788 b 371 728 354 788 373 768 "},"«":{"ha":604,"x_min":0,"x_max":0,"o":"m 515 521 b 469 457 511 503 495 482 b 382 372 444 432 414 404 b 439 341 403 361 422 351 b 496 299 456 331 475 317 b 518 260 507 289 514 276 b 517 216 522 243 522 228 b 490 192 513 203 504 196 b 433 215 476 189 457 197 b 366 260 407 234 385 249 b 319 290 347 271 331 281 b 290 318 306 298 297 308 b 278 358 283 328 279 342 b 290 406 276 373 280 389 b 328 458 300 423 313 441 b 374 508 343 476 358 493 b 415 549 391 524 404 538 b 458 580 430 564 444 575 b 494 583 472 585 484 586 b 515 562 503 579 510 572 b 515 521 519 551 519 538 m 308 514 b 292 483 306 505 301 494 b 260 446 284 471 273 459 b 216 403 247 433 232 419 b 167 356 200 388 183 372 b 226 322 189 344 209 332 b 288 278 244 311 264 296 b 312 236 300 268 308 254 b 311 190 316 219 316 203 b 283 165 306 176 297 168 b 222 189 268 161 248 169 b 151 235 194 208 171 224 b 101 267 131 247 114 258 b 69 298 87 277 77 287 b 56 342 62 309 57 323 b 69 392 54 356 58 373 b 110 447 81 410 94 429 b 159 500 125 466 142 483 b 201 543 176 517 190 531 b 249 576 218 560 234 571 b 286 579 263 582 276 583 b 308 557 296 575 304 568 b 308 514 313 546 313 531 "},"­":{"ha":0,"x_min":0,"x_max":0,"o":""},"¯":{"ha":479,"x_min":0,"x_max":0,"o":"m 344 782 b 374 772 356 782 366 778 b 393 747 383 765 389 756 b 391 716 397 737 396 727 b 358 692 386 705 375 697 b 308 682 344 687 328 684 b 248 678 289 680 269 679 b 185 678 227 678 206 678 b 128 679 165 679 145 679 b 94 694 112 679 101 684 b 84 728 87 705 84 716 b 95 760 84 740 88 751 b 124 775 102 770 112 775 b 182 776 145 775 164 775 b 234 777 200 776 217 777 b 286 779 251 778 269 778 b 344 782 304 780 323 781 "},"´":{"ha":243,"x_min":0,"x_max":0,"o":"m 67 715 b 99 835 69 728 80 768 b 121 846 100 840 108 844 b 160 845 134 848 147 847 b 194 831 174 843 185 838 b 200 797 204 823 206 812 b 170 742 192 778 182 759 b 129 675 159 724 145 702 b 113 668 126 671 121 669 b 88 671 104 667 96 668 b 67 686 79 674 72 679 b 67 715 62 694 62 703 "},"·":{"ha":264,"x_min":0,"x_max":0,"o":"m 194 464 b 176 416 194 443 188 427 b 135 400 165 405 151 400 b 85 419 115 400 99 406 b 69 469 72 432 67 449 b 92 510 71 488 79 502 b 138 524 105 519 120 524 b 194 464 177 524 196 504 "},"¸":{"ha":400,"x_min":0,"x_max":0,"o":"m 206 -301 b 116 -285 175 -303 145 -298 b 57 -221 87 -273 67 -251 b 56 -175 51 -203 51 -188 b 77 -146 60 -162 67 -152 b 108 -137 87 -139 97 -137 b 136 -154 119 -138 129 -144 b 149 -179 142 -162 146 -171 b 158 -201 153 -187 156 -195 b 169 -215 161 -207 165 -212 b 189 -221 173 -219 180 -221 b 224 -205 205 -221 216 -216 b 235 -168 231 -194 235 -182 b 220 -131 235 -150 230 -138 b 189 -113 210 -124 200 -118 b 158 -94 178 -108 167 -102 b 143 -51 148 -86 143 -72 b 148 -22 143 -43 145 -33 b 156 6 151 -11 154 -2 b 172 27 157 16 163 23 b 201 33 181 31 191 33 b 225 23 210 32 219 29 b 231 -3 231 17 233 8 b 226 -20 230 -6 228 -11 b 221 -39 225 -29 223 -35 b 258 -53 231 -41 244 -45 b 301 -82 273 -60 288 -70 b 335 -126 315 -94 327 -109 b 347 -183 344 -143 348 -162 b 334 -231 346 -201 342 -217 b 303 -267 326 -246 316 -258 b 258 -291 290 -277 275 -285 b 206 -301 242 -297 224 -300 "},"»":{"ha":606,"x_min":0,"x_max":0,"o":"m 297 233 b 313 265 299 243 304 253 b 346 301 322 276 333 288 b 390 343 359 314 373 328 b 439 390 406 358 422 374 b 379 426 417 403 397 415 b 318 469 362 436 341 451 b 294 510 306 479 298 492 b 294 558 290 528 290 544 b 323 583 299 571 309 579 b 383 558 337 586 357 578 b 455 510 411 538 435 522 b 505 478 475 499 491 488 b 536 448 518 469 529 459 b 550 406 544 437 548 423 b 535 355 551 390 546 373 b 495 300 525 337 511 319 b 445 247 479 281 462 264 b 403 204 428 231 414 216 b 357 171 387 188 372 176 b 319 168 342 165 330 164 b 297 190 309 172 302 179 b 297 233 293 201 293 216 m 90 226 b 136 290 95 244 110 265 b 224 375 162 315 191 344 b 167 406 202 386 183 397 b 110 449 150 416 131 430 b 87 488 99 458 91 471 b 88 531 83 504 83 519 b 115 554 92 544 101 551 b 172 532 128 557 147 550 b 240 488 198 513 221 499 b 287 458 259 476 274 466 b 315 429 299 449 309 439 b 328 389 322 419 326 406 b 314 340 329 374 324 358 b 276 288 304 323 291 305 b 231 239 262 271 246 255 l 190 199 b 146 167 175 183 160 172 b 110 165 132 162 120 161 b 90 185 101 168 94 175 b 90 226 85 196 86 210 "},"¿":{"ha":488,"x_min":0,"x_max":0,"o":"m 344 547 b 326 499 344 526 337 510 b 283 483 314 489 300 483 b 235 503 265 483 249 490 b 218 553 222 516 216 532 b 241 593 220 570 228 584 b 286 607 254 602 269 607 b 344 547 325 607 344 587 m 38 -22 b 66 99 39 19 49 60 b 123 208 83 138 102 174 b 181 302 144 243 163 274 b 215 376 199 330 211 355 b 242 435 221 405 230 425 b 280 448 255 446 267 450 b 313 425 292 446 303 438 b 326 376 322 412 326 396 b 301 261 326 341 318 303 b 247 138 285 219 266 178 b 192 22 227 97 208 58 b 167 -69 175 -15 167 -45 b 174 -99 167 -80 169 -90 b 207 -114 178 -109 189 -114 b 253 -98 224 -114 239 -109 b 290 -59 267 -87 279 -74 b 314 -9 300 -44 308 -27 b 322 40 319 9 322 25 b 340 112 322 71 328 95 b 381 140 352 129 366 138 b 422 119 395 142 409 135 b 444 40 435 103 443 76 b 427 -53 445 10 440 -21 b 376 -138 415 -84 398 -113 b 301 -201 355 -164 330 -184 b 208 -225 272 -217 241 -225 b 141 -211 184 -225 162 -220 b 85 -171 120 -202 102 -188 b 48 -107 69 -153 57 -132 b 38 -22 39 -82 36 -54 "},"À":{"ha":714,"x_min":0,"x_max":0,"o":"m 422 969 b 421 940 427 957 426 947 b 398 923 415 932 408 926 b 367 919 388 920 378 919 b 346 929 357 920 350 924 b 328 953 338 938 333 947 b 316 976 324 960 320 968 b 303 1006 312 985 307 995 b 286 1051 298 1018 293 1033 b 297 1074 284 1057 288 1065 b 328 1099 305 1084 316 1092 b 365 1108 341 1105 353 1108 b 390 1088 377 1108 386 1101 b 399 1056 394 1075 397 1065 b 406 1029 402 1046 404 1038 b 412 1003 407 1021 409 1012 b 422 969 414 994 418 982 m 199 67 b 185 31 199 54 194 42 b 150 5 175 21 164 12 b 106 -8 136 -2 121 -6 b 63 -3 90 -10 76 -9 b 34 25 51 2 41 11 b 29 82 27 39 25 58 b 50 206 34 113 41 154 b 85 372 59 257 71 313 b 135 552 99 431 115 491 b 201 717 154 613 176 668 b 283 837 225 766 253 806 b 385 883 314 868 348 883 b 488 838 424 883 458 868 b 563 721 517 808 542 769 b 616 560 584 673 602 619 b 651 385 630 502 642 443 b 673 224 661 328 668 274 b 686 107 678 175 682 136 b 679 53 688 88 686 70 b 653 14 673 37 664 24 b 615 -7 642 4 629 -3 b 576 -3 601 -11 588 -9 b 542 31 563 3 552 14 b 524 100 533 47 526 70 b 514 184 522 122 519 150 b 496 294 509 218 503 255 b 391 293 463 293 428 292 b 290 294 354 294 321 294 l 263 294 b 229 296 251 294 240 295 b 207 160 220 247 213 202 b 199 67 201 119 199 88 m 254 422 b 313 419 273 421 292 420 b 361 418 333 419 349 418 b 411 419 374 418 391 419 b 474 424 431 420 452 422 b 450 537 466 463 458 500 b 426 634 442 573 434 606 b 404 701 419 662 412 685 b 385 726 397 718 390 726 b 351 701 374 726 362 718 b 317 634 339 685 328 662 b 284 537 306 606 295 573 b 254 422 273 500 263 462 "},"Á":{"ha":714,"x_min":0,"x_max":0,"o":"m 361 969 b 372 1008 363 975 366 988 b 394 1088 377 1028 384 1054 b 415 1099 395 1093 402 1097 b 456 1099 428 1102 442 1102 b 490 1084 469 1097 481 1092 b 494 1051 498 1076 500 1065 b 466 996 487 1032 478 1013 b 425 929 454 978 441 956 b 408 922 422 925 417 923 b 383 925 400 921 392 922 b 363 940 375 928 368 933 b 361 969 358 948 357 957 m 199 67 b 185 31 199 54 194 42 b 150 5 175 21 164 12 b 106 -8 136 -2 121 -6 b 63 -3 90 -10 76 -9 b 34 25 51 2 41 11 b 29 82 27 39 25 58 b 50 206 34 113 41 154 b 85 372 59 257 71 313 b 135 552 99 431 115 491 b 201 717 154 613 176 668 b 283 837 225 766 253 806 b 385 883 314 868 348 883 b 488 838 424 883 458 868 b 563 721 517 808 542 769 b 616 560 584 673 602 619 b 651 385 630 502 642 443 b 673 224 661 328 668 274 b 686 107 678 175 682 136 b 679 53 688 88 686 70 b 653 14 673 37 664 24 b 615 -7 642 4 629 -3 b 576 -3 601 -11 588 -9 b 542 31 563 3 552 14 b 524 100 533 47 526 70 b 514 184 522 122 519 150 b 496 294 509 218 503 255 b 391 293 463 293 428 292 b 290 294 354 294 321 294 l 263 294 b 229 296 251 294 240 295 b 207 160 220 247 213 202 b 199 67 201 119 199 88 m 254 422 b 313 419 273 421 292 420 b 361 418 333 419 349 418 b 411 419 374 418 391 419 b 474 424 431 420 452 422 b 450 537 466 463 458 500 b 426 634 442 573 434 606 b 404 701 419 662 412 685 b 385 726 397 718 390 726 b 351 701 374 726 362 718 b 317 634 339 685 328 662 b 284 537 306 606 295 573 b 254 422 273 500 263 462 "},"Â":{"ha":714,"x_min":0,"x_max":0,"o":"m 339 924 b 314 913 333 917 325 913 b 284 917 303 912 293 913 b 265 935 275 920 269 927 b 274 969 262 944 264 956 b 313 1027 288 989 300 1008 b 349 1079 325 1046 337 1063 b 394 1110 364 1101 380 1112 b 431 1088 409 1108 421 1100 b 469 1035 444 1068 457 1050 b 504 988 480 1019 492 1003 b 519 950 515 974 520 961 b 506 923 517 939 513 930 b 481 911 499 916 491 912 b 458 921 472 910 464 913 b 418 963 444 938 430 952 b 389 1000 406 975 396 987 b 369 965 381 989 375 977 b 339 924 363 953 353 939 m 199 67 b 185 31 199 54 194 42 b 150 5 175 21 164 12 b 106 -8 136 -2 121 -6 b 63 -3 90 -10 76 -9 b 34 25 51 2 41 11 b 29 82 27 39 25 58 b 50 206 34 113 41 154 b 85 372 59 257 71 313 b 135 552 99 431 115 491 b 201 717 154 613 176 668 b 283 837 225 766 253 806 b 385 883 314 868 348 883 b 488 838 424 883 458 868 b 563 721 517 808 542 769 b 616 560 584 673 602 619 b 651 385 630 502 642 443 b 673 224 661 328 668 274 b 686 107 678 175 682 136 b 679 53 688 88 686 70 b 653 14 673 37 664 24 b 615 -7 642 4 629 -3 b 576 -3 601 -11 588 -9 b 542 31 563 3 552 14 b 524 100 533 47 526 70 b 514 184 522 122 519 150 b 496 294 509 218 503 255 b 391 293 463 293 428 292 b 290 294 354 294 321 294 l 263 294 b 229 296 251 294 240 295 b 207 160 220 247 213 202 b 199 67 201 119 199 88 m 254 422 b 313 419 273 421 292 420 b 361 418 333 419 349 418 b 411 419 374 418 391 419 b 474 424 431 420 452 422 b 450 537 466 463 458 500 b 426 634 442 573 434 606 b 404 701 419 662 412 685 b 385 726 397 718 390 726 b 351 701 374 726 362 718 b 317 634 339 685 328 662 b 284 537 306 606 295 573 b 254 422 273 500 263 462 "},"Ã":{"ha":714,"x_min":0,"x_max":0,"o":"m 243 953 b 249 989 243 965 245 977 b 267 1022 253 1001 259 1012 b 295 1044 274 1031 284 1039 b 336 1051 307 1050 320 1052 b 369 1042 348 1050 359 1047 b 397 1026 380 1037 389 1032 b 419 1012 406 1021 413 1016 b 435 1006 425 1008 430 1006 b 448 1018 441 1006 446 1010 b 453 1040 450 1026 452 1034 b 465 1064 454 1050 458 1057 b 491 1075 473 1070 481 1074 b 518 1068 501 1076 510 1074 b 533 1039 526 1063 531 1053 b 517 966 537 1013 531 989 b 447 931 502 943 479 931 b 410 935 433 930 421 931 b 380 949 399 940 389 944 b 358 963 371 954 364 959 b 343 969 352 967 347 969 b 332 963 340 969 337 967 b 322 938 327 958 324 950 b 308 920 321 930 317 924 b 281 915 300 916 291 914 b 255 926 272 916 263 920 b 243 953 247 932 243 941 m 199 67 b 185 31 199 54 194 42 b 150 5 175 21 164 12 b 106 -8 136 -2 121 -6 b 63 -3 90 -10 76 -9 b 34 25 51 2 41 11 b 29 82 27 39 25 58 b 50 206 34 113 41 154 b 85 372 59 257 71 313 b 135 552 99 431 115 491 b 201 717 154 613 176 668 b 283 837 225 766 253 806 b 385 883 314 868 348 883 b 488 838 424 883 458 868 b 563 721 517 808 542 769 b 616 560 584 673 602 619 b 651 385 630 502 642 443 b 673 224 661 328 668 274 b 686 107 678 175 682 136 b 679 53 688 88 686 70 b 653 14 673 37 664 24 b 615 -7 642 4 629 -3 b 576 -3 601 -11 588 -9 b 542 31 563 3 552 14 b 524 100 533 47 526 70 b 514 184 522 122 519 150 b 496 294 509 218 503 255 b 391 293 463 293 428 292 b 290 294 354 294 321 294 l 263 294 b 229 296 251 294 240 295 b 207 160 220 247 213 202 b 199 67 201 119 199 88 m 254 422 b 313 419 273 421 292 420 b 361 418 333 419 349 418 b 411 419 374 418 391 419 b 474 424 431 420 452 422 b 450 537 466 463 458 500 b 426 634 442 573 434 606 b 404 701 419 662 412 685 b 385 726 397 718 390 726 b 351 701 374 726 362 718 b 317 634 339 685 328 662 b 284 537 306 606 295 573 b 254 422 273 500 263 462 "},"Ä":{"ha":714,"x_min":0,"x_max":0,"o":"m 246 981 b 265 1028 247 1002 253 1018 b 307 1043 276 1038 290 1043 b 356 1024 325 1043 342 1037 b 372 975 369 1012 375 995 b 350 933 370 956 363 943 b 304 919 337 924 322 919 b 261 936 286 919 271 925 b 246 981 251 947 246 962 m 531 982 b 512 935 530 961 523 945 b 469 919 500 925 486 919 b 422 938 451 919 435 926 b 404 989 408 951 402 968 b 428 1029 407 1006 415 1020 b 472 1043 441 1038 456 1043 b 531 982 511 1043 531 1023 m 199 67 b 185 31 199 54 194 42 b 150 5 175 21 164 12 b 106 -8 136 -2 121 -6 b 63 -3 90 -10 76 -9 b 34 25 51 2 41 11 b 29 82 27 39 25 58 b 50 206 34 113 41 154 b 85 372 59 257 71 313 b 135 552 99 431 115 491 b 201 717 154 613 176 668 b 283 837 225 766 253 806 b 385 883 314 868 348 883 b 488 838 424 883 458 868 b 563 721 517 808 542 769 b 616 560 584 673 602 619 b 651 385 630 502 642 443 b 673 224 661 328 668 274 b 686 107 678 175 682 136 b 679 53 688 88 686 70 b 653 14 673 37 664 24 b 615 -7 642 4 629 -3 b 576 -3 601 -11 588 -9 b 542 31 563 3 552 14 b 524 100 533 47 526 70 b 514 184 522 122 519 150 b 496 294 509 218 503 255 b 391 293 463 293 428 292 b 290 294 354 294 321 294 l 263 294 b 229 296 251 294 240 295 b 207 160 220 247 213 202 b 199 67 201 119 199 88 m 254 422 b 313 419 273 421 292 420 b 361 418 333 419 349 418 b 411 419 374 418 391 419 b 474 424 431 420 452 422 b 450 537 466 463 458 500 b 426 634 442 573 434 606 b 404 701 419 662 412 685 b 385 726 397 718 390 726 b 351 701 374 726 362 718 b 317 634 339 685 328 662 b 284 537 306 606 295 573 b 254 422 273 500 263 462 "},"Å":{"ha":714,"x_min":0,"x_max":0,"o":"m 389 921 b 321 948 362 921 339 930 b 289 1021 302 966 292 990 b 295 1073 287 1041 289 1059 b 321 1108 301 1087 310 1099 b 360 1128 332 1118 345 1124 b 407 1135 376 1133 391 1135 b 476 1115 434 1135 457 1128 b 506 1047 496 1102 506 1080 b 497 1000 506 1031 503 1015 b 473 960 492 985 484 972 b 435 931 462 948 450 938 b 389 921 421 924 406 921 m 392 1068 b 374 1061 386 1068 380 1066 b 367 1036 368 1056 366 1048 b 374 1004 367 1026 369 1015 b 396 988 379 993 387 988 b 417 1001 405 988 412 992 b 424 1031 421 1011 424 1020 b 413 1058 424 1043 420 1052 b 392 1068 406 1065 399 1068 m 199 67 b 185 31 199 54 194 42 b 150 5 175 21 164 12 b 106 -8 136 -2 121 -6 b 63 -3 90 -10 76 -9 b 34 25 51 2 41 11 b 29 82 27 39 25 58 b 50 206 34 113 41 154 b 85 372 59 257 71 313 b 135 552 99 431 115 491 b 201 717 154 613 176 668 b 283 837 225 766 253 806 b 385 883 314 868 348 883 b 488 838 424 883 458 868 b 563 721 517 808 542 769 b 616 560 584 673 602 619 b 651 385 630 502 642 443 b 673 224 661 328 668 274 b 686 107 678 175 682 136 b 679 53 688 88 686 70 b 653 14 673 37 664 24 b 615 -7 642 4 629 -3 b 576 -3 601 -11 588 -9 b 542 31 563 3 552 14 b 524 100 533 47 526 70 b 514 184 522 122 519 150 b 496 294 509 218 503 255 b 391 293 463 293 428 292 b 290 294 354 294 321 294 l 263 294 b 229 296 251 294 240 295 b 207 160 220 247 213 202 b 199 67 201 119 199 88 m 254 422 b 313 419 273 421 292 420 b 361 418 333 419 349 418 b 411 419 374 418 391 419 b 474 424 431 420 452 422 b 450 537 466 463 458 500 b 426 634 442 573 434 606 b 404 701 419 662 412 685 b 385 726 397 718 390 726 b 351 701 374 726 362 718 b 317 634 339 685 328 662 b 284 537 306 606 295 573 b 254 422 273 500 263 462 "},"Æ":{"ha":1008,"x_min":0,"x_max":0,"o":"m 658 701 b 646 603 655 674 650 641 b 633 478 641 566 637 524 b 688 481 650 479 668 480 b 747 485 707 481 727 483 b 804 491 766 487 786 489 b 856 499 823 493 840 496 b 913 492 880 502 899 500 b 942 459 928 483 937 472 b 943 419 947 446 948 432 b 915 389 938 405 929 395 b 844 367 895 380 871 372 b 764 357 818 362 791 359 b 687 353 737 355 711 354 b 626 351 662 353 642 352 b 625 258 625 322 624 291 b 629 158 626 226 627 193 b 695 153 649 156 671 154 b 769 153 720 152 744 152 b 844 156 794 154 819 155 b 910 160 868 156 890 158 b 982 144 940 162 964 156 b 1017 101 1000 132 1011 118 b 1018 53 1023 85 1024 69 b 988 21 1013 37 1002 26 b 906 8 968 14 941 10 b 797 3 870 5 834 4 b 694 4 760 3 726 3 b 629 6 663 5 641 6 b 570 12 608 6 588 8 b 523 34 552 16 536 23 b 490 78 509 45 499 59 b 475 149 482 96 477 120 b 471 293 472 191 471 239 b 378 293 440 292 409 292 b 290 294 346 294 317 294 l 266 294 b 236 296 256 294 246 295 b 208 161 223 247 214 202 b 199 67 202 120 199 89 b 185 31 199 54 194 42 b 150 5 175 21 164 12 b 106 -8 136 -2 121 -6 b 63 -3 90 -10 76 -9 b 34 25 51 2 41 11 b 29 82 27 39 25 58 b 50 203 34 113 41 153 b 90 364 59 253 72 306 b 156 537 107 421 129 479 b 256 694 182 595 216 647 b 399 808 297 741 344 779 b 593 853 454 838 519 853 b 617 856 601 855 609 856 l 640 856 b 781 853 685 856 731 855 b 921 858 830 851 876 853 b 979 842 948 861 967 856 b 997 794 991 829 997 813 b 978 739 996 775 990 756 b 926 707 966 721 949 711 b 867 700 910 704 890 702 b 795 697 844 698 820 697 b 722 697 771 696 746 696 b 658 701 698 698 677 700 m 278 421 b 324 419 294 420 309 419 b 361 418 338 418 351 418 b 410 419 374 418 391 419 b 472 424 430 420 451 422 b 477 558 474 470 476 515 b 482 672 478 601 480 639 b 361 570 435 650 394 616 b 278 421 328 524 300 475 "},"Ç":{"ha":625,"x_min":0,"x_max":0,"o":"m 318 -301 b 228 -285 288 -303 258 -298 b 169 -221 199 -273 180 -251 b 168 -175 164 -203 163 -188 b 190 -146 173 -162 180 -152 b 221 -137 199 -139 210 -137 b 249 -154 232 -138 241 -144 b 261 -179 254 -162 258 -171 b 269 -201 264 -187 267 -195 b 281 -215 272 -207 276 -212 b 300 -221 285 -219 292 -221 b 335 -205 316 -221 328 -216 b 347 -168 343 -194 347 -182 b 333 -131 347 -150 342 -138 b 301 -113 323 -124 313 -118 b 270 -94 290 -108 280 -102 b 256 -51 260 -86 256 -72 b 260 -22 256 -43 257 -33 b 268 7 264 -11 266 -1 b 81 154 180 24 118 73 b 35 478 45 236 29 344 b 58 660 38 551 45 612 b 113 776 71 708 90 747 b 201 838 137 805 166 825 b 322 856 235 850 276 856 b 502 813 399 856 459 841 b 596 689 545 785 576 744 b 604 629 604 665 607 645 b 585 592 601 613 595 601 b 550 575 576 584 564 578 b 509 575 536 572 522 572 b 474 590 496 578 484 583 b 454 618 463 598 457 607 b 415 710 442 663 429 694 b 363 733 400 725 383 733 b 292 702 337 733 313 723 b 239 623 272 681 254 655 b 206 517 224 591 213 556 b 194 404 198 478 194 440 b 202 318 194 378 197 350 b 227 229 207 287 216 257 b 275 160 239 201 255 178 b 351 132 295 141 321 132 b 405 143 370 132 388 136 b 451 171 422 150 437 160 b 485 208 464 182 475 194 b 503 249 494 222 500 236 b 517 272 505 257 509 265 b 544 288 525 278 534 284 b 574 294 553 292 564 294 b 601 284 585 293 594 290 b 617 256 609 278 614 269 b 613 203 619 243 618 225 b 526 59 598 144 569 97 b 344 0 483 22 422 2 b 340 -20 343 -6 341 -13 b 333 -39 338 -27 336 -33 b 371 -53 344 -41 356 -45 b 414 -82 386 -60 400 -70 b 448 -126 428 -94 439 -109 b 460 -183 457 -143 461 -162 b 447 -231 459 -201 454 -217 b 415 -267 439 -246 428 -258 b 371 -291 402 -277 388 -285 b 318 -301 354 -297 337 -300 "},"È":{"ha":586,"x_min":0,"x_max":0,"o":"m 365 951 b 364 922 370 939 369 930 b 341 906 358 915 351 909 b 310 903 331 903 321 902 b 289 913 300 904 293 907 b 272 937 281 922 276 930 b 259 960 267 944 263 951 b 246 990 255 968 250 978 b 229 1035 241 1001 236 1016 b 240 1058 227 1040 231 1048 b 272 1082 248 1067 259 1075 b 308 1092 284 1088 296 1092 b 333 1071 320 1092 329 1085 b 342 1038 337 1058 340 1047 b 349 1013 345 1029 347 1021 b 355 985 350 1004 353 995 b 365 951 357 976 361 964 m 236 701 b 224 603 232 674 228 641 b 210 478 219 566 214 524 b 324 485 244 480 282 482 b 433 499 366 489 403 493 b 491 492 457 502 477 500 b 520 459 505 483 515 472 b 521 419 525 446 525 432 b 493 389 516 405 507 395 b 422 367 473 380 449 372 b 341 357 395 362 368 359 b 264 353 314 355 288 354 b 204 351 240 353 220 352 b 203 258 202 322 202 291 b 207 158 204 226 205 193 b 273 153 226 156 248 154 b 347 153 297 152 322 152 b 422 156 372 154 397 155 b 488 160 446 156 468 158 b 560 144 518 162 542 156 b 595 101 577 132 589 118 b 596 53 601 85 601 69 b 565 21 590 37 580 26 b 483 8 546 14 519 10 b 375 3 448 5 412 4 b 272 4 338 3 304 3 b 207 6 241 5 219 6 b 148 12 186 6 166 8 b 101 34 130 16 114 23 b 68 78 87 45 76 59 b 53 149 60 96 55 120 b 49 311 50 197 49 251 b 52 489 49 371 50 431 b 59 651 54 547 57 601 b 65 768 61 701 63 740 b 82 810 66 785 72 799 b 119 837 92 821 105 830 b 168 851 134 844 150 849 b 218 856 186 854 202 856 b 358 853 263 856 309 855 b 499 858 407 851 454 853 b 557 842 525 861 545 856 b 574 794 569 829 575 813 b 554 739 573 775 566 756 b 504 707 542 721 525 711 b 444 700 488 704 468 702 b 373 697 421 698 397 697 b 300 697 348 696 324 696 b 236 701 276 698 255 700 "},"É":{"ha":586,"x_min":0,"x_max":0,"o":"m 304 951 b 315 991 306 958 309 971 b 338 1071 320 1011 327 1038 b 358 1083 338 1076 345 1080 b 399 1083 371 1085 385 1085 b 433 1067 413 1080 424 1075 b 438 1035 441 1059 443 1049 b 409 978 430 1014 421 996 b 368 913 397 961 384 939 b 351 906 365 909 360 906 b 326 908 343 905 335 906 b 306 923 318 911 311 916 b 304 951 301 930 300 939 m 236 701 b 224 603 232 674 228 641 b 210 478 219 566 214 524 b 324 485 244 480 282 482 b 433 499 366 489 403 493 b 491 492 457 502 477 500 b 520 459 505 483 515 472 b 521 419 525 446 525 432 b 493 389 516 405 507 395 b 422 367 473 380 449 372 b 341 357 395 362 368 359 b 264 353 314 355 288 354 b 204 351 240 353 220 352 b 203 258 202 322 202 291 b 207 158 204 226 205 193 b 273 153 226 156 248 154 b 347 153 297 152 322 152 b 422 156 372 154 397 155 b 488 160 446 156 468 158 b 560 144 518 162 542 156 b 595 101 577 132 589 118 b 596 53 601 85 601 69 b 565 21 590 37 580 26 b 483 8 546 14 519 10 b 375 3 448 5 412 4 b 272 4 338 3 304 3 b 207 6 241 5 219 6 b 148 12 186 6 166 8 b 101 34 130 16 114 23 b 68 78 87 45 76 59 b 53 149 60 96 55 120 b 49 311 50 197 49 251 b 52 489 49 371 50 431 b 59 651 54 547 57 601 b 65 768 61 701 63 740 b 82 810 66 785 72 799 b 119 837 92 821 105 830 b 168 851 134 844 150 849 b 218 856 186 854 202 856 b 358 853 263 856 309 855 b 499 858 407 851 454 853 b 557 842 525 861 545 856 b 574 794 569 829 575 813 b 554 739 573 775 566 756 b 504 707 542 721 525 711 b 444 700 488 704 468 702 b 373 697 421 698 397 697 b 300 697 348 696 324 696 b 236 701 276 698 255 700 "},"Ê":{"ha":586,"x_min":0,"x_max":0,"o":"m 282 906 b 257 894 276 899 268 895 b 227 899 246 894 236 895 b 208 919 218 903 212 910 b 217 951 205 928 207 938 b 256 1010 231 972 244 991 b 292 1063 268 1028 280 1046 b 338 1092 307 1085 323 1095 b 374 1069 352 1090 364 1082 b 412 1017 388 1050 400 1032 b 447 969 423 1001 435 985 b 462 932 458 956 463 943 b 449 906 460 921 456 912 b 424 894 442 899 434 895 b 401 904 415 894 407 897 b 361 946 387 921 373 935 b 332 983 349 957 339 969 b 312 947 325 971 318 959 b 282 906 306 935 296 921 m 236 701 b 224 603 232 674 228 641 b 210 478 219 566 214 524 b 324 485 244 480 282 482 b 433 499 366 489 403 493 b 491 492 457 502 477 500 b 520 459 505 483 515 472 b 521 419 525 446 525 432 b 493 389 516 405 507 395 b 422 367 473 380 449 372 b 341 357 395 362 368 359 b 264 353 314 355 288 354 b 204 351 240 353 220 352 b 203 258 202 322 202 291 b 207 158 204 226 205 193 b 273 153 226 156 248 154 b 347 153 297 152 322 152 b 422 156 372 154 397 155 b 488 160 446 156 468 158 b 560 144 518 162 542 156 b 595 101 577 132 589 118 b 596 53 601 85 601 69 b 565 21 590 37 580 26 b 483 8 546 14 519 10 b 375 3 448 5 412 4 b 272 4 338 3 304 3 b 207 6 241 5 219 6 b 148 12 186 6 166 8 b 101 34 130 16 114 23 b 68 78 87 45 76 59 b 53 149 60 96 55 120 b 49 311 50 197 49 251 b 52 489 49 371 50 431 b 59 651 54 547 57 601 b 65 768 61 701 63 740 b 82 810 66 785 72 799 b 119 837 92 821 105 830 b 168 851 134 844 150 849 b 218 856 186 854 202 856 b 358 853 263 856 309 855 b 499 858 407 851 454 853 b 557 842 525 861 545 856 b 574 794 569 829 575 813 b 554 739 573 775 566 756 b 504 707 542 721 525 711 b 444 700 488 704 468 702 b 373 697 421 698 397 697 b 300 697 348 696 324 696 b 236 701 276 698 255 700 "},"Ë":{"ha":586,"x_min":0,"x_max":0,"o":"m 189 964 b 208 1011 190 985 196 1001 b 250 1026 219 1021 233 1026 b 299 1008 269 1026 285 1020 b 315 957 313 995 318 978 b 293 917 313 939 306 926 b 247 903 280 907 265 903 b 189 964 208 903 189 923 m 474 965 b 455 918 473 944 466 928 b 413 903 443 908 429 903 b 365 922 394 903 378 909 b 347 971 351 934 345 950 b 371 1013 350 989 358 1003 b 415 1026 384 1022 399 1026 b 474 965 454 1026 474 1006 m 236 701 b 224 603 232 674 228 641 b 210 478 219 566 214 524 b 324 485 244 480 282 482 b 433 499 366 489 403 493 b 491 492 457 502 477 500 b 520 459 505 483 515 472 b 521 419 525 446 525 432 b 493 389 516 405 507 395 b 422 367 473 380 449 372 b 341 357 395 362 368 359 b 264 353 314 355 288 354 b 204 351 240 353 220 352 b 203 258 202 322 202 291 b 207 158 204 226 205 193 b 273 153 226 156 248 154 b 347 153 297 152 322 152 b 422 156 372 154 397 155 b 488 160 446 156 468 158 b 560 144 518 162 542 156 b 595 101 577 132 589 118 b 596 53 601 85 601 69 b 565 21 590 37 580 26 b 483 8 546 14 519 10 b 375 3 448 5 412 4 b 272 4 338 3 304 3 b 207 6 241 5 219 6 b 148 12 186 6 166 8 b 101 34 130 16 114 23 b 68 78 87 45 76 59 b 53 149 60 96 55 120 b 49 311 50 197 49 251 b 52 489 49 371 50 431 b 59 651 54 547 57 601 b 65 768 61 701 63 740 b 82 810 66 785 72 799 b 119 837 92 821 105 830 b 168 851 134 844 150 849 b 218 856 186 854 202 856 b 358 853 263 856 309 855 b 499 858 407 851 454 853 b 557 842 525 861 545 856 b 574 794 569 829 575 813 b 554 739 573 775 566 756 b 504 707 542 721 525 711 b 444 700 488 704 468 702 b 373 697 421 698 397 697 b 300 697 348 696 324 696 b 236 701 276 698 255 700 "},"Ì":{"ha":529,"x_min":0,"x_max":0,"o":"m 299 956 b 297 926 303 944 303 934 b 273 909 291 918 283 912 b 243 906 263 906 253 905 b 222 915 233 906 226 910 b 205 940 215 925 209 933 b 192 964 201 948 197 956 b 179 993 188 972 184 982 b 163 1038 175 1004 169 1019 b 173 1060 161 1043 164 1051 b 205 1085 182 1070 192 1078 b 242 1094 217 1091 230 1094 b 267 1074 254 1094 262 1088 b 276 1042 270 1062 273 1051 b 282 1015 278 1032 280 1024 b 288 989 284 1007 286 998 b 299 956 291 980 294 969 m 57 168 b 115 171 71 168 90 169 b 185 171 139 173 163 173 b 179 306 182 216 180 261 b 178 440 178 350 178 395 b 179 578 178 487 178 533 b 186 715 180 624 182 670 b 153 717 176 715 165 716 b 117 723 141 719 129 721 b 83 729 105 725 94 727 b 58 733 73 731 65 732 b 14 758 37 736 22 744 b 6 803 6 772 3 787 b 31 846 8 819 17 833 b 88 867 44 859 63 866 b 167 868 109 868 135 868 l 267 868 b 367 869 302 868 335 869 b 447 875 399 870 426 872 b 499 863 468 878 485 874 b 527 823 514 851 523 838 b 521 776 531 808 529 792 b 472 742 513 759 496 748 b 449 735 467 740 459 738 b 415 728 438 733 427 731 b 380 722 403 726 391 724 b 350 719 368 720 358 719 b 342 581 345 673 343 627 b 340 443 341 535 340 489 b 342 308 340 398 341 353 b 347 172 343 263 344 218 b 413 169 369 174 391 173 b 478 164 436 166 457 164 b 528 142 498 164 515 157 b 554 95 542 128 550 112 b 551 47 558 78 557 62 b 514 21 545 31 532 23 b 406 15 482 18 447 16 b 283 14 366 14 325 14 b 161 13 242 14 201 14 b 54 8 121 13 86 11 b -13 28 21 6 -2 12 b -26 84 -25 45 -29 63 b 2 142 -22 105 -13 124 b 57 168 17 159 36 168 "},"Í":{"ha":529,"x_min":0,"x_max":0,"o":"m 238 956 b 248 994 239 961 243 974 b 271 1074 253 1014 261 1040 b 292 1085 272 1079 279 1083 b 332 1085 305 1088 318 1088 b 366 1071 346 1083 357 1078 b 371 1038 375 1063 376 1052 b 341 982 363 1018 353 1000 b 300 915 329 964 316 942 b 285 908 298 912 293 909 b 260 911 276 907 268 908 b 239 926 251 914 244 919 b 238 956 233 934 233 944 m 57 168 b 115 171 71 168 90 169 b 185 171 139 173 163 173 b 179 306 182 216 180 261 b 178 440 178 350 178 395 b 179 578 178 487 178 533 b 186 715 180 624 182 670 b 153 717 176 715 165 716 b 117 723 141 719 129 721 b 83 729 105 725 94 727 b 58 733 73 731 65 732 b 14 758 37 736 22 744 b 6 803 6 772 3 787 b 31 846 8 819 17 833 b 88 867 44 859 63 866 b 167 868 109 868 135 868 l 267 868 b 367 869 302 868 335 869 b 447 875 399 870 426 872 b 499 863 468 878 485 874 b 527 823 514 851 523 838 b 521 776 531 808 529 792 b 472 742 513 759 496 748 b 449 735 467 740 459 738 b 415 728 438 733 427 731 b 380 722 403 726 391 724 b 350 719 368 720 358 719 b 342 581 345 673 343 627 b 340 443 341 535 340 489 b 342 308 340 398 341 353 b 347 172 343 263 344 218 b 413 169 369 174 391 173 b 478 164 436 166 457 164 b 528 142 498 164 515 157 b 554 95 542 128 550 112 b 551 47 558 78 557 62 b 514 21 545 31 532 23 b 406 15 482 18 447 16 b 283 14 366 14 325 14 b 161 13 242 14 201 14 b 54 8 121 13 86 11 b -13 28 21 6 -2 12 b -26 84 -25 45 -29 63 b 2 142 -22 105 -13 124 b 57 168 17 159 36 168 "},"Î":{"ha":529,"x_min":0,"x_max":0,"o":"m 214 910 b 190 899 208 903 200 900 b 160 903 179 898 169 899 b 142 922 152 906 145 913 b 150 956 138 930 141 942 b 188 1013 163 975 176 994 b 225 1065 201 1032 213 1050 b 271 1096 241 1088 256 1098 b 307 1074 286 1094 298 1087 b 345 1021 321 1054 334 1037 b 381 974 357 1005 369 989 b 395 936 392 960 397 947 b 383 910 394 925 390 916 b 358 899 376 903 367 900 b 335 907 348 898 340 900 b 294 950 320 925 306 939 b 264 986 281 961 271 973 b 244 951 256 975 250 963 b 214 910 239 939 229 925 m 57 168 b 115 171 71 168 90 169 b 185 171 139 173 163 173 b 179 306 182 216 180 261 b 178 440 178 350 178 395 b 179 578 178 487 178 533 b 186 715 180 624 182 670 b 153 717 176 715 165 716 b 117 723 141 719 129 721 b 83 729 105 725 94 727 b 58 733 73 731 65 732 b 14 758 37 736 22 744 b 6 803 6 772 3 787 b 31 846 8 819 17 833 b 88 867 44 859 63 866 b 167 868 109 868 135 868 l 267 868 b 367 869 302 868 335 869 b 447 875 399 870 426 872 b 499 863 468 878 485 874 b 527 823 514 851 523 838 b 521 776 531 808 529 792 b 472 742 513 759 496 748 b 449 735 467 740 459 738 b 415 728 438 733 427 731 b 380 722 403 726 391 724 b 350 719 368 720 358 719 b 342 581 345 673 343 627 b 340 443 341 535 340 489 b 342 308 340 398 341 353 b 347 172 343 263 344 218 b 413 169 369 174 391 173 b 478 164 436 166 457 164 b 528 142 498 164 515 157 b 554 95 542 128 550 112 b 551 47 558 78 557 62 b 514 21 545 31 532 23 b 406 15 482 18 447 16 b 283 14 366 14 325 14 b 161 13 242 14 201 14 b 54 8 121 13 86 11 b -13 28 21 6 -2 12 b -26 84 -25 45 -29 63 b 2 142 -22 105 -13 124 b 57 168 17 159 36 168 "},"Ï":{"ha":529,"x_min":0,"x_max":0,"o":"m 122 967 b 141 1015 123 988 129 1004 b 183 1031 153 1025 167 1031 b 231 1011 202 1031 218 1024 b 249 961 245 998 250 981 b 226 920 247 943 239 929 b 181 907 212 911 197 907 b 122 967 142 907 122 927 m 407 968 b 388 921 406 947 400 931 b 346 906 377 911 363 906 b 298 924 327 906 311 912 b 281 975 284 937 279 954 b 303 1015 282 993 290 1006 b 349 1029 316 1025 331 1029 b 407 968 388 1029 407 1009 m 57 168 b 115 171 71 168 90 169 b 185 171 139 173 163 173 b 179 306 182 216 180 261 b 178 440 178 350 178 395 b 179 578 178 487 178 533 b 186 715 180 624 182 670 b 153 717 176 715 165 716 b 117 723 141 719 129 721 b 83 729 105 725 94 727 b 58 733 73 731 65 732 b 14 758 37 736 22 744 b 6 803 6 772 3 787 b 31 846 8 819 17 833 b 88 867 44 859 63 866 b 167 868 109 868 135 868 l 267 868 b 367 869 302 868 335 869 b 447 875 399 870 426 872 b 499 863 468 878 485 874 b 527 823 514 851 523 838 b 521 776 531 808 529 792 b 472 742 513 759 496 748 b 449 735 467 740 459 738 b 415 728 438 733 427 731 b 380 722 403 726 391 724 b 350 719 368 720 358 719 b 342 581 345 673 343 627 b 340 443 341 535 340 489 b 342 308 340 398 341 353 b 347 172 343 263 344 218 b 413 169 369 174 391 173 b 478 164 436 166 457 164 b 528 142 498 164 515 157 b 554 95 542 128 550 112 b 551 47 558 78 557 62 b 514 21 545 31 532 23 b 406 15 482 18 447 16 b 283 14 366 14 325 14 b 161 13 242 14 201 14 b 54 8 121 13 86 11 b -13 28 21 6 -2 12 b -26 84 -25 45 -29 63 b 2 142 -22 105 -13 124 b 57 168 17 159 36 168 "},"Ð":{"ha":761,"x_min":0,"x_max":0,"o":"m 157 4 b 128 8 147 5 137 6 b 101 15 119 9 110 12 b 80 31 93 19 86 24 b 67 57 74 37 69 46 b 56 189 59 87 56 131 b 60 389 57 247 58 314 b 47 388 55 389 51 389 b 36 388 44 388 40 388 b 2 399 22 385 11 389 b -13 436 -7 410 -12 422 b -5 476 -15 450 -12 463 b 33 497 2 488 15 495 b 48 499 38 498 43 499 b 64 500 53 500 58 500 b 67 653 65 550 66 601 b 65 811 68 706 67 758 b 74 847 65 826 68 838 b 97 869 79 856 87 864 b 130 881 106 875 117 879 b 167 883 142 884 155 884 b 408 828 258 879 339 860 b 583 706 478 795 536 755 b 690 544 631 658 666 603 b 726 367 714 484 726 425 b 691 205 726 308 715 254 b 585 80 667 155 632 114 b 407 8 538 46 478 22 b 157 4 336 -7 252 -8 m 226 125 b 366 142 278 121 325 127 b 470 207 407 158 442 179 b 535 303 498 235 520 267 b 558 417 551 340 558 378 b 539 519 558 451 552 485 b 480 611 526 553 506 583 b 378 682 453 639 419 663 b 231 721 336 701 287 714 b 233 610 232 682 233 645 b 232 510 233 576 233 542 b 288 510 250 510 269 510 b 340 511 306 511 324 511 b 374 497 355 511 366 506 b 388 463 382 487 387 476 b 381 426 388 451 386 438 b 357 403 376 414 368 406 b 309 397 350 400 334 398 b 228 394 284 396 257 395 b 224 267 226 353 225 310 b 226 125 224 224 225 177 "},"Ñ":{"ha":708,"x_min":0,"x_max":0,"o":"m 242 939 b 248 975 242 951 244 963 b 266 1008 252 987 258 998 b 295 1031 274 1017 284 1025 b 335 1038 307 1036 320 1038 b 368 1028 347 1037 358 1034 b 396 1013 378 1023 388 1018 b 417 998 404 1007 411 1002 b 433 992 423 994 429 992 b 448 1004 441 992 446 996 b 451 1026 450 1013 451 1020 b 465 1050 452 1036 457 1044 b 490 1061 472 1056 481 1060 b 517 1054 500 1062 508 1060 b 532 1025 525 1049 530 1039 b 515 952 536 999 530 975 b 447 917 500 929 478 918 b 410 922 433 917 421 919 b 379 935 399 926 388 930 b 356 949 370 941 362 945 b 342 956 350 953 345 956 b 331 949 339 956 335 953 b 322 924 327 944 324 936 b 307 906 320 916 315 910 b 280 901 299 902 290 900 b 253 912 270 902 261 906 b 242 939 246 918 242 927 m 481 157 b 494 219 486 166 491 187 b 501 331 497 251 499 288 b 502 469 502 374 503 420 b 501 607 502 517 501 563 b 499 722 500 650 500 689 b 497 788 498 754 497 776 b 509 826 497 800 501 813 b 539 857 517 838 527 849 b 578 874 551 865 564 871 b 618 872 593 878 606 877 b 648 845 630 868 640 859 b 660 788 656 832 660 813 b 658 422 660 641 659 519 b 640 188 656 325 650 247 b 590 63 630 129 613 88 b 486 26 566 39 531 26 b 406 51 456 26 430 34 b 343 114 383 67 362 88 b 294 202 325 140 308 169 b 257 302 279 235 267 268 b 231 399 247 336 238 368 b 211 479 223 430 217 457 b 201 273 206 410 203 341 b 197 68 198 205 197 137 b 176 11 197 43 190 24 b 127 -6 161 -2 145 -8 b 76 19 109 -5 92 3 b 46 89 59 34 50 57 b 43 185 43 114 42 146 b 50 310 44 224 46 266 b 63 450 54 355 58 402 b 76 589 67 498 72 544 b 88 711 81 633 85 674 b 93 801 91 748 93 778 b 115 867 93 831 100 853 b 168 890 130 882 148 889 b 231 874 188 891 209 886 b 282 822 252 862 269 844 b 317 733 295 799 306 769 b 345 616 327 697 336 658 b 372 485 354 574 363 530 b 400 354 380 439 390 396 b 435 240 410 313 422 274 b 481 157 448 205 463 177 "},"Ò":{"ha":713,"x_min":0,"x_max":0,"o":"m 394 965 b 392 935 399 953 398 943 b 369 919 386 928 378 922 b 339 915 359 916 349 914 b 318 925 329 916 322 919 b 300 950 311 934 305 943 b 288 974 295 957 291 965 b 275 1003 284 982 280 992 b 258 1047 270 1014 265 1029 b 267 1070 256 1053 259 1060 b 299 1095 276 1080 287 1088 b 337 1106 312 1102 324 1106 b 363 1085 349 1106 358 1099 b 372 1052 366 1072 369 1061 b 378 1026 374 1043 376 1034 b 384 999 380 1017 382 1008 b 394 965 386 989 390 978 m 340 24 b 203 58 287 24 241 35 b 111 150 166 81 135 112 b 57 282 87 188 69 232 b 36 438 45 332 38 384 b 49 611 34 500 39 557 b 103 751 60 665 78 711 b 199 844 128 790 160 821 b 339 878 238 866 284 878 b 488 842 395 878 445 866 b 597 749 531 819 567 788 b 663 615 626 710 648 665 b 685 461 677 565 685 514 b 664 307 685 410 678 359 b 600 166 650 255 629 208 b 492 63 571 124 535 90 b 340 24 449 37 399 24 m 206 385 b 211 322 206 369 207 348 b 233 244 215 295 222 269 b 277 178 243 218 258 196 b 351 150 296 159 321 150 b 430 179 382 150 408 160 b 483 251 452 199 469 223 b 512 344 496 280 506 311 b 521 433 518 377 521 406 b 511 526 521 461 518 492 b 483 622 505 561 495 593 b 435 697 470 652 454 677 b 369 726 416 716 394 726 b 315 707 349 726 331 720 b 272 656 298 694 284 677 b 242 587 260 635 250 612 b 221 510 233 561 226 536 b 209 439 215 485 211 461 b 206 385 207 417 206 399 "},"Ó":{"ha":713,"x_min":0,"x_max":0,"o":"m 333 965 b 365 1085 336 978 347 1018 b 388 1096 367 1090 375 1094 b 428 1095 400 1098 414 1097 b 462 1081 442 1093 453 1088 b 467 1047 471 1073 472 1062 b 437 992 458 1028 448 1009 b 396 925 425 974 412 952 b 379 918 393 921 388 919 b 354 921 371 917 363 918 b 334 936 346 924 339 929 b 333 965 329 944 329 953 m 340 24 b 203 58 287 24 241 35 b 111 150 166 81 135 112 b 57 282 87 188 69 232 b 36 438 45 332 38 384 b 49 611 34 500 39 557 b 103 751 60 665 78 711 b 199 844 128 790 160 821 b 339 878 238 866 284 878 b 488 842 395 878 445 866 b 597 749 531 819 567 788 b 663 615 626 710 648 665 b 685 461 677 565 685 514 b 664 307 685 410 678 359 b 600 166 650 255 629 208 b 492 63 571 124 535 90 b 340 24 449 37 399 24 m 206 385 b 211 322 206 369 207 348 b 233 244 215 295 222 269 b 277 178 243 218 258 196 b 351 150 296 159 321 150 b 430 179 382 150 408 160 b 483 251 452 199 469 223 b 512 344 496 280 506 311 b 521 433 518 377 521 406 b 511 526 521 461 518 492 b 483 622 505 561 495 593 b 435 697 470 652 454 677 b 369 726 416 716 394 726 b 315 707 349 726 331 720 b 272 656 298 694 284 677 b 242 587 260 635 250 612 b 221 510 233 561 226 536 b 209 439 215 485 211 461 b 206 385 207 417 206 399 "},"Ô":{"ha":713,"x_min":0,"x_max":0,"o":"m 310 919 b 285 908 304 913 296 909 b 256 913 275 907 265 909 b 237 931 246 916 240 922 b 246 965 234 940 237 951 b 284 1023 259 985 272 1004 b 319 1075 297 1042 308 1059 b 365 1106 335 1097 350 1107 b 403 1083 380 1104 393 1096 b 440 1031 417 1064 429 1046 b 476 983 451 1015 463 999 b 491 946 488 969 492 957 b 478 919 490 935 485 926 b 453 908 472 913 463 909 b 431 917 444 907 436 910 b 390 960 416 934 402 949 b 360 996 377 971 367 983 b 340 961 352 985 346 973 b 310 919 335 949 325 935 m 340 24 b 203 58 287 24 241 35 b 111 150 166 81 135 112 b 57 282 87 188 69 232 b 36 438 45 332 38 384 b 49 611 34 500 39 557 b 103 751 60 665 78 711 b 199 844 128 790 160 821 b 339 878 238 866 284 878 b 488 842 395 878 445 866 b 597 749 531 819 567 788 b 663 615 626 710 648 665 b 685 461 677 565 685 514 b 664 307 685 410 678 359 b 600 166 650 255 629 208 b 492 63 571 124 535 90 b 340 24 449 37 399 24 m 206 385 b 211 322 206 369 207 348 b 233 244 215 295 222 269 b 277 178 243 218 258 196 b 351 150 296 159 321 150 b 430 179 382 150 408 160 b 483 251 452 199 469 223 b 512 344 496 280 506 311 b 521 433 518 377 521 406 b 511 526 521 461 518 492 b 483 622 505 561 495 593 b 435 697 470 652 454 677 b 369 726 416 716 394 726 b 315 707 349 726 331 720 b 272 656 298 694 284 677 b 242 587 260 635 250 612 b 221 510 233 561 226 536 b 209 439 215 485 211 461 b 206 385 207 417 206 399 "},"Õ":{"ha":713,"x_min":0,"x_max":0,"o":"m 214 949 b 220 985 214 961 216 973 b 238 1017 224 997 230 1008 b 267 1040 246 1027 256 1035 b 307 1047 279 1046 292 1048 b 340 1038 319 1046 330 1043 b 368 1022 350 1033 360 1028 b 390 1008 376 1017 384 1012 b 407 1001 397 1003 402 1001 b 420 1014 413 1001 418 1006 b 425 1036 422 1022 424 1030 b 437 1060 425 1045 429 1053 b 463 1071 445 1066 453 1070 b 489 1065 472 1072 481 1070 b 504 1036 497 1059 502 1050 b 488 962 508 1009 502 984 b 419 926 473 939 450 927 b 382 932 406 926 393 928 b 352 945 371 936 361 940 b 329 959 343 950 336 955 b 315 965 323 963 318 965 b 303 958 312 965 308 963 b 294 933 299 954 296 945 b 279 916 293 926 288 920 b 252 911 271 912 262 910 b 226 922 242 912 234 916 b 214 949 218 928 214 937 m 340 24 b 203 58 287 24 241 35 b 111 150 166 81 135 112 b 57 282 87 188 69 232 b 36 438 45 332 38 384 b 49 611 34 500 39 557 b 103 751 60 665 78 711 b 199 844 128 790 160 821 b 339 878 238 866 284 878 b 488 842 395 878 445 866 b 597 749 531 819 567 788 b 663 615 626 710 648 665 b 685 461 677 565 685 514 b 664 307 685 410 678 359 b 600 166 650 255 629 208 b 492 63 571 124 535 90 b 340 24 449 37 399 24 m 206 385 b 211 322 206 369 207 348 b 233 244 215 295 222 269 b 277 178 243 218 258 196 b 351 150 296 159 321 150 b 430 179 382 150 408 160 b 483 251 452 199 469 223 b 512 344 496 280 506 311 b 521 433 518 377 521 406 b 511 526 521 461 518 492 b 483 622 505 561 495 593 b 435 697 470 652 454 677 b 369 726 416 716 394 726 b 315 707 349 726 331 720 b 272 656 298 694 284 677 b 242 587 260 635 250 612 b 221 510 233 561 226 536 b 209 439 215 485 211 461 b 206 385 207 417 206 399 "},"Ö":{"ha":713,"x_min":0,"x_max":0,"o":"m 218 976 b 237 1024 219 998 225 1014 b 278 1040 248 1035 262 1040 b 327 1021 297 1040 314 1034 b 343 971 341 1008 346 991 b 321 930 341 952 334 939 b 275 917 308 921 293 917 b 232 933 256 917 242 922 b 218 976 222 943 217 958 m 501 978 b 484 931 501 956 496 941 b 442 915 472 920 458 915 b 393 935 423 915 407 922 b 376 985 379 948 374 964 b 399 1025 378 1002 386 1016 b 444 1039 412 1034 427 1039 b 501 978 484 1039 503 1019 m 340 24 b 203 58 287 24 241 35 b 111 150 166 81 135 112 b 57 282 87 188 69 232 b 36 438 45 332 38 384 b 49 611 34 500 39 557 b 103 751 60 665 78 711 b 199 844 128 790 160 821 b 339 878 238 866 284 878 b 488 842 395 878 445 866 b 597 749 531 819 567 788 b 663 615 626 710 648 665 b 685 461 677 565 685 514 b 664 307 685 410 678 359 b 600 166 650 255 629 208 b 492 63 571 124 535 90 b 340 24 449 37 399 24 m 206 385 b 211 322 206 369 207 348 b 233 244 215 295 222 269 b 277 178 243 218 258 196 b 351 150 296 159 321 150 b 430 179 382 150 408 160 b 483 251 452 199 469 223 b 512 344 496 280 506 311 b 521 433 518 377 521 406 b 511 526 521 461 518 492 b 483 622 505 561 495 593 b 435 697 470 652 454 677 b 369 726 416 716 394 726 b 315 707 349 726 331 720 b 272 656 298 694 284 677 b 242 587 260 635 250 612 b 221 510 233 561 226 536 b 209 439 215 485 211 461 b 206 385 207 417 206 399 "},"Ø":{"ha":713,"x_min":0,"x_max":0,"o":"m 340 24 b 283 28 320 24 301 25 b 278 19 281 25 280 22 b 274 11 277 16 275 13 b 242 -10 265 -3 255 -10 b 208 -1 230 -11 218 -8 b 183 28 197 6 189 16 b 182 67 178 41 177 54 b 183 69 183 68 183 69 b 119 135 158 87 137 109 b 74 223 101 162 86 191 b 47 326 63 255 54 289 b 36 438 41 362 37 400 b 49 611 34 500 39 557 b 103 751 60 665 78 711 b 199 844 128 790 160 821 b 339 878 238 866 284 878 b 447 861 378 878 414 872 b 479 892 456 880 467 890 b 513 885 491 895 502 892 b 538 851 523 877 531 866 b 543 806 544 837 546 821 b 649 655 590 767 626 716 b 685 461 673 593 685 529 b 664 307 685 410 678 359 b 600 166 650 255 629 208 b 492 63 571 124 535 90 b 340 24 449 37 399 24 m 206 385 b 213 313 206 367 208 343 b 240 228 218 283 227 255 b 315 453 263 294 287 370 b 400 719 342 537 370 626 b 369 726 389 724 379 726 b 315 707 349 726 331 720 b 272 656 298 694 284 677 b 242 587 260 635 250 612 b 221 510 233 561 226 536 b 209 439 215 485 211 461 b 206 385 207 417 206 399 m 332 151 b 342 151 336 151 339 151 b 351 150 344 150 348 150 b 430 179 382 150 408 160 b 483 251 452 199 469 223 b 512 344 496 280 506 311 b 521 433 518 377 521 406 b 511 528 521 462 518 494 b 482 624 505 562 495 594 b 442 499 469 583 456 541 b 403 374 429 456 416 414 b 367 256 391 333 379 294 b 332 151 355 218 343 183 "},"Ù":{"ha":719,"x_min":0,"x_max":0,"o":"m 392 942 b 390 912 396 930 396 920 b 366 895 384 904 376 898 b 335 892 356 892 346 891 b 314 901 325 893 318 896 b 297 926 306 911 301 919 b 284 950 292 934 288 942 b 271 979 280 958 275 968 b 254 1024 266 990 261 1005 b 265 1047 252 1029 256 1037 b 297 1071 273 1056 284 1064 b 333 1081 309 1077 321 1081 b 358 1060 345 1081 354 1074 b 367 1028 362 1048 365 1037 b 374 1001 370 1019 372 1010 b 381 975 375 993 378 984 b 392 942 383 966 387 955 m 481 46 b 483 78 481 57 482 68 b 483 110 483 89 483 100 b 394 31 456 75 427 48 b 274 4 362 13 322 4 b 124 53 208 4 158 20 b 55 199 91 85 67 134 b 43 442 42 265 38 346 b 69 782 48 539 56 652 b 99 829 72 805 82 821 b 154 836 116 838 135 840 b 206 810 174 832 191 824 b 226 758 222 796 228 779 b 217 681 225 743 221 717 b 205 561 212 646 208 606 b 200 423 202 517 200 471 b 212 292 200 375 204 332 b 251 195 220 253 233 221 b 326 157 269 170 294 157 b 385 175 349 157 368 163 b 431 222 403 187 418 203 b 467 289 445 242 457 264 b 496 364 478 314 488 339 b 503 583 500 436 502 509 b 499 817 504 657 502 735 b 523 864 498 836 506 852 b 581 878 540 876 559 881 b 639 840 602 875 621 863 b 667 733 656 818 666 782 b 669 562 668 678 669 621 b 670 385 670 503 671 444 b 663 208 670 325 667 267 b 643 38 659 150 652 93 b 610 -12 638 13 627 -4 b 554 -19 592 -20 574 -22 b 502 4 535 -16 517 -8 b 481 46 487 16 480 30 "},"Ú":{"ha":719,"x_min":0,"x_max":0,"o":"m 329 942 b 340 980 331 947 334 960 b 363 1060 345 1000 352 1026 b 383 1072 363 1065 370 1069 b 424 1072 396 1074 410 1074 b 458 1057 438 1069 449 1064 b 463 1024 466 1050 468 1038 b 434 968 455 1004 446 986 b 393 901 422 950 409 928 b 376 894 390 898 385 895 b 351 897 368 894 360 894 b 331 913 343 900 336 905 b 329 942 326 920 325 930 m 481 46 b 483 78 481 57 482 68 b 483 110 483 89 483 100 b 394 31 456 75 427 48 b 274 4 362 13 322 4 b 124 53 208 4 158 20 b 55 199 91 85 67 134 b 43 442 42 265 38 346 b 69 782 48 539 56 652 b 99 829 72 805 82 821 b 154 836 116 838 135 840 b 206 810 174 832 191 824 b 226 758 222 796 228 779 b 217 681 225 743 221 717 b 205 561 212 646 208 606 b 200 423 202 517 200 471 b 212 292 200 375 204 332 b 251 195 220 253 233 221 b 326 157 269 170 294 157 b 385 175 349 157 368 163 b 431 222 403 187 418 203 b 467 289 445 242 457 264 b 496 364 478 314 488 339 b 503 583 500 436 502 509 b 499 817 504 657 502 735 b 523 864 498 836 506 852 b 581 878 540 876 559 881 b 639 840 602 875 621 863 b 667 733 656 818 666 782 b 669 562 668 678 669 621 b 670 385 670 503 671 444 b 663 208 670 325 667 267 b 643 38 659 150 652 93 b 610 -12 638 13 627 -4 b 554 -19 592 -20 574 -22 b 502 4 535 -16 517 -8 b 481 46 487 16 480 30 "},"Û":{"ha":719,"x_min":0,"x_max":0,"o":"m 307 896 b 282 885 301 889 293 886 b 252 889 271 884 261 885 b 233 908 243 893 237 899 b 242 942 230 916 232 928 b 281 999 256 961 269 980 b 317 1051 293 1018 305 1036 b 363 1082 332 1074 348 1084 b 399 1060 377 1080 389 1073 b 437 1007 413 1040 425 1023 b 472 960 448 991 460 975 b 487 922 483 946 488 933 b 474 896 485 911 481 902 b 449 885 467 889 459 886 b 426 893 440 884 432 887 b 386 936 412 911 398 925 b 357 972 374 947 364 959 b 337 938 350 961 343 950 b 307 896 331 925 321 912 m 481 46 b 483 78 481 57 482 68 b 483 110 483 89 483 100 b 394 31 456 75 427 48 b 274 4 362 13 322 4 b 124 53 208 4 158 20 b 55 199 91 85 67 134 b 43 442 42 265 38 346 b 69 782 48 539 56 652 b 99 829 72 805 82 821 b 154 836 116 838 135 840 b 206 810 174 832 191 824 b 226 758 222 796 228 779 b 217 681 225 743 221 717 b 205 561 212 646 208 606 b 200 423 202 517 200 471 b 212 292 200 375 204 332 b 251 195 220 253 233 221 b 326 157 269 170 294 157 b 385 175 349 157 368 163 b 431 222 403 187 418 203 b 467 289 445 242 457 264 b 496 364 478 314 488 339 b 503 583 500 436 502 509 b 499 817 504 657 502 735 b 523 864 498 836 506 852 b 581 878 540 876 559 881 b 639 840 602 875 621 863 b 667 733 656 818 666 782 b 669 562 668 678 669 621 b 670 385 670 503 671 444 b 663 208 670 325 667 267 b 643 38 659 150 652 93 b 610 -12 638 13 627 -4 b 554 -19 592 -20 574 -22 b 502 4 535 -16 517 -8 b 481 46 487 16 480 30 "},"Ü":{"ha":719,"x_min":0,"x_max":0,"o":"m 215 953 b 233 1001 215 974 221 990 b 275 1017 244 1011 258 1017 b 324 997 294 1017 310 1010 b 340 947 338 984 343 968 b 318 906 338 929 331 915 b 272 893 305 897 290 893 b 215 953 232 893 213 913 m 499 954 b 480 907 498 933 491 917 b 438 892 468 897 454 892 b 390 910 419 892 403 898 b 372 961 376 923 370 940 b 396 1001 375 979 383 992 b 442 1015 409 1011 424 1015 b 485 999 460 1015 475 1010 b 499 954 495 989 500 974 m 481 46 b 483 78 481 57 482 68 b 483 110 483 89 483 100 b 394 31 456 75 427 48 b 274 4 362 13 322 4 b 124 53 208 4 158 20 b 55 199 91 85 67 134 b 43 442 42 265 38 346 b 69 782 48 539 56 652 b 99 829 72 805 82 821 b 154 836 116 838 135 840 b 206 810 174 832 191 824 b 226 758 222 796 228 779 b 217 681 225 743 221 717 b 205 561 212 646 208 606 b 200 423 202 517 200 471 b 212 292 200 375 204 332 b 251 195 220 253 233 221 b 326 157 269 170 294 157 b 385 175 349 157 368 163 b 431 222 403 187 418 203 b 467 289 445 242 457 264 b 496 364 478 314 488 339 b 503 583 500 436 502 509 b 499 817 504 657 502 735 b 523 864 498 836 506 852 b 581 878 540 876 559 881 b 639 840 602 875 621 863 b 667 733 656 818 666 782 b 669 562 668 678 669 621 b 670 385 670 503 671 444 b 663 208 670 325 667 267 b 643 38 659 150 652 93 b 610 -12 638 13 627 -4 b 554 -19 592 -20 574 -22 b 502 4 535 -16 517 -8 b 481 46 487 16 480 30 "},"Ý":{"ha":625,"x_min":0,"x_max":0,"o":"m 306 932 b 316 972 307 938 311 952 b 339 1051 321 991 329 1018 b 360 1063 340 1057 347 1061 b 400 1063 373 1066 386 1066 b 434 1048 414 1061 425 1056 b 439 1015 443 1040 444 1029 b 409 959 431 995 421 976 b 368 893 397 942 384 920 b 353 886 366 889 361 887 b 328 889 344 885 336 886 b 307 903 319 892 313 897 b 306 932 301 910 301 920 m 338 243 b 237 352 306 278 272 315 b 135 469 201 390 167 428 b 51 594 103 509 75 551 b 3 728 27 637 11 681 b 7 813 -3 761 -1 790 b 42 864 15 837 27 854 b 90 872 56 874 72 877 b 135 831 107 868 122 854 b 256 603 174 756 214 681 b 400 389 298 526 346 455 b 428 499 409 420 419 457 b 457 622 438 540 448 581 b 481 733 466 663 474 700 b 499 801 488 766 494 788 b 540 861 508 833 522 853 b 592 860 558 869 575 869 b 634 810 608 850 622 834 b 647 724 646 786 650 757 b 628 613 644 697 638 660 b 592 460 619 566 606 515 b 541 288 577 404 560 347 b 481 120 522 228 502 172 b 418 -19 460 68 439 22 b 357 -106 397 -59 376 -88 b 297 -133 341 -119 321 -129 b 233 -126 272 -138 251 -135 b 202 -72 215 -116 204 -98 b 242 40 200 -45 213 -8 b 274 94 255 62 265 80 b 297 138 282 109 290 124 b 316 184 303 153 310 168 b 338 243 322 200 329 220 "},"Þ":{"ha":646,"x_min":0,"x_max":0,"o":"m 218 796 b 220 781 219 791 220 786 b 221 767 221 776 221 771 b 408 736 295 766 357 756 b 530 663 458 717 499 692 b 597 565 561 633 583 600 b 617 461 610 529 617 494 b 585 329 617 415 606 371 b 497 221 563 288 534 251 b 365 149 459 190 415 166 b 203 129 314 132 260 125 b 205 97 204 118 204 107 b 208 64 205 86 206 75 b 190 7 211 36 205 17 b 139 -6 175 -3 158 -7 b 85 15 119 -4 101 3 b 60 56 68 26 60 40 l 60 141 l 60 269 l 60 419 b 59 572 60 472 59 523 b 58 708 59 621 58 666 b 57 807 57 749 57 782 b 79 858 56 830 63 847 b 133 873 95 869 113 874 b 188 851 153 872 171 864 b 218 796 205 838 215 820 m 201 244 b 288 258 229 238 258 242 b 369 321 317 273 344 294 b 429 412 393 348 413 378 b 453 511 445 446 453 479 b 441 569 453 531 449 551 b 402 618 433 588 420 604 b 331 649 384 632 360 642 b 224 658 302 656 266 659 b 213 452 223 590 219 521 b 201 244 207 383 203 314 "},"ß":{"ha":583,"x_min":0,"x_max":0,"o":"m 185 31 b 163 -12 185 14 178 0 b 117 -29 149 -23 133 -29 b 72 -9 100 -29 85 -22 b 54 61 58 4 52 28 b 58 182 57 106 58 146 b 56 288 57 218 56 253 b 52 393 55 322 53 357 b 50 514 51 429 50 469 b 60 626 50 552 53 589 b 94 726 67 663 79 697 b 158 797 110 755 131 778 b 260 824 185 815 219 824 b 358 805 293 824 326 817 b 444 756 390 792 418 776 b 506 688 469 736 490 713 b 532 608 521 662 530 635 b 515 547 533 581 527 561 b 473 510 502 533 488 521 b 431 474 458 499 444 487 b 411 419 418 461 411 443 b 439 356 411 395 420 374 b 499 301 457 338 478 320 b 558 238 521 282 541 261 b 582 151 576 214 584 186 b 562 82 581 125 574 102 b 512 31 549 62 533 44 b 439 -1 491 17 467 6 b 351 -12 411 -9 382 -12 b 306 -9 341 -12 326 -11 b 251 13 286 -7 268 0 b 219 62 232 25 221 42 b 227 117 216 82 219 100 b 262 156 235 134 247 147 b 308 157 277 165 293 165 b 339 144 319 151 329 147 b 367 140 349 142 358 140 b 383 142 370 140 376 141 b 403 147 390 143 396 144 b 419 159 409 150 415 154 b 426 179 424 164 426 171 b 403 225 426 195 419 210 b 351 274 387 240 370 256 b 300 336 333 292 316 313 b 276 419 284 359 276 387 b 293 499 276 453 282 479 b 329 550 304 519 316 536 b 365 588 342 564 354 577 b 382 631 376 600 382 614 b 369 665 382 645 378 657 b 341 682 361 672 352 678 b 310 689 330 686 320 688 b 290 690 300 690 293 690 b 228 669 263 690 243 683 b 194 619 213 656 202 639 b 181 558 187 600 183 579 b 179 501 180 536 179 517 b 180 395 179 473 179 437 b 182 265 180 353 181 310 b 184 136 183 221 184 178 b 185 31 184 94 185 59 "},"à":{"ha":625,"x_min":0,"x_max":0,"o":"m 324 715 b 322 686 328 703 328 694 b 298 670 316 679 308 673 b 268 667 288 667 278 666 b 247 675 258 668 251 670 b 229 700 240 684 234 693 b 217 724 225 707 220 715 b 204 753 213 732 209 742 b 188 797 200 764 194 779 b 197 820 185 803 188 810 b 228 845 205 830 216 838 b 266 856 241 852 253 856 b 292 835 278 856 287 849 b 301 802 295 822 298 811 b 307 776 303 793 305 784 b 313 749 309 767 311 758 b 324 715 316 739 319 728 m 418 557 b 435 602 416 575 422 591 b 481 624 449 614 464 621 b 528 620 497 626 513 625 b 557 590 544 615 553 605 b 561 551 558 585 559 572 b 567 474 563 530 565 504 b 572 374 569 443 570 410 b 575 267 573 339 574 303 b 576 165 576 231 576 197 b 574 83 576 133 575 106 b 542 13 571 51 560 28 b 484 -10 524 -1 505 -9 b 428 3 463 -12 445 -7 b 408 44 412 13 406 27 b 411 76 410 50 411 61 b 340 29 390 58 366 42 b 257 10 314 16 287 10 b 167 35 225 10 195 18 b 97 102 140 51 117 74 b 51 201 78 130 63 163 b 35 322 40 239 35 280 b 55 442 35 369 41 409 b 106 526 68 476 85 504 b 177 574 127 547 151 563 b 257 589 203 584 230 589 b 350 568 292 589 323 582 b 419 519 377 554 400 538 b 419 538 419 526 419 532 b 418 557 418 544 418 550 m 419 219 b 422 283 420 240 421 261 b 422 350 422 306 422 328 b 364 410 403 377 383 397 b 292 429 344 423 320 429 b 217 395 258 428 234 417 b 194 283 201 373 194 336 b 217 179 194 234 202 200 b 293 149 233 159 258 149 b 360 166 320 149 342 154 b 419 219 378 178 398 195 "},"á":{"ha":625,"x_min":0,"x_max":0,"o":"m 263 715 b 273 754 264 721 268 734 b 296 835 278 775 286 801 b 317 846 297 840 304 844 b 357 845 330 848 343 847 b 391 831 371 843 382 838 b 396 797 400 823 401 812 b 366 742 388 778 378 759 b 325 675 354 724 341 702 b 310 668 323 671 318 669 b 285 671 301 667 293 668 b 264 686 276 674 269 679 b 263 715 258 694 258 703 m 418 557 b 435 602 416 575 422 591 b 481 624 449 614 464 621 b 528 620 497 626 513 625 b 557 590 544 615 553 605 b 561 551 558 585 559 572 b 567 474 563 530 565 504 b 572 374 569 443 570 410 b 575 267 573 339 574 303 b 576 165 576 231 576 197 b 574 83 576 133 575 106 b 542 13 571 51 560 28 b 484 -10 524 -1 505 -9 b 428 3 463 -12 445 -7 b 408 44 412 13 406 27 b 411 76 410 50 411 61 b 340 29 390 58 366 42 b 257 10 314 16 287 10 b 167 35 225 10 195 18 b 97 102 140 51 117 74 b 51 201 78 130 63 163 b 35 322 40 239 35 280 b 55 442 35 369 41 409 b 106 526 68 476 85 504 b 177 574 127 547 151 563 b 257 589 203 584 230 589 b 350 568 292 589 323 582 b 419 519 377 554 400 538 b 419 538 419 526 419 532 b 418 557 418 544 418 550 m 419 219 b 422 283 420 240 421 261 b 422 350 422 306 422 328 b 364 410 403 377 383 397 b 292 429 344 423 320 429 b 217 395 258 428 234 417 b 194 283 201 373 194 336 b 217 179 194 234 202 200 b 293 149 233 159 258 149 b 360 166 320 149 342 154 b 419 219 378 178 398 195 "},"â":{"ha":625,"x_min":0,"x_max":0,"o":"m 239 669 b 215 658 233 663 225 659 b 185 663 204 657 194 659 b 167 681 177 666 170 672 b 175 715 163 690 166 701 b 213 773 188 735 201 754 b 250 825 226 792 238 809 b 296 856 266 847 281 857 b 332 833 311 854 323 846 b 370 781 346 814 359 796 b 406 733 382 765 394 749 b 420 696 417 719 422 707 b 408 669 419 685 415 676 b 383 658 401 663 392 659 b 360 667 373 657 365 660 b 319 710 345 684 331 699 b 289 746 306 721 296 733 b 269 711 281 735 275 723 b 239 669 264 699 254 685 m 418 557 b 435 602 416 575 422 591 b 481 624 449 614 464 621 b 528 620 497 626 513 625 b 557 590 544 615 553 605 b 561 551 558 585 559 572 b 567 474 563 530 565 504 b 572 374 569 443 570 410 b 575 267 573 339 574 303 b 576 165 576 231 576 197 b 574 83 576 133 575 106 b 542 13 571 51 560 28 b 484 -10 524 -1 505 -9 b 428 3 463 -12 445 -7 b 408 44 412 13 406 27 b 411 76 410 50 411 61 b 340 29 390 58 366 42 b 257 10 314 16 287 10 b 167 35 225 10 195 18 b 97 102 140 51 117 74 b 51 201 78 130 63 163 b 35 322 40 239 35 280 b 55 442 35 369 41 409 b 106 526 68 476 85 504 b 177 574 127 547 151 563 b 257 589 203 584 230 589 b 350 568 292 589 323 582 b 419 519 377 554 400 538 b 419 538 419 526 419 532 b 418 557 418 544 418 550 m 419 219 b 422 283 420 240 421 261 b 422 350 422 306 422 328 b 364 410 403 377 383 397 b 292 429 344 423 320 429 b 217 395 258 428 234 417 b 194 283 201 373 194 336 b 217 179 194 234 202 200 b 293 149 233 159 258 149 b 360 166 320 149 342 154 b 419 219 378 178 398 195 "},"ã":{"ha":625,"x_min":0,"x_max":0,"o":"m 144 699 b 151 735 144 711 147 723 b 168 767 155 747 161 758 b 197 790 175 777 185 785 b 238 797 208 796 222 798 b 270 788 250 796 260 793 b 297 772 280 783 289 778 b 319 758 306 767 313 762 b 336 751 326 753 331 751 b 349 764 343 751 347 756 b 354 786 352 772 353 780 b 367 810 355 795 359 803 b 392 822 374 816 382 820 b 418 815 401 823 410 821 b 433 786 426 810 431 800 b 417 712 437 759 431 734 b 349 676 402 689 379 677 b 311 682 335 676 322 678 b 281 695 300 686 290 690 b 258 709 272 700 265 705 b 244 715 252 713 247 715 b 233 708 241 715 237 713 b 224 683 228 704 225 695 b 208 666 222 676 217 670 b 182 661 200 662 191 660 b 156 672 173 662 164 666 b 144 699 148 678 144 687 m 418 557 b 435 602 416 575 422 591 b 481 624 449 614 464 621 b 528 620 497 626 513 625 b 557 590 544 615 553 605 b 561 551 558 585 559 572 b 567 474 563 530 565 504 b 572 374 569 443 570 410 b 575 267 573 339 574 303 b 576 165 576 231 576 197 b 574 83 576 133 575 106 b 542 13 571 51 560 28 b 484 -10 524 -1 505 -9 b 428 3 463 -12 445 -7 b 408 44 412 13 406 27 b 411 76 410 50 411 61 b 340 29 390 58 366 42 b 257 10 314 16 287 10 b 167 35 225 10 195 18 b 97 102 140 51 117 74 b 51 201 78 130 63 163 b 35 322 40 239 35 280 b 55 442 35 369 41 409 b 106 526 68 476 85 504 b 177 574 127 547 151 563 b 257 589 203 584 230 589 b 350 568 292 589 323 582 b 419 519 377 554 400 538 b 419 538 419 526 419 532 b 418 557 418 544 418 550 m 419 219 b 422 283 420 240 421 261 b 422 350 422 306 422 328 b 364 410 403 377 383 397 b 292 429 344 423 320 429 b 217 395 258 428 234 417 b 194 283 201 373 194 336 b 217 179 194 234 202 200 b 293 149 233 159 258 149 b 360 166 320 149 342 154 b 419 219 378 178 398 195 "},"ä":{"ha":625,"x_min":0,"x_max":0,"o":"m 147 726 b 166 774 148 748 154 764 b 208 790 178 785 192 790 b 256 771 227 790 243 784 b 274 721 270 758 275 741 b 250 681 271 703 263 690 b 204 667 237 671 222 667 b 161 683 186 667 171 672 b 147 726 151 693 146 708 m 432 728 b 413 681 431 706 425 691 b 371 665 402 670 388 665 b 322 685 352 665 336 672 b 306 735 308 698 303 714 b 328 775 307 752 315 766 b 374 789 341 784 356 789 b 432 728 413 789 432 769 m 418 557 b 435 602 416 575 422 591 b 481 624 449 614 464 621 b 528 620 497 626 513 625 b 557 590 544 615 553 605 b 561 551 558 585 559 572 b 567 474 563 530 565 504 b 572 374 569 443 570 410 b 575 267 573 339 574 303 b 576 165 576 231 576 197 b 574 83 576 133 575 106 b 542 13 571 51 560 28 b 484 -10 524 -1 505 -9 b 428 3 463 -12 445 -7 b 408 44 412 13 406 27 b 411 76 410 50 411 61 b 340 29 390 58 366 42 b 257 10 314 16 287 10 b 167 35 225 10 195 18 b 97 102 140 51 117 74 b 51 201 78 130 63 163 b 35 322 40 239 35 280 b 55 442 35 369 41 409 b 106 526 68 476 85 504 b 177 574 127 547 151 563 b 257 589 203 584 230 589 b 350 568 292 589 323 582 b 419 519 377 554 400 538 b 419 538 419 526 419 532 b 418 557 418 544 418 550 m 419 219 b 422 283 420 240 421 261 b 422 350 422 306 422 328 b 364 410 403 377 383 397 b 292 429 344 423 320 429 b 217 395 258 428 234 417 b 194 283 201 373 194 336 b 217 179 194 234 202 200 b 293 149 233 159 258 149 b 360 166 320 149 342 154 b 419 219 378 178 398 195 "},"å":{"ha":625,"x_min":0,"x_max":0,"o":"m 290 668 b 221 695 263 668 239 677 b 190 767 202 713 192 737 b 197 819 188 787 191 804 b 222 854 203 833 211 845 b 262 874 233 863 247 870 b 308 881 277 878 293 881 b 377 862 335 881 358 874 b 406 794 396 849 406 827 b 373 706 406 761 395 732 b 290 668 351 681 324 668 m 293 814 b 276 807 288 814 282 812 b 267 782 270 802 267 794 b 275 750 267 772 269 761 b 297 733 281 739 288 733 b 317 748 306 733 312 738 b 325 776 322 758 325 767 b 315 804 325 788 322 798 b 293 814 308 811 300 814 m 418 557 b 435 602 416 575 422 591 b 481 624 449 614 464 621 b 528 620 497 626 513 625 b 557 590 544 615 553 605 b 561 551 558 585 559 572 b 567 474 563 530 565 504 b 572 374 569 443 570 410 b 575 267 573 339 574 303 b 576 165 576 231 576 197 b 574 83 576 133 575 106 b 542 13 571 51 560 28 b 484 -10 524 -1 505 -9 b 428 3 463 -12 445 -7 b 408 44 412 13 406 27 b 411 76 410 50 411 61 b 340 29 390 58 366 42 b 257 10 314 16 287 10 b 167 35 225 10 195 18 b 97 102 140 51 117 74 b 51 201 78 130 63 163 b 35 322 40 239 35 280 b 55 442 35 369 41 409 b 106 526 68 476 85 504 b 177 574 127 547 151 563 b 257 589 203 584 230 589 b 350 568 292 589 323 582 b 419 519 377 554 400 538 b 419 538 419 526 419 532 b 418 557 418 544 418 550 m 419 219 b 422 283 420 240 421 261 b 422 350 422 306 422 328 b 364 410 403 377 383 397 b 292 429 344 423 320 429 b 217 395 258 428 234 417 b 194 283 201 373 194 336 b 217 179 194 234 202 200 b 293 149 233 159 258 149 b 360 166 320 149 342 154 b 419 219 378 178 398 195 "},"æ":{"ha":899,"x_min":0,"x_max":0,"o":"m 451 111 b 364 42 425 86 395 63 b 257 10 332 20 297 10 b 167 35 225 10 195 18 b 97 102 140 51 117 74 b 51 201 78 130 63 163 b 35 322 40 239 35 280 b 55 442 35 369 41 409 b 106 526 68 476 85 504 b 177 574 127 547 151 563 b 257 589 203 584 230 589 b 365 560 299 589 335 579 b 442 496 396 540 421 519 b 533 574 463 528 493 554 b 685 603 572 593 623 603 b 826 568 745 603 792 591 b 876 444 859 545 876 504 b 849 338 876 399 867 364 b 776 282 830 313 806 294 b 677 264 747 270 714 264 b 567 274 641 264 604 267 b 596 185 569 236 578 206 b 685 153 613 163 643 153 b 735 160 705 153 722 155 b 766 178 748 166 758 172 b 784 201 774 185 780 193 b 796 219 788 209 792 215 b 833 245 806 232 818 241 b 872 243 847 249 860 249 b 897 213 883 238 891 228 b 892 154 902 199 900 179 b 812 44 877 110 850 73 b 663 0 773 15 724 0 b 535 31 613 0 570 10 b 451 111 501 52 473 79 m 571 368 b 629 364 589 364 609 363 b 685 374 650 365 668 368 b 726 399 701 379 715 388 b 743 442 738 410 743 424 b 724 481 743 461 737 474 b 686 493 712 488 699 492 b 639 485 668 494 652 491 b 606 457 626 478 615 469 b 584 416 597 445 590 431 b 571 368 578 401 574 385 m 410 210 b 399 265 405 227 402 246 b 396 321 397 284 396 302 b 400 378 396 340 397 359 b 351 417 384 395 368 408 b 292 429 335 425 315 429 b 217 395 258 428 234 417 b 194 283 201 373 194 336 b 217 179 194 234 202 200 b 293 149 233 159 258 149 b 355 163 317 149 338 153 b 410 210 372 173 390 188 "},"ç":{"ha":524,"x_min":0,"x_max":0,"o":"m 268 -301 b 178 -285 237 -303 206 -298 b 119 -221 149 -273 130 -251 b 118 -175 114 -203 113 -188 b 139 -146 123 -162 130 -152 b 169 -137 148 -139 158 -137 b 197 -154 181 -138 190 -144 b 211 -179 204 -162 208 -171 b 219 -201 214 -187 217 -195 b 230 -215 222 -207 226 -212 b 250 -221 234 -219 241 -221 b 285 -205 266 -221 277 -216 b 296 -168 292 -194 296 -182 b 281 -131 296 -150 291 -138 b 250 -113 272 -124 261 -118 b 219 -94 239 -108 228 -102 b 204 -51 209 -86 204 -72 b 210 -21 204 -46 206 -36 b 218 11 213 -6 216 5 b 135 53 186 19 158 34 b 78 124 112 73 93 97 b 47 215 64 152 53 182 b 36 318 40 247 36 282 b 99 532 35 413 56 485 b 278 603 141 579 201 603 b 414 569 331 603 376 592 b 482 467 452 547 475 513 b 474 393 488 433 486 409 b 431 365 462 377 447 368 b 383 369 414 361 398 363 b 358 396 367 376 359 385 b 334 437 356 414 348 428 b 293 450 320 446 306 450 b 255 435 279 450 266 445 b 225 397 243 426 233 413 b 206 343 217 381 210 363 b 199 279 201 323 199 301 b 203 235 199 264 200 250 b 218 194 206 220 211 206 b 248 165 225 182 235 173 b 297 154 260 158 277 154 b 361 174 325 154 346 161 b 393 222 376 187 387 203 b 429 281 402 251 414 270 b 472 292 444 291 458 295 b 508 271 486 290 498 283 b 522 228 519 259 523 244 b 499 120 520 185 513 149 b 447 50 486 91 469 68 b 375 13 426 32 402 20 b 293 1 348 5 321 1 b 283 -39 291 -12 288 -26 b 319 -53 293 -41 305 -45 b 363 -82 334 -60 349 -70 b 397 -126 376 -94 388 -109 b 408 -183 405 -143 409 -162 b 395 -231 407 -201 403 -217 b 364 -267 387 -246 377 -258 b 319 -291 351 -277 336 -285 b 268 -301 303 -297 286 -300 "},"è":{"ha":538,"x_min":0,"x_max":0,"o":"m 357 715 b 355 686 362 703 361 694 b 331 670 349 679 341 673 b 301 667 322 667 312 666 b 281 675 291 668 284 670 b 263 700 273 684 267 693 b 249 724 258 707 253 715 b 236 753 245 732 241 742 b 219 797 231 764 226 779 b 230 820 218 803 221 810 b 262 845 239 830 249 838 b 299 856 274 852 287 856 b 325 835 312 856 320 849 b 333 802 329 822 331 811 l 339 776 b 346 749 341 767 343 758 b 357 715 349 739 352 728 m 206 274 b 235 185 207 236 217 206 b 324 153 252 163 282 153 b 374 160 344 153 361 155 b 405 178 387 166 397 172 b 423 201 413 185 419 193 b 435 219 427 209 431 215 b 472 245 445 232 457 241 b 510 243 486 249 499 249 b 535 213 522 238 530 228 b 531 154 541 199 539 179 b 451 44 516 110 489 73 b 301 0 412 15 363 0 b 181 28 254 0 214 9 b 98 101 147 46 120 71 b 50 203 76 131 60 165 b 35 321 40 242 35 281 b 49 429 35 359 40 395 b 98 519 59 463 75 493 b 187 580 121 544 150 565 b 324 603 223 595 269 603 b 465 568 384 603 431 591 b 515 444 498 545 515 504 b 488 338 515 399 506 364 b 415 282 469 313 445 294 b 316 264 386 270 353 264 b 206 274 279 264 243 267 m 210 368 b 268 364 228 364 248 363 b 324 374 288 365 307 368 b 365 399 340 379 354 388 b 382 442 376 410 382 424 b 363 481 382 461 376 474 b 325 493 351 488 338 492 b 278 485 306 494 291 491 b 245 457 265 478 254 469 b 223 416 236 445 229 431 b 210 368 217 401 213 385 "},"é":{"ha":538,"x_min":0,"x_max":0,"o":"m 294 715 b 306 754 296 721 300 734 b 328 835 311 775 319 801 b 350 846 330 840 337 844 b 390 845 363 848 376 847 b 423 831 403 843 414 838 b 428 797 432 823 433 812 b 399 742 420 778 411 759 b 358 675 388 724 374 702 b 342 668 356 671 350 669 b 317 671 333 667 325 668 b 297 686 308 674 302 679 b 294 715 291 694 291 703 m 206 274 b 235 185 207 236 217 206 b 324 153 252 163 282 153 b 374 160 344 153 361 155 b 405 178 387 166 397 172 b 423 201 413 185 419 193 b 435 219 427 209 431 215 b 472 245 445 232 457 241 b 510 243 486 249 499 249 b 535 213 522 238 530 228 b 531 154 541 199 539 179 b 451 44 516 110 489 73 b 301 0 412 15 363 0 b 181 28 254 0 214 9 b 98 101 147 46 120 71 b 50 203 76 131 60 165 b 35 321 40 242 35 281 b 49 429 35 359 40 395 b 98 519 59 463 75 493 b 187 580 121 544 150 565 b 324 603 223 595 269 603 b 465 568 384 603 431 591 b 515 444 498 545 515 504 b 488 338 515 399 506 364 b 415 282 469 313 445 294 b 316 264 386 270 353 264 b 206 274 279 264 243 267 m 210 368 b 268 364 228 364 248 363 b 324 374 288 365 307 368 b 365 399 340 379 354 388 b 382 442 376 410 382 424 b 363 481 382 461 376 474 b 325 493 351 488 338 492 b 278 485 306 494 291 491 b 245 457 265 478 254 469 b 223 416 236 445 229 431 b 210 368 217 401 213 385 "},"ê":{"ha":538,"x_min":0,"x_max":0,"o":"m 272 669 b 247 658 267 663 258 659 b 217 663 236 657 226 659 b 199 681 209 666 202 672 b 207 715 195 690 198 701 b 246 773 221 735 234 754 b 282 825 258 792 270 809 b 328 856 298 847 313 857 b 364 833 343 854 355 846 b 402 781 378 814 391 796 b 439 733 414 765 426 749 b 453 696 450 719 455 707 b 440 669 452 685 448 676 b 415 658 433 663 424 659 b 392 667 405 657 397 660 b 351 710 377 684 363 699 b 322 746 339 721 330 733 b 302 711 315 735 308 723 b 272 669 296 699 286 685 m 206 274 b 235 185 207 236 217 206 b 324 153 252 163 282 153 b 374 160 344 153 361 155 b 405 178 387 166 397 172 b 423 201 413 185 419 193 b 435 219 427 209 431 215 b 472 245 445 232 457 241 b 510 243 486 249 499 249 b 535 213 522 238 530 228 b 531 154 541 199 539 179 b 451 44 516 110 489 73 b 301 0 412 15 363 0 b 181 28 254 0 214 9 b 98 101 147 46 120 71 b 50 203 76 131 60 165 b 35 321 40 242 35 281 b 49 429 35 359 40 395 b 98 519 59 463 75 493 b 187 580 121 544 150 565 b 324 603 223 595 269 603 b 465 568 384 603 431 591 b 515 444 498 545 515 504 b 488 338 515 399 506 364 b 415 282 469 313 445 294 b 316 264 386 270 353 264 b 206 274 279 264 243 267 m 210 368 b 268 364 228 364 248 363 b 324 374 288 365 307 368 b 365 399 340 379 354 388 b 382 442 376 410 382 424 b 363 481 382 461 376 474 b 325 493 351 488 338 492 b 278 485 306 494 291 491 b 245 457 265 478 254 469 b 223 416 236 445 229 431 b 210 368 217 401 213 385 "},"ë":{"ha":538,"x_min":0,"x_max":0,"o":"m 181 726 b 198 774 181 748 186 764 b 240 790 209 785 224 790 b 289 771 259 790 275 784 b 306 721 303 758 308 741 b 283 681 304 703 296 690 b 238 667 270 671 255 667 b 181 726 198 667 179 687 m 464 728 b 445 681 463 706 457 691 b 404 665 434 670 420 665 b 355 685 385 665 368 672 b 339 735 341 698 336 714 b 361 775 341 752 348 766 b 407 789 374 784 389 789 b 450 773 425 789 440 784 b 464 728 460 762 465 747 m 206 274 b 235 185 207 236 217 206 b 324 153 252 163 282 153 b 374 160 344 153 361 155 b 405 178 387 166 397 172 b 423 201 413 185 419 193 b 435 219 427 209 431 215 b 472 245 445 232 457 241 b 510 243 486 249 499 249 b 535 213 522 238 530 228 b 531 154 541 199 539 179 b 451 44 516 110 489 73 b 301 0 412 15 363 0 b 181 28 254 0 214 9 b 98 101 147 46 120 71 b 50 203 76 131 60 165 b 35 321 40 242 35 281 b 49 429 35 359 40 395 b 98 519 59 463 75 493 b 187 580 121 544 150 565 b 324 603 223 595 269 603 b 465 568 384 603 431 591 b 515 444 498 545 515 504 b 488 338 515 399 506 364 b 415 282 469 313 445 294 b 316 264 386 270 353 264 b 206 274 279 264 243 267 m 210 368 b 268 364 228 364 248 363 b 324 374 288 365 307 368 b 365 399 340 379 354 388 b 382 442 376 410 382 424 b 363 481 382 461 376 474 b 325 493 351 488 338 492 b 278 485 306 494 291 491 b 245 457 265 478 254 469 b 223 416 236 445 229 431 b 210 368 217 401 213 385 "},"ì":{"ha":267,"x_min":0,"x_max":0,"o":"m 183 715 b 181 686 188 703 187 694 b 158 670 175 679 167 673 b 128 667 148 667 138 666 b 107 675 118 668 111 670 b 89 700 100 684 94 693 b 76 724 84 707 80 715 b 63 753 72 732 67 742 b 47 797 59 764 54 779 b 56 820 44 803 47 810 b 88 845 65 830 76 838 b 126 856 101 852 113 856 b 151 835 138 856 147 849 b 160 802 155 822 158 811 l 165 776 b 172 749 167 767 169 758 b 183 715 175 739 179 728 m 204 69 b 178 13 204 42 196 23 b 122 1 161 2 143 -2 b 66 24 102 3 83 11 b 42 74 49 38 41 54 b 51 296 44 138 47 212 b 61 553 54 380 57 466 b 90 595 62 570 72 584 b 149 612 108 606 127 611 b 205 596 170 612 189 607 b 224 543 221 585 227 567 b 205 308 212 468 205 390 b 204 69 204 226 204 146 "},"í":{"ha":267,"x_min":0,"x_max":0,"o":"m 122 715 b 154 835 125 728 136 768 b 176 846 156 840 163 844 b 216 845 189 848 203 847 b 250 831 229 843 241 838 b 256 797 259 823 261 812 b 226 742 247 778 237 759 b 185 675 214 724 200 702 b 168 668 182 671 176 669 b 143 671 160 667 151 668 b 123 686 135 674 128 679 b 122 715 118 694 118 703 m 204 69 b 178 13 204 42 196 23 b 122 1 161 2 143 -2 b 66 24 102 3 83 11 b 42 74 49 38 41 54 b 51 296 44 138 47 212 b 61 553 54 380 57 466 b 90 595 62 570 72 584 b 149 612 108 606 127 611 b 205 596 170 612 189 607 b 224 543 221 585 227 567 b 205 308 212 468 205 390 b 204 69 204 226 204 146 "},"î":{"ha":267,"x_min":0,"x_max":0,"o":"m 99 669 b 74 658 93 663 85 659 b 44 663 64 657 54 659 b 26 681 35 666 29 672 b 35 715 22 690 25 701 b 73 773 48 735 60 754 b 108 825 85 792 97 809 b 154 856 124 847 139 857 b 192 833 169 854 181 846 b 229 781 206 814 218 796 b 265 733 240 765 252 749 b 280 696 276 719 281 707 b 267 669 278 685 274 676 b 242 658 260 663 252 659 b 219 667 233 657 225 660 b 178 710 204 684 190 699 b 149 746 166 721 156 733 b 128 711 141 735 134 723 b 99 669 122 699 113 685 m 204 69 b 178 13 204 42 196 23 b 122 1 161 2 143 -2 b 66 24 102 3 83 11 b 42 74 49 38 41 54 b 51 296 44 138 47 212 b 61 553 54 380 57 466 b 90 595 62 570 72 584 b 149 612 108 606 127 611 b 205 596 170 612 189 607 b 224 543 221 585 227 567 b 205 308 212 468 205 390 b 204 69 204 226 204 146 "},"ï":{"ha":267,"x_min":0,"x_max":0,"o":"m 7 726 b 26 774 8 748 14 764 b 67 790 37 785 51 790 b 116 771 86 790 103 784 b 132 721 129 758 135 741 b 110 681 130 703 123 690 b 64 667 97 671 81 667 b 7 726 24 667 5 687 m 290 728 b 272 681 289 706 283 691 b 231 665 261 670 247 665 b 181 685 211 665 195 672 b 165 735 168 698 163 714 b 188 775 167 752 175 766 b 233 789 200 784 216 789 b 290 728 273 789 292 769 m 204 69 b 178 13 204 42 196 23 b 122 1 161 2 143 -2 b 66 24 102 3 83 11 b 42 74 49 38 41 54 b 51 296 44 138 47 212 b 61 553 54 380 57 466 b 90 595 62 570 72 584 b 149 612 108 606 127 611 b 205 596 170 612 189 607 b 224 543 221 585 227 567 b 205 308 212 468 205 390 b 204 69 204 226 204 146 "},"ð":{"ha":540,"x_min":0,"x_max":0,"o":"m 444 710 b 413 686 437 704 427 696 b 365 651 400 676 384 664 b 472 472 410 598 445 538 b 513 274 499 406 513 340 b 446 74 513 188 490 122 b 265 1 401 25 341 1 b 165 19 228 1 195 7 b 88 66 134 30 109 46 b 37 138 66 86 49 110 b 15 228 24 165 17 195 b 29 317 13 264 18 294 b 73 374 40 341 55 360 b 134 403 91 388 111 397 b 199 413 157 409 178 413 b 288 394 231 413 261 406 b 372 338 316 381 344 363 b 338 457 368 375 356 415 b 263 578 319 499 294 539 b 197 531 238 560 216 545 b 151 500 177 518 162 507 b 114 496 138 492 126 490 b 85 522 102 501 92 510 b 74 559 77 533 74 546 b 90 590 74 572 79 583 b 129 616 99 596 112 604 b 188 656 147 628 166 641 b 149 685 175 666 162 676 b 106 713 136 695 121 704 b 72 750 91 721 79 733 b 65 794 64 767 61 781 b 95 819 68 807 78 816 b 174 801 112 823 138 817 b 235 769 195 792 215 781 b 292 726 254 756 273 742 b 342 765 310 740 327 753 b 376 793 358 776 369 786 b 415 804 387 802 400 806 b 454 788 431 802 444 797 b 471 753 464 779 470 768 b 444 710 472 739 463 725 m 365 235 b 307 254 350 243 330 250 b 250 261 284 259 265 261 b 191 246 227 261 207 256 b 167 207 175 236 167 223 b 191 169 167 191 175 178 b 253 154 207 159 228 154 b 326 176 282 154 307 161 b 365 235 345 190 358 210 "},"ñ":{"ha":617,"x_min":0,"x_max":0,"o":"m 214 689 b 220 725 214 701 216 713 b 238 758 224 737 230 748 b 267 781 246 767 256 775 b 308 788 279 786 293 788 b 341 778 320 787 331 784 b 368 763 351 773 360 768 b 390 748 376 757 384 752 b 407 742 397 744 402 742 b 420 754 413 742 418 746 b 425 776 422 763 424 770 b 437 800 425 786 429 794 b 463 811 445 806 453 810 b 489 804 472 812 481 810 b 504 775 497 799 502 789 b 488 702 508 749 502 725 b 419 667 473 679 450 668 b 382 672 406 666 393 667 b 352 685 371 676 361 680 b 329 699 343 691 336 695 b 315 706 323 703 318 706 b 303 699 312 706 308 703 b 294 674 299 694 296 686 b 279 656 293 666 288 660 b 252 651 271 652 262 650 b 226 662 242 652 234 656 b 214 689 218 668 214 677 m 217 521 b 305 583 243 547 272 567 b 418 606 338 598 375 606 b 517 578 461 606 494 596 b 565 488 541 559 557 529 b 573 324 574 446 576 391 b 553 79 570 257 563 175 b 519 17 550 50 539 29 b 457 1 499 5 478 -1 b 402 24 436 2 417 10 b 389 79 387 38 382 56 b 397 124 391 88 394 102 b 406 197 401 145 404 169 b 408 284 407 225 408 254 b 401 367 408 314 406 342 b 379 428 397 392 389 412 b 338 453 369 445 355 453 b 283 428 321 453 303 444 b 213 350 264 411 240 385 l 210 236 b 208 113 209 198 208 157 b 183 24 208 71 200 41 b 128 -5 167 6 148 -3 b 73 10 107 -6 89 -1 b 50 53 57 22 49 36 b 58 278 54 117 56 192 b 57 557 59 365 59 458 b 81 602 56 579 64 594 b 136 612 97 610 116 613 b 192 595 156 610 175 605 b 217 563 208 585 217 575 l 217 521 "},"ò":{"ha":590,"x_min":0,"x_max":0,"o":"m 338 715 b 335 686 342 703 341 694 b 312 670 329 679 322 673 b 282 667 302 667 292 666 b 261 675 272 668 265 670 b 244 700 254 684 248 693 b 231 724 240 707 235 715 b 218 753 227 732 223 742 b 201 797 213 764 208 779 b 212 820 200 803 203 810 b 244 845 221 830 231 838 b 281 856 256 852 269 856 b 306 835 293 856 301 849 b 315 802 309 822 312 811 b 321 776 317 793 319 784 b 327 749 323 767 325 758 b 338 715 329 739 333 728 m 285 1 b 175 25 242 1 206 9 b 99 90 144 41 119 62 b 53 184 78 117 63 148 b 36 297 43 220 37 257 b 103 524 33 394 56 470 b 308 604 150 577 219 604 b 490 539 386 604 447 582 b 556 339 534 495 556 429 b 540 214 556 296 550 255 b 490 106 529 173 513 137 b 406 30 468 74 440 49 b 285 1 372 11 332 1 m 203 261 b 204 228 203 255 203 244 b 214 183 205 213 208 198 b 239 142 219 167 228 154 b 288 125 250 131 266 125 b 344 147 310 125 329 132 b 384 200 360 161 373 179 b 407 269 395 221 402 244 b 414 336 412 293 414 316 b 388 425 414 378 405 407 b 319 451 370 443 347 451 b 259 433 294 451 274 445 b 224 388 244 421 232 406 b 207 326 215 369 210 349 b 203 261 204 304 203 282 "},"ó":{"ha":590,"x_min":0,"x_max":0,"o":"m 276 715 b 287 754 278 721 282 734 b 310 835 292 775 300 801 b 331 846 311 840 318 844 b 371 845 344 848 357 847 b 405 831 385 843 396 838 b 410 797 414 823 415 812 b 381 742 402 778 393 759 b 340 675 370 724 356 702 b 324 668 338 671 332 669 b 299 671 315 667 307 668 b 278 686 290 674 283 679 b 276 715 272 694 272 703 m 285 1 b 175 25 242 1 206 9 b 99 90 144 41 119 62 b 53 184 78 117 63 148 b 36 297 43 220 37 257 b 103 524 33 394 56 470 b 308 604 150 577 219 604 b 490 539 386 604 447 582 b 556 339 534 495 556 429 b 540 214 556 296 550 255 b 490 106 529 173 513 137 b 406 30 468 74 440 49 b 285 1 372 11 332 1 m 203 261 b 204 228 203 255 203 244 b 214 183 205 213 208 198 b 239 142 219 167 228 154 b 288 125 250 131 266 125 b 344 147 310 125 329 132 b 384 200 360 161 373 179 b 407 269 395 221 402 244 b 414 336 412 293 414 316 b 388 425 414 378 405 407 b 319 451 370 443 347 451 b 259 433 294 451 274 445 b 224 388 244 421 232 406 b 207 326 215 369 210 349 b 203 261 204 304 203 282 "},"ô":{"ha":590,"x_min":0,"x_max":0,"o":"m 253 669 b 228 658 247 663 239 659 b 199 663 218 657 208 659 b 181 681 191 666 184 672 b 189 715 177 690 180 701 b 227 773 202 735 215 754 b 264 825 240 792 252 809 b 310 856 280 847 295 857 b 346 833 325 854 337 846 b 384 781 360 814 372 796 b 419 733 396 765 407 749 b 434 696 431 719 435 707 b 422 669 433 685 428 676 b 397 658 415 663 406 659 b 374 667 387 657 379 660 b 333 710 359 684 345 699 b 304 746 321 721 312 733 b 284 711 297 735 290 723 b 253 669 278 699 268 685 m 285 1 b 175 25 242 1 206 9 b 99 90 144 41 119 62 b 53 184 78 117 63 148 b 36 297 43 220 37 257 b 103 524 33 394 56 470 b 308 604 150 577 219 604 b 490 539 386 604 447 582 b 556 339 534 495 556 429 b 540 214 556 296 550 255 b 490 106 529 173 513 137 b 406 30 468 74 440 49 b 285 1 372 11 332 1 m 203 261 b 204 228 203 255 203 244 b 214 183 205 213 208 198 b 239 142 219 167 228 154 b 288 125 250 131 266 125 b 344 147 310 125 329 132 b 384 200 360 161 373 179 b 407 269 395 221 402 244 b 414 336 412 293 414 316 b 388 425 414 378 405 407 b 319 451 370 443 347 451 b 259 433 294 451 274 445 b 224 388 244 421 232 406 b 207 326 215 369 210 349 b 203 261 204 304 203 282 "},"õ":{"ha":590,"x_min":0,"x_max":0,"o":"m 158 699 b 165 735 158 711 160 723 b 182 767 169 747 175 758 b 210 790 189 777 199 785 b 251 797 222 796 236 798 b 285 788 263 796 275 793 b 313 772 295 783 304 778 b 334 758 321 767 328 762 b 350 751 340 753 345 751 b 363 764 356 751 361 756 b 368 786 366 772 367 780 b 381 810 369 795 373 803 b 406 822 388 816 397 820 b 433 815 416 823 425 821 b 449 786 442 810 447 800 b 432 712 452 759 447 734 b 363 676 417 689 394 677 b 325 682 349 676 336 678 b 295 695 314 686 304 690 b 273 709 286 700 279 705 b 258 715 267 713 262 715 b 247 708 256 715 252 713 b 238 683 243 704 239 695 b 224 666 237 676 232 670 b 197 661 215 662 206 660 b 170 672 187 662 178 666 b 158 699 162 678 158 687 m 285 1 b 175 25 242 1 206 9 b 99 90 144 41 119 62 b 53 184 78 117 63 148 b 36 297 43 220 37 257 b 103 524 33 394 56 470 b 308 604 150 577 219 604 b 490 539 386 604 447 582 b 556 339 534 495 556 429 b 540 214 556 296 550 255 b 490 106 529 173 513 137 b 406 30 468 74 440 49 b 285 1 372 11 332 1 m 203 261 b 204 228 203 255 203 244 b 214 183 205 213 208 198 b 239 142 219 167 228 154 b 288 125 250 131 266 125 b 344 147 310 125 329 132 b 384 200 360 161 373 179 b 407 269 395 221 402 244 b 414 336 412 293 414 316 b 388 425 414 378 405 407 b 319 451 370 443 347 451 b 259 433 294 451 274 445 b 224 388 244 421 232 406 b 207 326 215 369 210 349 b 203 261 204 304 203 282 "},"ö":{"ha":590,"x_min":0,"x_max":0,"o":"m 161 726 b 180 774 162 748 168 764 b 222 790 191 785 206 790 b 270 771 241 790 257 784 b 288 721 284 758 289 741 b 265 681 286 703 278 690 b 219 667 252 671 237 667 b 161 726 181 667 161 687 m 446 728 b 427 681 445 706 439 691 b 385 665 416 670 401 665 b 337 685 366 665 350 672 b 319 735 323 698 318 714 b 342 775 321 752 329 766 b 388 789 356 784 371 789 b 446 728 426 789 446 769 m 285 1 b 175 25 242 1 206 9 b 99 90 144 41 119 62 b 53 184 78 117 63 148 b 36 297 43 220 37 257 b 103 524 33 394 56 470 b 308 604 150 577 219 604 b 490 539 386 604 447 582 b 556 339 534 495 556 429 b 540 214 556 296 550 255 b 490 106 529 173 513 137 b 406 30 468 74 440 49 b 285 1 372 11 332 1 m 203 261 b 204 228 203 255 203 244 b 214 183 205 213 208 198 b 239 142 219 167 228 154 b 288 125 250 131 266 125 b 344 147 310 125 329 132 b 384 200 360 161 373 179 b 407 269 395 221 402 244 b 414 336 412 293 414 316 b 388 425 414 378 405 407 b 319 451 370 443 347 451 b 259 433 294 451 274 445 b 224 388 244 421 232 406 b 207 326 215 369 210 349 b 203 261 204 304 203 282 "},"ø":{"ha":590,"x_min":0,"x_max":0,"o":"m 269 1 b 241 -70 259 -25 250 -49 b 217 -121 232 -91 224 -108 b 185 -142 208 -135 198 -142 b 151 -133 173 -143 162 -140 b 127 -103 141 -126 133 -116 b 126 -65 121 -91 121 -78 b 142 -21 131 -52 136 -37 b 163 32 148 -4 155 13 b 108 78 141 44 123 59 b 69 140 92 96 80 117 b 46 215 59 163 51 188 b 36 297 40 242 37 269 b 103 524 33 394 56 470 b 308 604 150 577 219 604 b 353 599 326 604 341 602 b 367 642 357 613 362 628 b 381 685 371 656 376 670 b 414 731 389 711 400 726 b 452 725 428 735 441 733 b 479 686 464 717 473 704 b 479 635 486 669 486 651 b 467 601 475 624 471 613 b 456 567 464 590 460 579 b 530 478 488 545 513 516 b 556 339 547 441 556 394 b 540 214 556 296 550 255 b 490 106 529 173 513 137 b 406 30 468 74 440 49 b 285 1 372 11 332 1 l 269 1 m 203 261 b 205 228 203 255 203 244 b 214 182 206 213 209 198 b 258 310 228 223 242 265 b 304 450 273 354 288 401 b 251 427 282 447 264 440 b 221 381 238 415 228 399 b 206 322 213 363 209 344 b 203 261 204 301 203 281 m 314 129 b 359 160 331 135 347 145 b 390 213 372 176 382 193 b 408 276 399 233 405 254 b 414 336 412 297 414 318 b 401 404 414 363 410 386 b 356 262 386 356 371 309 b 314 129 342 215 328 171 "},"ù":{"ha":614,"x_min":0,"x_max":0,"o":"m 353 715 b 351 686 357 703 357 694 b 327 670 345 679 337 673 b 297 667 317 667 307 666 b 276 675 287 668 280 670 b 259 700 269 684 263 693 b 247 724 255 707 251 715 b 233 753 242 732 238 742 b 217 797 229 764 223 779 b 227 820 215 803 218 810 b 259 845 236 830 247 838 b 296 856 272 852 284 856 b 321 835 308 856 316 849 b 330 802 325 822 328 811 b 336 776 332 793 334 784 b 342 749 338 767 340 758 b 353 715 345 739 348 728 m 392 60 b 392 71 392 63 392 66 b 393 88 393 75 393 81 b 301 23 365 58 334 36 b 203 3 267 9 234 3 b 101 40 158 3 125 15 b 53 149 78 65 62 101 b 44 322 45 196 41 254 b 56 557 46 391 50 469 b 85 607 57 579 67 596 b 143 623 103 618 123 623 b 198 601 163 622 182 615 b 221 539 214 588 222 567 b 208 380 217 481 213 428 b 201 254 204 331 201 289 b 212 172 200 219 204 191 b 256 142 220 152 234 142 b 304 158 272 142 288 147 b 347 199 320 168 334 182 b 381 252 360 215 372 233 b 403 306 391 271 398 289 b 403 419 404 342 404 380 b 400 540 403 459 402 500 b 411 572 400 550 404 561 b 440 601 419 583 428 593 b 480 619 452 609 466 615 b 519 619 494 623 507 623 b 550 594 531 616 542 607 b 563 536 558 581 563 562 b 564 426 563 505 563 468 b 565 299 565 385 565 342 b 563 173 565 256 564 214 b 553 65 561 132 557 96 b 522 11 549 43 539 25 b 467 -13 504 -3 486 -11 b 415 0 447 -16 430 -11 b 392 60 399 11 392 31 "},"ú":{"ha":614,"x_min":0,"x_max":0,"o":"m 292 715 b 302 754 294 721 297 734 b 325 835 307 775 315 801 b 346 846 326 840 333 844 b 386 845 359 848 372 847 b 420 831 400 843 411 838 b 425 797 429 823 431 812 b 397 742 418 778 408 759 b 356 675 385 724 371 702 b 339 668 353 671 347 669 b 314 671 331 667 322 668 b 293 686 306 674 299 679 b 292 715 288 694 287 703 m 392 60 b 392 71 392 63 392 66 b 393 88 393 75 393 81 b 301 23 365 58 334 36 b 203 3 267 9 234 3 b 101 40 158 3 125 15 b 53 149 78 65 62 101 b 44 322 45 196 41 254 b 56 557 46 391 50 469 b 85 607 57 579 67 596 b 143 623 103 618 123 623 b 198 601 163 622 182 615 b 221 539 214 588 222 567 b 208 380 217 481 213 428 b 201 254 204 331 201 289 b 212 172 200 219 204 191 b 256 142 220 152 234 142 b 304 158 272 142 288 147 b 347 199 320 168 334 182 b 381 252 360 215 372 233 b 403 306 391 271 398 289 b 403 419 404 342 404 380 b 400 540 403 459 402 500 b 411 572 400 550 404 561 b 440 601 419 583 428 593 b 480 619 452 609 466 615 b 519 619 494 623 507 623 b 550 594 531 616 542 607 b 563 536 558 581 563 562 b 564 426 563 505 563 468 b 565 299 565 385 565 342 b 563 173 565 256 564 214 b 553 65 561 132 557 96 b 522 11 549 43 539 25 b 467 -13 504 -3 486 -11 b 415 0 447 -16 430 -11 b 392 60 399 11 392 31 "},"û":{"ha":614,"x_min":0,"x_max":0,"o":"m 268 669 b 244 658 263 663 254 659 b 215 663 233 657 223 659 b 196 681 206 666 200 672 b 204 715 192 690 195 701 b 242 773 217 735 230 754 b 279 825 255 792 267 809 b 325 856 295 847 310 857 b 361 833 340 854 352 846 b 399 781 375 814 388 796 b 435 733 411 765 423 749 b 449 696 446 719 451 707 b 437 669 448 685 444 676 b 412 658 430 663 422 659 b 389 667 402 657 394 660 b 349 710 374 684 361 699 b 319 746 337 721 327 733 b 299 711 312 735 305 723 b 268 669 293 699 283 685 m 392 60 b 392 71 392 63 392 66 b 393 88 393 75 393 81 b 301 23 365 58 334 36 b 203 3 267 9 234 3 b 101 40 158 3 125 15 b 53 149 78 65 62 101 b 44 322 45 196 41 254 b 56 557 46 391 50 469 b 85 607 57 579 67 596 b 143 623 103 618 123 623 b 198 601 163 622 182 615 b 221 539 214 588 222 567 b 208 380 217 481 213 428 b 201 254 204 331 201 289 b 212 172 200 219 204 191 b 256 142 220 152 234 142 b 304 158 272 142 288 147 b 347 199 320 168 334 182 b 381 252 360 215 372 233 b 403 306 391 271 398 289 b 403 419 404 342 404 380 b 400 540 403 459 402 500 b 411 572 400 550 404 561 b 440 601 419 583 428 593 b 480 619 452 609 466 615 b 519 619 494 623 507 623 b 550 594 531 616 542 607 b 563 536 558 581 563 562 b 564 426 563 505 563 468 b 565 299 565 385 565 342 b 563 173 565 256 564 214 b 553 65 561 132 557 96 b 522 11 549 43 539 25 b 467 -13 504 -3 486 -11 b 415 0 447 -16 430 -11 b 392 60 399 11 392 31 "},"ü":{"ha":614,"x_min":0,"x_max":0,"o":"m 176 726 b 195 774 177 748 184 764 b 238 790 207 785 221 790 b 285 771 256 790 272 784 b 303 721 299 758 305 741 b 281 681 301 703 294 690 b 235 667 268 671 252 667 b 176 726 196 667 176 687 m 461 728 b 442 681 460 706 454 691 b 400 665 431 670 417 665 b 352 685 381 665 366 672 b 335 735 339 698 333 714 b 358 775 337 752 344 766 b 403 789 371 784 386 789 b 461 728 442 789 461 769 m 392 60 b 392 71 392 63 392 66 b 393 88 393 75 393 81 b 301 23 365 58 334 36 b 203 3 267 9 234 3 b 101 40 158 3 125 15 b 53 149 78 65 62 101 b 44 322 45 196 41 254 b 56 557 46 391 50 469 b 85 607 57 579 67 596 b 143 623 103 618 123 623 b 198 601 163 622 182 615 b 221 539 214 588 222 567 b 208 380 217 481 213 428 b 201 254 204 331 201 289 b 212 172 200 219 204 191 b 256 142 220 152 234 142 b 304 158 272 142 288 147 b 347 199 320 168 334 182 b 381 252 360 215 372 233 b 403 306 391 271 398 289 b 403 419 404 342 404 380 b 400 540 403 459 402 500 b 411 572 400 550 404 561 b 440 601 419 583 428 593 b 480 619 452 609 466 615 b 519 619 494 623 507 623 b 550 594 531 616 542 607 b 563 536 558 581 563 562 b 564 426 563 505 563 468 b 565 299 565 385 565 342 b 563 173 565 256 564 214 b 553 65 561 132 557 96 b 522 11 549 43 539 25 b 467 -13 504 -3 486 -11 b 415 0 447 -16 430 -11 b 392 60 399 11 392 31 "},"ý":{"ha":558,"x_min":0,"x_max":0,"o":"m 263 715 b 273 754 264 721 268 734 b 296 835 278 775 286 801 b 317 846 297 840 304 844 b 357 845 330 848 343 847 b 391 831 371 843 382 838 b 396 797 400 823 401 812 b 366 742 388 778 378 759 b 325 675 354 724 341 702 b 310 668 323 671 318 669 b 285 671 301 667 293 668 b 264 686 276 674 269 679 b 263 715 258 694 258 703 m 93 -126 b 190 34 130 -71 162 -17 b 267 197 217 85 243 140 b 234 190 255 194 244 191 b 208 189 224 189 216 189 b 101 225 162 189 126 201 b 46 316 76 249 58 279 b 25 435 34 353 27 392 b 21 557 23 478 22 519 b 48 596 21 572 30 585 b 107 613 66 607 86 613 b 164 594 128 614 147 607 b 183 522 181 580 187 556 b 182 474 182 513 182 497 b 188 403 182 450 184 427 b 211 339 192 379 200 357 b 261 311 222 320 239 311 b 301 328 277 311 290 317 b 331 368 311 339 321 352 b 362 462 341 398 351 429 b 394 567 372 495 383 530 b 432 607 401 586 413 600 b 489 614 450 614 469 617 b 540 594 508 611 525 604 b 557 554 554 583 560 570 b 502 324 542 474 524 397 b 433 119 480 250 457 182 b 360 -56 409 55 385 -3 b 292 -199 335 -109 312 -157 b 242 -261 276 -229 259 -250 b 190 -275 224 -272 207 -277 b 142 -255 172 -273 156 -266 b 106 -214 127 -243 115 -230 b 88 -166 96 -198 90 -182 b 93 -126 85 -150 87 -137 "},"þ":{"ha":668,"x_min":0,"x_max":0,"o":"m 232 785 b 237 671 235 754 236 716 b 236 522 237 625 237 576 b 293 544 257 531 276 538 b 340 562 310 551 325 557 b 385 573 355 567 370 571 b 432 576 400 575 415 576 b 583 522 494 576 544 558 b 640 360 621 486 640 432 b 622 245 640 321 634 283 b 571 144 610 208 593 174 b 490 73 549 115 522 91 b 385 46 459 55 424 46 b 312 55 365 46 341 49 b 224 89 283 61 253 72 b 218 -28 222 47 220 8 b 213 -124 216 -65 215 -97 b 210 -190 212 -152 211 -173 b 208 -217 209 -206 208 -215 b 194 -240 207 -225 203 -233 b 161 -258 185 -248 174 -254 b 121 -265 148 -263 135 -265 b 82 -252 107 -264 94 -260 b 52 -216 70 -244 60 -232 b 42 -149 44 -200 41 -177 b 58 238 45 -40 51 89 b 68 771 65 388 68 565 b 93 822 68 796 76 813 b 149 832 110 830 128 834 b 205 815 169 830 188 825 b 232 785 222 806 231 796 m 239 267 b 306 219 258 248 281 232 b 383 199 331 205 356 199 b 460 233 419 199 444 210 b 485 317 477 256 485 284 b 481 356 485 330 483 343 b 465 390 478 369 473 380 b 436 415 458 400 448 409 b 392 425 424 422 409 425 b 315 408 369 425 344 419 b 243 357 285 396 262 379 l 239 267 "},"ÿ":{"ha":558,"x_min":0,"x_max":0,"o":"m 147 726 b 166 774 148 748 154 764 b 207 790 178 785 191 790 b 256 771 226 790 243 784 b 274 721 270 758 275 741 b 250 681 271 703 263 690 b 204 667 237 671 222 667 b 161 683 186 667 171 672 b 147 726 151 693 146 708 m 431 728 b 413 681 431 706 425 691 b 371 665 402 670 388 665 b 322 685 352 665 336 672 b 306 735 308 698 303 714 b 328 775 307 752 315 766 b 374 789 341 784 356 789 b 431 728 413 789 432 769 m 93 -126 b 190 34 130 -71 162 -17 b 267 197 217 85 243 140 b 234 190 255 194 244 191 b 208 189 224 189 216 189 b 101 225 162 189 126 201 b 46 316 76 249 58 279 b 25 435 34 353 27 392 b 21 557 23 478 22 519 b 48 596 21 572 30 585 b 107 613 66 607 86 613 b 164 594 128 614 147 607 b 183 522 181 580 187 556 b 182 474 182 513 182 497 b 188 403 182 450 184 427 b 211 339 192 379 200 357 b 261 311 222 320 239 311 b 301 328 277 311 290 317 b 331 368 311 339 321 352 b 362 462 341 398 351 429 b 394 567 372 495 383 530 b 432 607 401 586 413 600 b 489 614 450 614 469 617 b 540 594 508 611 525 604 b 557 554 554 583 560 570 b 502 324 542 474 524 397 b 433 119 480 250 457 182 b 360 -56 409 55 385 -3 b 292 -199 335 -109 312 -157 b 242 -261 276 -229 259 -250 b 190 -275 224 -272 207 -277 b 142 -255 172 -273 156 -266 b 106 -214 127 -243 115 -230 b 88 -166 96 -198 90 -182 b 93 -126 85 -150 87 -137 "},"Ā":{"ha":714,"x_min":0,"x_max":0,"o":"m 493 1036 b 523 1026 504 1036 514 1033 b 542 1000 532 1019 538 1010 b 540 969 545 990 545 980 b 507 946 534 959 524 951 b 458 936 493 941 477 938 b 398 933 439 934 419 933 b 335 933 377 932 356 932 b 276 933 313 933 294 933 b 242 949 261 933 249 938 b 233 981 235 959 232 970 b 244 1014 233 993 237 1004 b 272 1029 251 1024 260 1029 b 331 1030 294 1029 313 1029 b 383 1031 348 1030 366 1031 b 435 1033 400 1032 417 1032 b 493 1036 452 1034 472 1035 m 199 67 b 185 31 199 54 194 42 b 150 5 175 21 164 12 b 106 -8 136 -2 121 -6 b 63 -3 90 -10 76 -9 b 34 25 51 2 41 11 b 29 82 27 39 25 58 b 50 206 34 113 41 154 b 85 372 59 257 71 313 b 135 552 99 431 115 491 b 201 717 154 613 176 668 b 283 837 225 766 253 806 b 385 883 314 868 348 883 b 488 838 424 883 458 868 b 563 721 517 808 542 769 b 616 560 584 673 602 619 b 651 385 630 502 642 443 b 673 224 661 328 668 274 b 686 107 678 175 682 136 b 679 53 688 88 686 70 b 653 14 673 37 664 24 b 615 -7 642 4 629 -3 b 576 -3 601 -11 588 -9 b 542 31 563 3 552 14 b 524 100 533 47 526 70 b 514 184 522 122 519 150 b 496 294 509 218 503 255 b 391 293 463 293 428 292 b 290 294 354 294 321 294 l 263 294 b 229 296 251 294 240 295 b 207 160 220 247 213 202 b 199 67 201 119 199 88 m 254 422 b 313 419 273 421 292 420 b 361 418 333 419 349 418 b 411 419 374 418 391 419 b 474 424 431 420 452 422 b 450 537 466 463 458 500 b 426 634 442 573 434 606 b 404 701 419 662 412 685 b 385 726 397 718 390 726 b 351 701 374 726 362 718 b 317 634 339 685 328 662 b 284 537 306 606 295 573 b 254 422 273 500 263 462 "},"ā":{"ha":625,"x_min":0,"x_max":0,"o":"m 394 782 b 424 772 406 782 416 778 b 443 747 433 765 439 756 b 441 716 447 737 446 727 b 408 692 436 705 425 697 b 358 682 394 687 378 684 b 298 678 339 680 319 679 b 235 678 277 678 256 678 b 178 679 215 679 195 679 b 144 694 162 679 151 684 b 134 728 137 705 134 716 b 145 760 134 740 138 751 b 174 775 152 770 162 775 b 231 776 194 775 213 775 b 284 777 249 776 267 777 b 336 779 301 778 319 778 b 394 782 354 780 373 781 m 418 557 b 435 602 416 575 422 591 b 481 624 449 614 464 621 b 528 620 497 626 513 625 b 557 590 544 615 553 605 b 561 551 558 585 559 572 b 567 474 563 530 565 504 b 572 374 569 443 570 410 b 575 267 573 339 574 303 b 576 165 576 231 576 197 b 574 83 576 133 575 106 b 542 13 571 51 560 28 b 484 -10 524 -1 505 -9 b 428 3 463 -12 445 -7 b 408 44 412 13 406 27 b 411 76 410 50 411 61 b 340 29 390 58 366 42 b 257 10 314 16 287 10 b 167 35 225 10 195 18 b 97 102 140 51 117 74 b 51 201 78 130 63 163 b 35 322 40 239 35 280 b 55 442 35 369 41 409 b 106 526 68 476 85 504 b 177 574 127 547 151 563 b 257 589 203 584 230 589 b 350 568 292 589 323 582 b 419 519 377 554 400 538 b 419 538 419 526 419 532 b 418 557 418 544 418 550 m 419 219 b 422 283 420 240 421 261 b 422 350 422 306 422 328 b 364 410 403 377 383 397 b 292 429 344 423 320 429 b 217 395 258 428 234 417 b 194 283 201 373 194 336 b 217 179 194 234 202 200 b 293 149 233 159 258 149 b 360 166 320 149 342 154 b 419 219 378 178 398 195 "},"Ă":{"ha":714,"x_min":0,"x_max":0,"o":"m 389 919 b 337 928 371 919 354 922 b 291 952 320 933 304 941 b 259 990 278 963 267 975 b 250 1040 251 1005 248 1022 b 268 1077 252 1058 258 1070 b 301 1085 278 1084 289 1087 b 333 1072 312 1084 323 1079 b 349 1042 342 1064 348 1054 b 365 1001 350 1022 355 1009 b 395 992 374 994 384 991 b 422 1010 406 994 415 1000 b 429 1050 430 1020 432 1033 b 438 1083 427 1064 430 1075 b 467 1096 446 1092 456 1096 b 501 1083 478 1096 489 1092 b 525 1042 512 1075 520 1061 b 523 985 531 1019 530 1000 b 492 947 516 969 506 956 b 443 926 478 937 462 930 b 389 919 425 922 406 919 m 199 67 b 185 31 199 54 194 42 b 150 5 175 21 164 12 b 106 -8 136 -2 121 -6 b 63 -3 90 -10 76 -9 b 34 25 51 2 41 11 b 29 82 27 39 25 58 b 50 206 34 113 41 154 b 85 372 59 257 71 313 b 135 552 99 431 115 491 b 201 717 154 613 176 668 b 283 837 225 766 253 806 b 385 883 314 868 348 883 b 488 838 424 883 458 868 b 563 721 517 808 542 769 b 616 560 584 673 602 619 b 651 385 630 502 642 443 b 673 224 661 328 668 274 b 686 107 678 175 682 136 b 679 53 688 88 686 70 b 653 14 673 37 664 24 b 615 -7 642 4 629 -3 b 576 -3 601 -11 588 -9 b 542 31 563 3 552 14 b 524 100 533 47 526 70 b 514 184 522 122 519 150 b 496 294 509 218 503 255 b 391 293 463 293 428 292 b 290 294 354 294 321 294 l 263 294 b 229 296 251 294 240 295 b 207 160 220 247 213 202 b 199 67 201 119 199 88 m 254 422 b 313 419 273 421 292 420 b 361 418 333 419 349 418 b 411 419 374 418 391 419 b 474 424 431 420 452 422 b 450 537 466 463 458 500 b 426 634 442 573 434 606 b 404 701 419 662 412 685 b 385 726 397 718 390 726 b 351 701 374 726 362 718 b 317 634 339 685 328 662 b 284 537 306 606 295 573 b 254 422 273 500 263 462 "},"ă":{"ha":625,"x_min":0,"x_max":0,"o":"m 289 665 b 237 674 271 665 254 668 b 192 698 220 679 205 687 b 160 737 179 709 168 722 b 151 788 153 752 150 769 b 168 824 152 805 158 817 b 201 831 178 830 189 833 b 234 817 213 830 224 825 b 250 788 244 809 249 800 b 266 747 251 768 256 755 b 296 738 276 740 286 737 b 323 756 306 740 315 745 b 331 796 331 766 333 779 b 340 831 329 811 332 822 b 368 843 347 839 357 843 b 402 830 379 843 391 839 b 426 788 414 821 422 807 b 424 731 432 765 431 746 b 393 692 417 715 407 702 b 344 672 379 683 363 676 b 289 665 325 667 306 665 m 418 557 b 435 602 416 575 422 591 b 481 624 449 614 464 621 b 528 620 497 626 513 625 b 557 590 544 615 553 605 b 561 551 558 585 559 572 b 567 474 563 530 565 504 b 572 374 569 443 570 410 b 575 267 573 339 574 303 b 576 165 576 231 576 197 b 574 83 576 133 575 106 b 542 13 571 51 560 28 b 484 -10 524 -1 505 -9 b 428 3 463 -12 445 -7 b 408 44 412 13 406 27 b 411 76 410 50 411 61 b 340 29 390 58 366 42 b 257 10 314 16 287 10 b 167 35 225 10 195 18 b 97 102 140 51 117 74 b 51 201 78 130 63 163 b 35 322 40 239 35 280 b 55 442 35 369 41 409 b 106 526 68 476 85 504 b 177 574 127 547 151 563 b 257 589 203 584 230 589 b 350 568 292 589 323 582 b 419 519 377 554 400 538 b 419 538 419 526 419 532 b 418 557 418 544 418 550 m 419 219 b 422 283 420 240 421 261 b 422 350 422 306 422 328 b 364 410 403 377 383 397 b 292 429 344 423 320 429 b 217 395 258 428 234 417 b 194 283 201 373 194 336 b 217 179 194 234 202 200 b 293 149 233 159 258 149 b 360 166 320 149 342 154 b 419 219 378 178 398 195 "},"Ą":{"ha":714,"x_min":0,"x_max":0,"o":"m 199 67 b 185 31 199 54 194 42 b 150 5 175 21 164 12 b 106 -8 136 -2 121 -6 b 63 -3 90 -10 76 -9 b 34 25 51 2 41 11 b 29 82 27 39 25 58 b 50 206 34 113 41 154 b 85 372 59 257 71 313 b 135 552 99 431 115 491 b 201 717 154 613 176 668 b 283 837 225 766 253 806 b 385 883 314 868 348 883 b 488 838 424 883 458 868 b 563 721 517 808 542 769 b 616 560 584 673 602 619 b 651 385 630 502 642 443 b 673 224 661 328 668 274 b 686 107 678 175 682 136 b 669 31 689 77 683 52 b 617 -7 654 10 637 -2 b 558 -76 594 -27 574 -50 b 533 -150 541 -101 533 -126 b 540 -183 533 -162 536 -173 b 563 -197 545 -192 552 -197 b 590 -189 572 -198 581 -195 b 615 -171 600 -182 608 -176 b 655 -160 630 -160 643 -156 b 680 -183 666 -165 675 -172 b 685 -220 685 -194 687 -207 b 665 -253 683 -234 676 -244 b 609 -283 646 -266 627 -276 b 549 -294 591 -291 571 -294 b 459 -262 509 -294 479 -284 b 426 -179 439 -240 428 -212 b 436 -115 425 -155 428 -134 b 468 -65 444 -97 455 -80 b 512 -25 481 -50 496 -37 b 558 10 528 -13 544 -1 b 524 100 539 27 527 57 b 514 184 522 122 519 150 b 496 294 509 218 503 255 b 391 293 463 293 428 292 b 290 294 354 294 321 294 l 263 294 b 229 296 251 294 240 295 b 207 160 220 247 213 202 b 199 67 201 119 199 88 m 254 422 b 313 419 273 421 292 420 b 361 418 333 419 349 418 b 411 419 374 418 391 419 b 474 424 431 420 452 422 b 450 537 466 463 458 500 b 426 634 442 573 434 606 b 404 701 419 662 412 685 b 385 726 397 718 390 726 b 351 701 374 726 362 718 b 317 634 339 685 328 662 b 284 537 306 606 295 573 b 254 422 273 500 263 462 "},"ą":{"ha":625,"x_min":0,"x_max":0,"o":"m 418 557 b 435 602 416 575 422 591 b 481 624 449 614 464 621 b 528 620 497 626 513 625 b 557 590 544 615 553 605 b 561 551 558 585 559 572 b 567 474 563 530 565 504 b 572 374 569 443 570 410 b 575 267 573 339 574 303 b 576 165 576 231 576 197 b 574 83 576 133 575 106 b 545 16 572 53 562 30 b 490 -10 528 2 510 -7 b 433 -76 468 -29 449 -51 b 410 -150 418 -101 410 -126 b 417 -183 410 -162 412 -173 b 439 -197 421 -192 429 -197 b 466 -189 447 -198 456 -195 b 492 -171 476 -182 484 -176 b 531 -160 506 -160 520 -156 b 556 -183 543 -165 551 -172 b 561 -220 561 -194 563 -207 b 542 -253 559 -234 553 -244 b 485 -283 522 -266 503 -276 b 425 -294 467 -291 447 -294 b 335 -262 385 -294 355 -284 b 303 -179 316 -240 305 -212 b 312 -117 301 -156 304 -135 b 342 -68 320 -99 330 -83 b 383 -28 354 -53 367 -40 b 426 4 398 -17 413 -6 b 411 22 420 9 415 15 b 408 44 407 28 406 36 b 411 76 410 50 411 61 b 340 29 390 58 366 42 b 257 10 314 16 287 10 b 167 35 225 10 195 18 b 97 102 140 51 117 74 b 51 201 78 130 63 163 b 35 322 40 239 35 280 b 55 442 35 369 41 409 b 106 526 68 476 85 504 b 177 574 127 547 151 563 b 257 589 203 584 230 589 b 350 568 292 589 323 582 b 419 519 377 554 400 538 b 419 538 419 526 419 532 b 418 557 418 544 418 550 m 419 219 b 422 283 420 240 421 261 b 422 350 422 306 422 328 b 364 410 403 377 383 397 b 292 429 344 423 320 429 b 217 395 258 428 234 417 b 194 283 201 373 194 336 b 217 179 194 234 202 200 b 293 149 233 159 258 149 b 360 166 320 149 342 154 b 419 219 378 178 398 195 "},"Ć":{"ha":625,"x_min":0,"x_max":0,"o":"m 299 947 b 309 985 300 953 304 966 b 331 1065 314 1005 321 1032 b 353 1077 332 1071 340 1075 b 392 1077 366 1079 379 1079 b 426 1062 406 1075 417 1070 b 432 1029 436 1054 438 1043 b 402 974 424 1010 414 991 b 361 907 391 956 377 934 b 344 900 358 903 353 901 b 319 903 336 899 328 900 b 299 918 311 906 304 911 b 299 947 294 925 294 935 m 338 0 b 192 32 280 0 231 11 b 96 126 152 53 120 84 b 45 276 72 167 55 217 b 35 478 35 336 32 403 b 58 660 38 551 45 612 b 113 776 71 708 90 747 b 201 838 137 805 166 825 b 322 856 235 850 276 856 b 502 813 399 856 459 841 b 596 689 545 785 576 744 b 604 629 604 665 607 645 b 585 592 601 613 595 601 b 550 575 576 584 564 578 b 509 575 536 572 522 572 b 474 590 496 578 484 583 b 454 618 463 598 457 607 b 415 710 442 663 429 694 b 363 733 400 725 383 733 b 292 702 337 733 313 723 b 239 623 272 681 254 655 b 206 517 224 591 213 556 b 194 404 198 478 194 440 b 202 318 194 378 197 350 b 227 229 207 287 216 257 b 275 160 239 201 255 178 b 351 132 295 141 321 132 b 405 143 370 132 388 136 b 451 171 422 150 437 160 b 485 208 464 182 475 194 b 503 249 494 222 500 236 b 517 272 505 257 509 265 b 544 288 525 278 534 284 b 574 294 553 292 564 294 b 601 284 585 293 594 290 b 617 256 609 278 614 269 b 613 203 619 243 618 225 b 524 58 598 144 568 96 b 338 0 480 20 418 1 "},"ć":{"ha":524,"x_min":0,"x_max":0,"o":"m 250 715 b 282 835 253 728 263 768 b 304 846 284 840 291 844 b 344 845 317 848 330 847 b 378 831 357 843 369 838 b 383 797 387 823 389 812 b 353 742 375 778 365 759 b 313 675 342 724 328 702 b 296 668 310 671 304 669 b 271 671 288 667 279 668 b 251 686 263 674 256 679 b 250 715 246 694 245 703 m 292 1 b 175 27 246 1 207 10 b 96 97 143 44 116 67 b 51 198 75 126 60 159 b 36 318 41 236 36 276 b 99 532 35 413 56 485 b 278 603 141 579 201 603 b 414 569 331 603 376 592 b 482 467 452 547 475 513 b 474 393 488 433 486 409 b 431 365 462 377 447 368 b 383 369 414 361 398 363 b 358 396 367 376 359 385 b 334 437 356 414 348 428 b 293 450 320 446 306 450 b 255 435 279 450 266 445 b 225 397 243 426 233 413 b 206 343 217 381 210 363 b 199 279 201 323 199 301 b 203 235 199 264 200 250 b 218 194 206 220 211 206 b 248 165 225 182 235 173 b 297 154 260 158 277 154 b 361 174 325 154 346 161 b 393 222 376 187 387 203 b 429 281 402 251 414 270 b 472 292 444 291 458 295 b 508 271 486 290 498 283 b 522 228 519 259 523 244 b 499 119 520 184 513 148 b 447 50 486 91 468 68 b 374 13 425 32 400 20 b 292 1 347 5 319 1 "},"Ĉ":{"ha":625,"x_min":0,"x_max":0,"o":"m 275 901 b 251 890 269 895 261 891 b 221 894 240 889 230 891 b 202 913 212 898 205 904 b 211 947 199 922 202 933 b 249 1005 224 967 237 986 b 285 1057 262 1024 274 1041 b 331 1088 300 1079 316 1089 b 368 1065 345 1086 358 1078 b 406 1013 382 1046 394 1028 b 442 965 417 997 429 981 b 456 928 453 951 458 939 b 444 901 455 917 451 908 b 419 889 437 894 428 890 b 396 899 409 888 401 891 b 354 941 380 915 366 929 b 325 978 342 953 332 965 b 305 943 318 967 311 955 b 275 901 299 931 289 917 m 338 0 b 192 32 280 0 231 11 b 96 126 152 53 120 84 b 45 276 72 167 55 217 b 35 478 35 336 32 403 b 58 660 38 551 45 612 b 113 776 71 708 90 747 b 201 838 137 805 166 825 b 322 856 235 850 276 856 b 502 813 399 856 459 841 b 596 689 545 785 576 744 b 604 629 604 665 607 645 b 585 592 601 613 595 601 b 550 575 576 584 564 578 b 509 575 536 572 522 572 b 474 590 496 578 484 583 b 454 618 463 598 457 607 b 415 710 442 663 429 694 b 363 733 400 725 383 733 b 292 702 337 733 313 723 b 239 623 272 681 254 655 b 206 517 224 591 213 556 b 194 404 198 478 194 440 b 202 318 194 378 197 350 b 227 229 207 287 216 257 b 275 160 239 201 255 178 b 351 132 295 141 321 132 b 405 143 370 132 388 136 b 451 171 422 150 437 160 b 485 208 464 182 475 194 b 503 249 494 222 500 236 b 517 272 505 257 509 265 b 544 288 525 278 534 284 b 574 294 553 292 564 294 b 601 284 585 293 594 290 b 617 256 609 278 614 269 b 613 203 619 243 618 225 b 524 58 598 144 568 96 b 338 0 480 20 418 1 "}}}
